<?xml version="1.0" standalone="no"?>
<!DOCTYPE svg PUBLIC "-//W3C//DTD SVG 20010904//EN"
 "http://www.w3.org/TR/2001/REC-SVG-20010904/DTD/svg10.dtd">
<svg version="1.0" xmlns="http://www.w3.org/2000/svg"
 width="518.000000pt" height="564.000000pt" viewBox="0 0 518.000000 564.000000"
 preserveAspectRatio="xMidYMid meet">

<g transform="translate(0.000000,564.000000) scale(0.100000,-0.100000)"
fill="#000000" stroke="none">
<path d="M4015 5050 c-198 -3 -1046 -6 -1885 -7 -946 -2 -1538 -6 -1558 -12
-61 -18 -166 -82 -207 -126 -41 -44 -82 -123 -106 -203 -9 -32 -11 -133 -6
-440 8 -485 11 -1600 7 -2487 -3 -881 -3 -882 131 -1016 65 -65 127 -101 211
-120 31 -7 54 -17 51 -22 -9 -14 20 -27 34 -16 8 8 16 5 25 -10 14 -22 30 -28
25 -10 -4 21 20 20 26 -1 3 -13 11 -18 20 -14 8 3 18 0 22 -5 3 -6 10 -9 15
-6 4 3 13 -1 19 -9 7 -8 21 -12 33 -9 18 5 19 4 9 -16 -11 -19 -9 -21 18 -21
16 0 33 -4 36 -10 11 -18 35 -11 35 10 0 32 27 35 70 6 38 -25 56 -23 44 7 -3
10 3 16 21 19 14 3 28 2 30 -2 2 -4 15 -6 27 -5 13 1 15 0 6 -2 -22 -5 -24
-33 -3 -33 8 0 15 -4 15 -10 0 -5 9 -10 21 -10 11 0 29 -4 39 -10 15 -8 17 -6
13 10 -5 21 11 28 22 10 3 -6 13 -10 22 -10 13 0 13 3 3 15 -17 21 1 41 27 30
12 -5 14 -9 6 -12 -18 -6 -16 -20 3 -27 9 -4 13 -2 8 5 -3 6 6 21 22 34 l28
22 28 -20 c15 -11 28 -27 28 -35 0 -9 6 -12 16 -8 9 3 20 6 25 6 5 0 9 6 9 14
0 7 10 16 22 19 24 7 41 -3 21 -10 -14 -5 -18 -33 -5 -33 4 0 13 5 20 12 9 9
15 8 26 -8 11 -14 18 -16 26 -8 8 8 7 14 -5 24 -8 7 -15 17 -15 22 0 13 43 -2
53 -19 5 -8 16 -11 28 -8 14 5 25 1 35 -12 13 -16 14 -15 8 18 -6 35 8 61 24
44 4 -4 1 -10 -5 -12 -17 -6 -16 -30 1 -36 9 -4 16 3 20 15 4 18 8 19 20 9 9
-7 24 -10 37 -6 16 5 28 0 50 -24 15 -17 33 -31 40 -31 8 0 6 6 -4 18 -18 19
-23 42 -9 42 4 0 16 -10 26 -21 13 -16 20 -18 26 -9 5 9 9 9 14 1 10 -15 29
-2 22 15 -6 16 -7 15 52 18 40 2 56 -7 30 -17 -7 -2 -9 -8 -5 -13 4 -5 12 -2
17 6 7 12 11 12 27 -2 24 -21 104 -28 111 -9 3 9 -1 11 -17 6 -26 -8 -27 0 -2
26 16 17 19 18 31 4 7 -8 20 -15 30 -15 10 0 20 -7 24 -15 3 -9 0 -15 -10 -15
-9 0 -14 -6 -11 -12 2 -7 16 -12 31 -10 14 1 26 -2 26 -8 0 -6 9 -2 20 8 13
12 18 25 14 36 -6 16 -5 17 16 4 17 -9 24 -10 27 -1 2 6 21 -6 44 -28 22 -22
44 -37 50 -34 15 10 10 26 -7 23 -9 -2 -20 7 -25 20 -10 25 2 29 25 7 8 -8 21
-15 29 -15 9 0 17 -5 19 -11 2 -6 12 -7 27 -1 16 6 20 11 13 16 -7 4 -10 12
-6 17 3 5 10 6 16 3 7 -5 9 2 4 20 -6 26 8 38 17 14 3 -10 9 -10 26 0 19 11
21 10 21 -14 0 -16 -5 -24 -12 -22 -16 6 -33 -11 -40 -38 -4 -17 -2 -20 13
-17 11 3 19 11 19 19 0 17 46 48 58 40 6 -3 15 1 22 9 7 8 17 12 22 9 6 -4 14
-1 19 7 6 10 12 8 28 -10 11 -13 26 -21 33 -19 7 3 18 -2 25 -11 11 -14 13
-14 26 3 12 16 15 17 29 3 13 -14 17 -13 31 4 17 20 15 23 -15 20 -10 -1 -18
4 -18 13 0 24 27 19 58 -9 25 -24 62 -26 70 -4 2 4 11 5 19 2 12 -5 15 -2 10
9 -3 10 1 19 10 22 13 5 14 0 9 -28 -6 -31 -4 -34 21 -39 23 -4 25 -3 11 7
-14 11 -14 14 3 35 10 12 24 19 30 15 6 -3 16 0 21 7 7 11 11 11 15 2 2 -7 13
-13 24 -13 11 0 22 -7 26 -15 5 -14 8 -14 25 2 20 18 49 10 54 -15 1 -7 0 -8
-3 -2 -7 15 -35 12 -31 -2 3 -8 25 -14 54 -15 27 0 43 1 37 4 -7 2 -13 9 -13
13 0 10 67 6 77 -4 3 -3 17 -6 31 -6 21 0 23 -4 18 -24 -3 -14 -2 -27 3 -30 5
-3 12 10 16 30 5 28 2 39 -12 50 -17 12 -17 13 0 14 9 0 17 -4 17 -10 0 -5 9
-10 19 -10 25 0 38 -20 20 -31 -7 -4 -10 -11 -7 -15 12 -11 38 24 36 48 -2 18
1 22 17 20 25 -5 37 -23 25 -37 -6 -7 -2 -17 11 -28 11 -10 17 -22 14 -27 -3
-6 -2 -10 3 -10 5 0 12 9 15 20 3 13 0 20 -9 20 -8 0 -14 7 -14 16 0 10 5 14
15 10 8 -3 22 -9 30 -12 10 -4 18 2 23 17 l9 23 14 -22 c18 -29 69 -31 69 -2
0 23 25 27 34 5 6 -17 36 -21 36 -5 0 6 10 10 23 10 20 -1 21 -2 5 -14 -20
-15 -14 -26 14 -26 21 0 23 12 7 42 -19 35 -1 32 31 -6 34 -38 57 -46 66 -21
7 17 66 14 72 -4 7 -20 42 -12 42 9 0 26 20 25 53 0 24 -19 26 -20 36 -3 8 15
13 16 30 6 15 -10 20 -9 25 3 3 8 17 19 31 24 22 8 24 13 15 30 -16 31 3 24
28 -10 l23 -30 -26 0 c-14 0 -25 -4 -25 -10 0 -5 -5 -9 -11 -7 -6 1 -14 -4
-17 -12 -3 -10 1 -12 18 -8 16 4 28 1 35 -10 13 -18 35 -10 35 13 0 8 8 14 18
14 13 0 14 -2 3 -9 -7 -5 -10 -14 -7 -20 11 -17 24 -13 31 9 3 11 11 20 16 20
6 0 17 7 25 15 24 23 35 18 24 -11 -13 -34 -13 -34 14 -34 19 0 24 5 23 23 0
12 -6 25 -12 29 -16 12 14 9 36 -3 20 -10 20 -11 2 -31 -13 -15 -15 -22 -5
-25 6 -3 12 -11 12 -19 0 -9 4 -13 9 -10 5 3 7 16 4 27 -4 14 0 25 11 31 13 8
15 13 5 24 -8 9 -8 14 -1 14 6 0 16 -9 22 -20 14 -27 34 -26 27 1 -5 18 -2 20
16 16 12 -2 30 -8 40 -12 13 -6 16 -4 11 9 -6 16 9 22 46 18 65 -7 130 -6 127
3 -2 5 -21 9 -41 8 -26 -2 -44 4 -59 17 -21 21 -18 38 5 24 7 -5 24 -9 38 -10
14 0 33 -4 42 -8 13 -6 15 -3 11 14 -5 18 -2 21 22 18 33 -4 47 21 16 29 -17
4 -18 7 -7 19 8 7 12 23 9 35 -5 16 -2 20 13 17 20 -3 21 7 8 50 -5 16 -2 22
10 22 9 0 15 -3 13 -8 -2 -7 6 -12 18 -12 3 0 1 8 -4 18 -13 24 -3 62 15 62 8
0 14 -5 14 -12 0 -6 2 -9 5 -7 2 3 2 15 -2 27 -5 22 -28 30 -35 12 -2 -6 -9
-6 -17 0 -24 14 7 43 41 38 19 -3 28 0 28 9 0 7 -9 13 -20 13 -11 0 -20 4 -20
9 0 5 -3 16 -6 25 -4 11 -1 16 10 16 9 0 16 -6 16 -12 0 -10 3 -9 9 1 5 7 6
22 4 32 -3 10 0 19 6 19 6 0 11 -4 11 -10 0 -5 7 -7 15 -4 24 10 17 21 -15 26
-24 4 -30 1 -30 -14 0 -10 -7 -18 -15 -18 -8 0 -15 9 -15 20 0 35 22 120 30
120 5 0 25 -14 44 -31 l35 -30 -6 34 c-6 41 13 60 33 32 8 -10 16 -16 19 -13
4 3 -5 18 -19 33 l-26 28 -21 -27 c-25 -32 -42 -25 -28 11 12 33 3 80 -19 93
-15 8 -15 9 2 10 15 0 17 6 14 32 -5 31 -5 31 12 10 22 -27 31 -19 20 19 -5
17 -5 31 1 34 16 11 10 25 -11 25 -19 0 -26 19 -21 58 3 18 -17 14 -28 -6 -5
-10 -29 -25 -53 -32 -60 -19 -138 -72 -225 -152 -55 -52 -80 -68 -102 -68 -16
0 -31 5 -33 10 -2 7 -19 8 -53 1 -28 -5 -113 -12 -190 -16 -77 -3 -158 -10
-179 -15 -50 -11 -65 -3 -82 46 -23 65 -62 216 -70 267 -8 56 0 59 92 26 67
-23 114 -34 114 -25 0 3 -9 22 -19 43 -11 21 -25 51 -31 67 -8 21 -15 26 -28
21 -9 -4 -744 -9 -1633 -11 -1808 -6 -1690 -10 -1762 64 -19 20 -52 64 -71 96
-29 48 -36 70 -36 111 0 28 -4 55 -10 61 -11 11 -17 190 -7 201 4 3 8 -9 9
-28 2 -52 19 202 20 316 1 55 -2 141 -7 191 -7 81 -10 91 -26 87 -10 -3 -20
-12 -22 -22 -2 -9 -2 7 0 34 3 28 9 54 14 59 5 6 9 61 9 124 0 73 4 111 10
107 7 -4 10 47 10 147 0 198 21 681 30 691 7 8 3869 11 3877 4 2 -3 3 -355 2
-783 -1 -429 -1 -842 0 -920 3 -171 -11 -274 -49 -352 -24 -51 -35 -62 -72
-76 -24 -10 -55 -22 -69 -29 l-27 -11 53 -62 c47 -56 99 -150 142 -257 33 -80
45 -18 17 81 -25 86 -15 222 26 341 47 137 112 262 154 298 36 32 105 59 117
45 3 -4 1 -34 -7 -67 -7 -33 -13 -100 -14 -150 -1 -95 -5 -121 -39 -278 -25
-116 -56 -184 -86 -191 -16 -4 -26 -20 -38 -63 -8 -32 -14 -59 -12 -61 1 -2
20 25 40 60 50 84 121 156 222 224 l84 57 -5 43 c-4 33 -2 44 8 44 7 0 20 7
27 17 13 15 11 16 -14 9 -28 -7 -29 -6 -22 26 4 18 13 38 21 44 20 16 17 26
-5 19 -23 -7 -30 9 -24 52 3 20 10 30 17 27 14 -5 42 23 33 32 -3 3 -15 0 -27
-6 -14 -8 -26 -8 -32 -2 -6 6 -1 12 15 16 14 3 27 15 30 26 4 17 0 20 -24 20
-29 0 -41 22 -19 35 6 3 10 2 10 -4 0 -6 7 -8 16 -4 11 4 23 -3 35 -18 16 -20
18 -20 12 -4 -9 27 -28 45 -47 45 -17 0 -23 17 -31 82 -3 28 -1 49 5 53 8 5 8
11 0 20 -7 8 -8 20 -4 27 12 19 14 58 3 58 -6 0 -6 8 1 20 6 11 17 20 25 20 8
0 15 8 15 17 0 13 -3 14 -12 5 -15 -15 -32 -16 -23 -2 4 6 1 17 -5 25 -8 10
-9 19 -3 28 5 6 9 33 7 60 -1 42 1 47 20 48 20 1 20 2 1 6 -28 7 -35 23 -22
45 9 14 9 23 0 37 -10 15 -10 21 0 24 9 3 9 9 -1 26 -8 15 -9 21 -1 21 7 0 9
10 6 26 -3 17 0 28 10 31 11 4 12 8 3 13 -14 9 -22 108 -10 115 5 3 4 21 -1
41 -7 22 -7 40 -1 47 12 14 11 97 -1 97 -4 0 -5 5 -1 11 3 6 0 15 -7 20 -12 8
-12 10 0 18 10 7 11 18 3 55 -6 28 -6 49 0 52 5 3 6 15 3 25 -4 11 -1 26 5 34
10 12 9 16 -4 21 -16 6 -16 8 -1 24 11 12 13 20 6 25 -19 11 -12 35 12 36 l22
0 -22 16 c-26 17 -30 33 -10 33 7 0 22 7 33 15 18 14 16 15 -20 9 -28 -5 -37
-4 -32 5 4 6 12 9 17 6 5 -4 5 5 -1 20 -10 27 1 65 20 65 6 0 10 5 10 11 0 6
-8 8 -19 4 -16 -5 -19 -2 -17 17 1 13 6 30 11 37 5 9 2 18 -8 26 -18 13 -5 34
22 36 12 0 12 2 -2 8 -26 10 -18 24 22 38 25 9 37 9 42 2 5 -8 9 -8 13 0 4 6
2 11 -3 11 -6 0 -11 7 -11 15 0 19 -16 20 -23 1 -3 -7 -17 -16 -31 -18 -23 -5
-26 -3 -20 16 8 27 24 37 46 30 13 -4 16 -1 12 10 -3 9 -17 16 -31 16 -19 0
-24 4 -19 16 3 8 2 13 -3 10 -5 -3 -11 1 -15 9 -3 8 -2 16 2 19 11 6 52 -12
52 -24 0 -5 8 -10 18 -10 14 1 13 4 -7 21 -18 15 -21 23 -13 31 21 21 13 31
-13 14 -31 -20 -32 -20 -38 6 -4 14 0 26 11 34 16 12 16 13 0 19 -26 10 -22
25 8 25 15 0 23 4 19 11 -4 6 -13 8 -19 6 -7 -3 -18 4 -24 14 -10 16 -9 19 4
19 8 0 12 5 8 11 -3 6 -6 89 -6 185 1 106 -3 176 -9 180 -6 4 -6 11 2 20 9 11
8 18 -2 30 -10 13 -10 17 0 24 11 6 11 12 -2 31 -13 18 -14 24 -3 33 10 9 11
26 4 76 -5 36 -10 84 -12 107 -6 68 -67 182 -124 233 -54 49 -103 80 -142 92
-82 23 -114 27 -195 26 -49 -2 -252 -5 -450 -8z m-387 -326 c18 -12 22 -25 22
-66 0 -35 6 -58 17 -70 22 -24 25 -93 11 -208 -11 -86 -39 -143 -79 -155 -9
-3 -22 -19 -29 -36 -11 -25 -10 -32 5 -49 24 -26 30 -25 76 11 42 33 48 32 23
-7 -24 -36 -65 -55 -89 -42 -65 34 -95 96 -58 117 27 14 31 214 8 338 -19 99
-16 132 15 163 24 24 48 25 78 4z m-2923 -294 c3 -5 1 -10 -4 -10 -6 0 -11 5
-11 10 0 6 2 10 4 10 3 0 8 -4 11 -10z m1154 -94 c44 -23 99 -91 107 -132 13
-73 -68 -163 -147 -164 -40 0 -109 51 -134 101 -34 65 -1 149 73 188 45 24 64
25 101 7z m-399 -11 c50 -26 85 -82 85 -136 0 -44 -4 -52 -50 -99 -64 -65 -93
-67 -146 -9 -21 23 -46 61 -55 85 -16 43 -16 44 10 88 47 81 95 103 156 71z
m-411 -29 c-11 -9 -69 -15 -64 -6 3 6 20 10 37 10 17 0 29 -2 27 -4z m-79 -25
c0 -5 -7 -11 -15 -15 -15 -5 -20 5 -8 17 9 10 23 9 23 -2z m3131 -29 c38 -34
36 -63 -7 -105 -35 -36 -60 -34 -84 6 -24 39 -26 84 -3 109 23 26 58 22 94
-10z m-411 -2 c0 -5 -5 -10 -11 -10 -5 0 -7 5 -4 10 3 6 8 10 11 10 2 0 4 -4
4 -10z m1240 -46 c0 -8 -5 -12 -10 -9 -6 4 -8 11 -5 16 9 14 15 11 15 -7z m0
-69 c0 -8 -2 -15 -4 -15 -2 0 -6 7 -10 15 -3 8 -1 15 4 15 6 0 10 -7 10 -15z
m-4338 -1477 c-7 -7 -12 -8 -12 -2 0 14 12 26 19 19 2 -3 -1 -11 -7 -17z
m4368 -668 c0 -5 -4 -10 -10 -10 -5 0 -10 5 -10 10 0 6 5 10 10 10 6 0 10 -4
10 -10z m-3047 -674 c42 -1 77 -4 77 -8 0 -5 6 -8 13 -8 15 0 107 -97 107
-113 0 -7 8 -17 18 -23 15 -10 17 -24 14 -111 l-3 -100 -152 -9 c-185 -11
-828 -6 -843 7 -6 5 -21 10 -35 12 -18 2 -31 17 -51 58 -15 30 -49 77 -75 104
-37 39 -46 56 -44 79 2 16 -1 26 -7 22 -5 -3 -12 8 -14 25 -3 16 -2 31 1 33 3
2 59 7 124 11 65 4 161 12 212 18 58 8 185 10 337 8 133 -2 278 -5 321 -5z
m3077 -130 c0 -3 -4 -8 -10 -11 -5 -3 -10 -1 -10 4 0 6 5 11 10 11 6 0 10 -2
10 -4z m-499 -180 c22 -9 20 -64 -3 -71 -9 -3 -19 -16 -22 -28 -18 -70 -99
-103 -215 -85 -79 12 -103 26 -136 78 -24 38 -33 98 -17 114 9 10 371 2 393
-8z m429 -72 c0 -8 -4 -14 -10 -14 -5 0 -10 9 -10 21 0 11 5 17 10 14 6 -3 10
-13 10 -21z m-35 -64 c3 -5 1 -10 -4 -10 -6 0 -11 5 -11 10 0 6 2 10 4 10 3 0
8 -4 11 -10z m-8 -135 c9 -25 -4 -29 -17 -6 -7 15 -7 21 0 21 6 0 13 -7 17
-15z m-47 1 c0 -11 -19 -15 -25 -6 -3 5 1 10 9 10 9 0 16 -2 16 -4z m19 -45
c9 -16 8 -18 -9 -14 -23 6 -26 -9 -5 -27 11 -9 12 -17 4 -31 -10 -20 -39 -26
-39 -9 0 6 5 10 10 10 19 0 10 28 -12 33 -18 5 -19 8 -8 21 7 9 19 16 26 16 8
0 14 5 14 10 0 16 8 12 19 -9z m-89 -31 c0 -11 5 -20 10 -20 6 0 10 -7 10 -15
0 -8 -4 -15 -9 -15 -12 0 -41 57 -33 64 11 12 22 5 22 -14z m-73 -76 c-8 -8
-47 29 -40 39 3 4 14 -1 25 -13 11 -12 18 -24 15 -26z m23 36 c0 -5 -5 -10
-11 -10 -5 0 -7 5 -4 10 3 6 8 10 11 10 2 0 4 -4 4 -10z m-3475 -20 c3 -5 1
-10 -4 -10 -6 0 -11 5 -11 10 0 6 2 10 4 10 3 0 8 -4 11 -10z m925 0 c0 -5 -4
-10 -10 -10 -5 0 -10 5 -10 10 0 6 5 10 10 10 6 0 10 -4 10 -10z m730 0 c0 -5
-5 -10 -11 -10 -5 0 -7 5 -4 10 3 6 8 10 11 10 2 0 4 -4 4 -10z m430 0 c0 -5
-4 -10 -9 -10 -6 0 -13 5 -16 10 -3 6 1 10 9 10 9 0 16 -4 16 -10z m660 0 c0
-5 -4 -10 -10 -10 -5 0 -10 5 -10 10 0 6 5 10 10 10 6 0 10 -4 10 -10z m140
-9 c0 -17 -18 -21 -24 -6 -3 9 0 15 9 15 8 0 15 -4 15 -9z m-3210 -11 c0 -5
-4 -10 -9 -10 -6 0 -13 5 -16 10 -3 6 1 10 9 10 9 0 16 -4 16 -10z m610 6 c0
-11 -19 -15 -25 -6 -3 5 1 10 9 10 9 0 16 -2 16 -4z m1150 0 c0 -2 -7 -6 -15
-10 -8 -3 -15 -1 -15 4 0 6 7 10 15 10 8 0 15 -2 15 -4z m1703 -12 c11 -11 -3
-24 -18 -18 -8 4 -12 10 -9 15 6 11 18 12 27 3z m209 -24 c-6 -15 -11 -19 -16
-12 -4 7 -1 18 6 26 17 19 20 14 10 -14z m65 4 c-9 -9 -28 6 -21 18 4 6 10 6
17 -1 6 -6 8 -13 4 -17z m-3087 7 c0 -6 -4 -13 -10 -16 -5 -3 -10 1 -10 9 0 9
5 16 10 16 6 0 10 -4 10 -9z m1657 -13 c-3 -8 -6 -5 -6 6 -1 11 2 17 5 13 3
-3 4 -12 1 -19z m1209 -16 c-9 -8 -26 10 -26 26 1 15 2 15 15 -2 8 -11 13 -21
11 -24z m69 28 c3 -5 13 -6 23 -3 9 3 13 2 9 -2 -10 -12 -87 -16 -87 -5 0 7
16 15 42 19 4 0 9 -3 13 -9z m-3135 -4 c0 -3 -4 -8 -10 -11 -5 -3 -10 -1 -10
4 0 6 5 11 10 11 6 0 10 -2 10 -4z m588 -32 c-16 -16 -38 -12 -38 7 0 6 5 7
10 4 6 -3 13 1 16 10 5 12 10 13 17 6 8 -8 7 -16 -5 -27z m492 27 c0 -5 -7
-14 -15 -21 -12 -10 -19 -10 -27 -2 -9 9 -8 12 5 12 9 0 17 5 17 10 0 6 5 10
10 10 6 0 10 -4 10 -9z m840 -1 c0 -5 -4 -10 -10 -10 -5 0 -10 5 -10 10 0 6 5
10 10 10 6 0 10 -4 10 -10z m-2330 -10 c0 -5 -12 -10 -27 -10 -22 0 -25 2 -13
10 20 13 40 13 40 0z m331 -3 c-1 -12 -15 -9 -19 4 -3 6 1 10 8 8 6 -3 11 -8
11 -12z m209 3 c0 -5 -4 -10 -10 -10 -5 0 -10 5 -10 10 0 6 5 10 10 10 6 0 10
-4 10 -10z m660 -1 c11 -8 12 -12 3 -16 -7 -2 -13 -11 -13 -19 0 -8 -2 -14 -5
-14 -6 0 -45 38 -45 44 0 4 18 10 40 15 3 0 12 -4 20 -10z m650 1 c0 -5 -7
-10 -16 -10 -8 0 -12 5 -9 10 3 6 10 10 16 10 5 0 9 -4 9 -10z m550 0 c0 -15
-28 -30 -44 -24 -27 10 -18 31 14 31 17 0 30 -4 30 -7z m78 -2 c-6 -18 -28
-21 -28 -4 0 9 7 16 16 16 9 0 14 -5 12 -12z m409 -10 c-3 -8 -6 -5 -6 6 -1
11 2 17 5 13 3 -3 4 -12 1 -19z m246 2 c3 -11 2 -22 -3 -25 -11 -7 -33 22 -25
35 10 16 22 12 28 -10z m170 4 c-3 -7 -20 -11 -46 -9 -68 5 -74 7 -37 14 57
11 89 9 83 -5z m-1963 -8 c0 -8 6 -16 13 -19 6 -2 9 -7 6 -11 -4 -4 -18 4 -32
18 -24 24 -24 26 -7 26 11 0 20 -6 20 -14z m60 4 c0 -5 -9 -10 -20 -10 -11 0
-20 5 -20 10 0 6 9 10 20 10 11 0 20 -4 20 -10z m140 -5 c0 -8 -7 -15 -15 -15
-8 0 -15 7 -15 15 0 8 7 15 15 15 8 0 15 -7 15 -15z m500 -6 c0 -5 -7 -9 -15
-9 -8 0 -15 7 -15 15 0 9 6 12 15 9 8 -4 15 -10 15 -15z m770 11 c0 -5 -4 -10
-10 -10 -5 0 -10 -7 -10 -17 0 -9 -3 -14 -6 -10 -8 8 5 47 17 47 5 0 9 -4 9
-10z m-2536 -16 c9 -22 -3 -32 -14 -14 -12 19 -12 30 -1 30 5 0 12 -7 15 -16z
m2756 1 c0 -8 -4 -15 -9 -15 -13 0 -22 16 -14 24 11 11 23 6 23 -9z m417 -11
c-9 -9 -28 6 -21 18 4 6 10 6 17 -1 6 -6 8 -13 4 -17z m-1847 7 c0 -11 -39
-25 -47 -18 -3 3 -2 10 2 16 8 13 45 15 45 2z"/>
<path d="M5050 4199 c0 -5 5 -7 10 -4 6 3 10 8 10 11 0 2 -4 4 -10 4 -5 0 -10
-5 -10 -11z"/>
<path d="M5120 4180 c0 -5 5 -10 10 -10 6 0 10 5 10 10 0 6 -4 10 -10 10 -5 0
-10 -4 -10 -10z"/>
<path d="M5090 4110 c-9 -6 -10 -10 -3 -10 6 0 15 5 18 10 8 12 4 12 -15 0z"/>
<path d="M4982 4049 c2 -7 10 -15 17 -17 8 -3 12 1 9 9 -2 7 -10 15 -17 17 -8
3 -12 -1 -9 -9z"/>
<path d="M5045 4020 c-4 -6 -11 -8 -16 -5 -5 3 -6 -1 -3 -10 5 -13 9 -13 23
-3 9 7 17 13 19 14 2 1 -1 5 -7 8 -5 4 -12 2 -16 -4z"/>
<path d="M5005 3980 c3 -5 8 -10 11 -10 2 0 4 5 4 10 0 6 -5 10 -11 10 -5 0
-7 -4 -4 -10z"/>
<path d="M5000 3944 c0 -14 3 -14 15 -4 12 10 15 9 15 -4 0 -10 5 -14 10 -11
8 5 7 11 -1 21 -16 19 -39 18 -39 -2z"/>
<path d="M5050 3820 c0 -5 5 -10 10 -10 6 0 10 5 10 10 0 6 -4 10 -10 10 -5 0
-10 -4 -10 -10z"/>
<path d="M4990 3625 c-8 -9 -8 -15 -2 -15 12 0 26 19 19 26 -2 2 -10 -2 -17
-11z"/>
<path d="M4980 3586 c0 -9 7 -19 15 -23 25 -9 27 2 5 22 -18 17 -20 17 -20 1z"/>
<path d="M4980 3510 c0 -5 5 -10 10 -10 6 0 10 5 10 10 0 6 -4 10 -10 10 -5 0
-10 -4 -10 -10z"/>
<path d="M5047 3483 c-4 -3 -7 -11 -7 -17 0 -6 5 -5 12 2 6 6 9 14 7 17 -3 3
-9 2 -12 -2z"/>
<path d="M2873 3333 c-215 -3 -263 -6 -263 -17 0 -8 8 -17 18 -22 19 -8 1490
-16 1535 -8 40 8 34 31 -10 38 -50 7 -945 14 -1280 9z"/>
<path d="M4975 3330 c-3 -6 1 -7 9 -4 18 7 21 14 7 14 -6 0 -13 -4 -16 -10z"/>
<path d="M5008 3313 c7 -3 16 -2 19 1 4 3 -2 6 -13 5 -11 0 -14 -3 -6 -6z"/>
<path d="M5000 3279 c0 -5 5 -7 10 -4 6 3 10 8 10 11 0 2 -4 4 -10 4 -5 0 -10
-5 -10 -11z"/>
<path d="M4968 3143 c7 -3 16 -2 19 1 4 3 -2 6 -13 5 -11 0 -14 -3 -6 -6z"/>
<path d="M2610 3100 c0 -20 8 -20 388 -22 213 -2 468 -2 567 -2 99 1 282 2
408 3 136 0 227 5 227 11 0 5 -15 11 -32 14 -18 3 -376 7 -795 10 -757 6 -763
6 -763 -14z"/>
<path d="M5000 3100 c0 -11 5 -20 12 -20 6 0 8 3 5 7 -4 3 -2 12 4 20 9 10 8
13 -5 13 -9 0 -16 -8 -16 -20z"/>
<path d="M1610 3084 c30 -8 68 -22 83 -31 39 -21 45 -10 9 16 -18 13 -52 23
-88 26 l-59 5 55 -16z"/>
<path d="M1342 3081 c-10 -6 -11 -14 -4 -27 15 -30 32 -86 28 -93 -2 -3 -64
-3 -137 0 -151 8 -153 7 -183 -78 -23 -66 -20 -66 305 -58 l278 8 23 -28 c53
-64 67 -75 98 -75 17 0 40 5 51 11 28 14 47 7 27 -11 -10 -10 -13 -28 -10 -67
4 -49 3 -53 -22 -63 -14 -5 -26 -14 -26 -20 0 -15 -41 -12 -160 10 -106 19
-183 42 -206 60 -6 6 -15 26 -18 45 -11 54 -36 46 -36 -12 0 -89 -26 -95 -154
-34 -90 43 -159 45 -216 6 -52 -36 -104 -93 -129 -143 -11 -21 -31 -46 -45
-56 -24 -15 -28 -15 -50 -1 -24 16 -25 15 -50 -22 -32 -46 -33 -83 -5 -109 17
-15 37 -19 100 -19 78 0 78 0 121 -41 63 -59 91 -74 157 -80 80 -9 109 0 156
49 l40 42 275 -5 276 -5 44 -36 c62 -49 91 -59 165 -59 65 0 115 15 115 34 1
6 10 22 20 35 16 19 26 22 48 16 77 -21 155 7 193 69 21 35 26 115 7 134 -17
17 -38 106 -27 113 20 12 -44 29 -108 29 l-66 0 7 43 c4 27 3 37 -3 28 -8 -12
-19 -11 -73 3 -34 10 -85 22 -113 27 -79 16 -146 40 -139 50 3 6 0 17 -7 25
-11 14 -8 20 21 44 l35 29 -45 43 c-25 24 -65 58 -89 77 -35 28 -41 30 -32 13
9 -17 9 -28 -2 -49 -11 -21 -12 -32 -4 -45 8 -12 7 -21 -2 -32 -14 -17 -88
-43 -96 -34 -3 2 -1 27 4 54 5 27 8 51 5 53 -2 2 -54 13 -115 23 -142 24 -175
37 -182 74 -4 19 -1 33 9 40 8 6 14 14 14 18 0 9 -53 7 -68 -3z m-202 -529
c33 -24 70 -98 70 -138 0 -38 -36 -86 -79 -103 -33 -14 -89 -11 -81 4 3 6 13
9 23 7 25 -3 73 32 75 55 10 110 -9 156 -64 156 -47 0 -67 -36 -62 -115 3 -59
2 -65 -13 -58 -9 5 -19 6 -23 3 -13 -14 -35 34 -36 78 0 52 22 88 74 121 35
22 77 18 116 -10z m941 -9 c74 -44 79 -181 10 -247 -22 -21 -43 -30 -78 -33
-42 -4 -53 -1 -80 21 -58 48 -76 176 -34 235 12 17 27 31 33 31 6 0 5 -6 -3
-16 -7 -9 -15 -52 -17 -100 -4 -79 -3 -87 19 -110 21 -23 30 -25 73 -21 39 3
55 10 72 32 49 62 41 139 -19 190 -44 38 -29 49 24 18z m-332 -99 c-16 -15
-62 -8 -56 10 2 6 14 12 26 12 12 1 25 4 29 8 3 4 8 2 10 -4 3 -7 -2 -18 -9
-26z m276 -25 c8 -35 3 -44 -20 -36 -15 6 -21 48 -8 60 13 14 22 6 28 -24z"/>
<path d="M1208 3054 c-27 -8 -48 -19 -48 -24 0 -13 45 -3 90 21 42 22 23 23
-42 3z"/>
<path d="M5018 2963 c6 -2 18 -2 25 0 6 3 1 5 -13 5 -14 0 -19 -2 -12 -5z"/>
<path d="M4981 2933 c0 -25 1 -26 9 -8 12 27 12 35 0 35 -5 0 -10 -12 -9 -27z"/>
<path d="M2723 2903 c-107 -3 -113 -5 -113 -24 l0 -21 518 6 c838 10 1083 17
1079 30 -3 8 -187 11 -688 11 -376 1 -735 -1 -796 -2z"/>
<path d="M4960 2880 c0 -5 5 -10 10 -10 6 0 10 5 10 10 0 6 -4 10 -10 10 -5 0
-10 -4 -10 -10z"/>
<path d="M602 2845 c0 -16 2 -22 5 -12 2 9 2 23 0 30 -3 6 -5 -1 -5 -18z"/>
<path d="M4980 2830 c0 -5 5 -10 10 -10 6 0 10 5 10 10 0 6 -4 10 -10 10 -5 0
-10 -4 -10 -10z"/>
<path d="M2240 2761 c0 -16 25 -30 39 -22 11 7 9 11 -7 20 -25 13 -32 14 -32
2z"/>
<path d="M2728 2713 c-91 -3 -118 -7 -118 -17 0 -8 6 -16 13 -18 6 -3 364 -3
795 0 574 3 782 8 779 16 -2 6 -28 14 -58 18 -53 6 -1182 7 -1411 1z"/>
<path d="M4980 2680 c0 -5 4 -10 9 -10 6 0 13 5 16 10 3 6 -1 10 -9 10 -9 0
-16 -4 -16 -10z"/>
<path d="M5045 2649 c-9 -14 -2 -20 14 -10 8 6 9 11 3 15 -6 3 -14 1 -17 -5z"/>
<path d="M5007 2599 c6 -22 23 -26 23 -5 0 8 -6 16 -14 19 -10 4 -12 0 -9 -14z"/>
<path d="M5005 2537 c-12 -9 -14 -16 -7 -21 6 -3 16 3 22 14 13 24 10 25 -15
7z"/>
<path d="M4960 2430 c0 -5 7 -10 15 -10 8 0 15 5 15 10 0 6 -7 10 -15 10 -8 0
-15 -4 -15 -10z"/>
<path d="M2826 2402 c-42 -3 -54 -9 -95 -50 -30 -30 -50 -60 -54 -81 -24 -118
17 -227 100 -270 15 -8 202 -11 637 -11 607 0 617 0 661 21 55 26 81 61 97
128 17 75 -1 147 -50 193 -85 79 -29 73 -672 74 -316 0 -597 -2 -624 -4z m309
-152 c11 0 71 3 133 6 128 7 136 3 146 -55 3 -22 9 -46 12 -55 5 -13 -8 -15
-96 -14 -107 0 -133 10 -123 47 3 10 0 22 -6 25 -7 5 -11 -2 -11 -18 0 -31 -2
-32 -75 -40 -71 -7 -84 -1 -91 46 -8 47 17 72 60 63 17 -3 40 -6 51 -5z m404
-26 c25 -32 28 -79 5 -88 -26 -10 -69 -7 -82 6 -16 16 -16 80 0 96 20 20 55
13 77 -14z"/>
<path d="M3095 2200 c3 -5 8 -10 11 -10 2 0 4 5 4 10 0 6 -5 10 -11 10 -5 0
-7 -4 -4 -10z"/>
<path d="M3330 2203 c0 -5 5 -15 10 -23 8 -12 10 -11 10 8 0 12 -4 22 -10 22
-5 0 -10 -3 -10 -7z"/>
<path d="M3270 2180 c0 -11 6 -20 14 -20 9 0 12 7 9 20 -3 11 -9 20 -14 20 -5
0 -9 -9 -9 -20z"/>
<path d="M3495 2200 c-4 -6 -3 -16 3 -22 6 -6 12 -6 17 2 4 6 3 16 -3 22 -6 6
-12 6 -17 -2z"/>
<path d="M4980 2390 c0 -5 5 -10 10 -10 6 0 10 5 10 10 0 6 -4 10 -10 10 -5 0
-10 -4 -10 -10z"/>
<path d="M4985 2300 c3 -5 8 -10 11 -10 2 0 4 5 4 10 0 6 -5 10 -11 10 -5 0
-7 -4 -4 -10z"/>
<path d="M5020 2224 c0 -8 5 -12 10 -9 6 4 8 11 5 16 -9 14 -15 11 -15 -7z"/>
<path d="M5090 2233 c0 -4 5 -15 10 -23 8 -13 10 -13 10 2 0 9 -4 20 -10 23
-5 3 -10 3 -10 -2z"/>
<path d="M5028 1963 c7 -3 16 -2 19 1 4 3 -2 6 -13 5 -11 0 -14 -3 -6 -6z"/>
<path d="M5080 1960 c0 -5 4 -10 9 -10 6 0 13 5 16 10 3 6 -1 10 -9 10 -9 0
-16 -4 -16 -10z"/>
<path d="M5001 1889 c-1 -21 21 -30 40 -18 11 7 9 9 -8 9 -12 0 -24 6 -26 13
-4 7 -6 6 -6 -4z"/>
<path d="M5050 1837 c0 -27 13 -36 26 -16 3 6 -1 18 -10 27 -15 15 -16 14 -16
-11z"/>
<path d="M5000 1811 c0 -24 20 -50 35 -45 8 4 15 1 15 -5 0 -6 5 -11 11 -11
20 0 3 24 -22 30 -13 3 -24 11 -24 17 0 6 -3 15 -7 19 -5 4 -8 2 -8 -5z"/>
<path d="M5090 1730 c0 -5 5 -10 10 -10 6 0 10 5 10 10 0 6 -4 10 -10 10 -5 0
-10 -4 -10 -10z"/>
<path d="M5040 1709 c0 -5 5 -7 10 -4 6 3 10 8 10 11 0 2 -4 4 -10 4 -5 0 -10
-5 -10 -11z"/>
<path d="M4975 1689 c-11 -17 1 -21 15 -4 8 9 8 15 2 15 -6 0 -14 -5 -17 -11z"/>
<path d="M5118 1523 c7 -3 16 -2 19 1 4 3 -2 6 -13 5 -11 0 -14 -3 -6 -6z"/>
<path d="M5080 1460 c0 -5 5 -10 10 -10 6 0 10 5 10 10 0 6 -4 10 -10 10 -5 0
-10 -4 -10 -10z"/>
<path d="M5065 1340 c4 -6 11 -8 16 -5 14 9 11 15 -7 15 -8 0 -12 -5 -9 -10z"/>
<path d="M5115 1310 c-3 -5 -1 -10 4 -10 6 0 11 5 11 10 0 6 -2 10 -4 10 -3 0
-8 -4 -11 -10z"/>
<path d="M5020 1250 c-18 -4 -21 -8 -12 -14 7 -4 16 -5 19 -2 3 3 12 1 20 -5
10 -9 13 -8 13 4 0 21 -10 25 -40 17z"/>
<path d="M5090 1225 c0 -8 5 -15 10 -15 6 0 10 7 10 15 0 8 -4 15 -10 15 -5 0
-10 -7 -10 -15z"/>
<path d="M5060 1190 c0 -5 5 -10 10 -10 6 0 10 5 10 10 0 6 -4 10 -10 10 -5 0
-10 -4 -10 -10z"/>
<path d="M5096 1185 c-3 -8 -1 -15 4 -15 6 0 10 7 10 15 0 8 -2 15 -4 15 -2 0
-6 -7 -10 -15z"/>
<path d="M5130 1140 c0 -5 5 -10 11 -10 5 0 7 5 4 10 -3 6 -8 10 -11 10 -2 0
-4 -4 -4 -10z"/>
<path d="M5110 1091 c0 -5 7 -12 16 -15 24 -9 28 -7 14 9 -14 17 -30 20 -30 6z"/>
<path d="M4975 1060 c-3 -5 3 -10 15 -10 12 0 18 5 15 10 -3 6 -10 10 -15 10
-5 0 -12 -4 -15 -10z"/>
<path d="M5080 1039 c0 -6 8 -18 17 -27 16 -16 16 -16 10 1 -4 10 -7 23 -7 28
0 5 -4 9 -10 9 -5 0 -10 -5 -10 -11z"/>
<path d="M5080 974 c0 -3 7 -12 15 -20 16 -17 18 -14 9 10 -6 15 -24 23 -24
10z"/>
<path d="M5006 943 c-11 -11 -6 -23 9 -23 8 0 15 4 15 9 0 13 -16 22 -24 14z"/>
<path d="M5136 901 c-4 -7 -5 -15 -2 -18 9 -9 19 4 14 18 -4 11 -6 11 -12 0z"/>
<path d="M5060 820 c0 -5 4 -10 9 -10 6 0 13 5 16 10 3 6 -1 10 -9 10 -9 0
-16 -4 -16 -10z"/>
<path d="M5020 805 c0 -9 5 -15 11 -13 6 2 11 8 11 13 0 5 -5 11 -11 13 -6 2
-11 -4 -11 -13z"/>
<path d="M4970 765 c0 -9 6 -12 15 -9 8 4 15 10 15 15 0 5 -7 9 -15 9 -8 0
-15 -7 -15 -15z"/>
<path d="M5020 760 c-13 -8 -12 -10 3 -10 9 0 17 5 17 10 0 12 -1 12 -20 0z"/>
<path d="M4965 713 c-31 -8 -36 -17 -20 -39 14 -19 14 -18 15 4 0 13 6 22 15
22 8 0 15 5 15 10 0 6 -1 9 -2 9 -2 -1 -12 -3 -23 -6z"/>
<path d="M4897 654 c-8 -8 1 -24 13 -24 4 0 10 7 14 15 5 15 -14 21 -27 9z"/>
<path d="M4935 601 c-3 -5 -1 -12 5 -16 5 -3 10 1 10 9 0 18 -6 21 -15 7z"/>
<path d="M4920 560 c0 -5 5 -10 10 -10 6 0 10 5 10 10 0 6 -4 10 -10 10 -5 0
-10 -4 -10 -10z"/>
<path d="M775 540 c3 -5 11 -10 16 -10 6 0 7 5 4 10 -3 6 -11 10 -16 10 -6 0
-7 -4 -4 -10z"/>
<path d="M4892 528 c-16 -16 -15 -28 3 -28 8 0 15 9 15 20 0 23 -2 24 -18 8z"/>
<path d="M820 510 c0 -5 7 -10 16 -10 8 0 12 5 9 10 -3 6 -10 10 -16 10 -5 0
-9 -4 -9 -10z"/>
<path d="M986 504 c-8 -22 -9 -21 19 -26 28 -6 30 -1 11 25 -16 21 -22 21 -30
1z"/>
<path d="M1110 500 c0 -11 7 -20 15 -20 8 0 15 9 15 20 0 11 -7 20 -15 20 -8
0 -15 -9 -15 -20z"/>
<path d="M1386 492 c-8 -13 11 -35 23 -28 16 10 14 36 -3 36 -8 0 -17 -4 -20
-8z"/>
<path d="M3150 491 c0 -6 5 -13 10 -16 6 -3 10 1 10 9 0 9 -4 16 -10 16 -5 0
-10 -4 -10 -9z"/>
<path d="M4700 486 c0 -9 5 -16 10 -16 6 0 10 4 10 9 0 6 -4 13 -10 16 -5 3
-10 -1 -10 -9z"/>
<path d="M4760 490 c0 -5 7 -10 15 -10 8 0 15 5 15 10 0 6 -7 10 -15 10 -8 0
-15 -4 -15 -10z"/>
<path d="M4940 490 c0 -5 5 -10 10 -10 6 0 10 5 10 10 0 6 -4 10 -10 10 -5 0
-10 -4 -10 -10z"/>
<path d="M1795 480 c-3 -5 1 -13 10 -16 22 -9 29 1 11 15 -10 8 -16 9 -21 1z"/>
<path d="M4640 471 c0 -5 -2 -16 -5 -24 -4 -10 2 -14 25 -15 33 -1 39 14 13
34 -21 16 -33 18 -33 5z"/>
<path d="M1491 454 c0 -11 3 -14 6 -6 3 7 2 16 -1 19 -3 4 -6 -2 -5 -13z"/>
<path d="M1750 460 c0 -5 5 -10 10 -10 6 0 10 5 10 10 0 6 -4 10 -10 10 -5 0
-10 -4 -10 -10z"/>
<path d="M3370 460 c0 -5 7 -10 16 -10 8 0 12 5 9 10 -3 6 -10 10 -16 10 -5 0
-9 -4 -9 -10z"/>
<path d="M2000 445 c7 -9 16 -12 19 -7 3 5 13 12 21 15 8 3 0 6 -19 6 -29 1
-32 -1 -21 -14z"/>
<path d="M2690 451 c0 -5 5 -13 10 -16 6 -3 10 -2 10 4 0 5 -4 13 -10 16 -5 3
-10 2 -10 -4z"/>
<path d="M3560 450 c0 -5 5 -10 10 -10 6 0 10 5 10 10 0 6 -4 10 -10 10 -5 0
-10 -4 -10 -10z"/>
<path d="M3685 450 c3 -5 8 -10 11 -10 2 0 4 5 4 10 0 6 -5 10 -11 10 -5 0 -7
-4 -4 -10z"/>
<path d="M4223 443 c-16 -13 -16 -14 9 -9 16 4 28 1 30 -6 4 -12 28 -3 28 11
0 16 -50 18 -67 4z"/>
<path d="M1000 439 c0 -5 5 -7 10 -4 6 3 10 8 10 11 0 2 -4 4 -10 4 -5 0 -10
-5 -10 -11z"/>
<path d="M3837 443 c-4 -3 -7 -13 -7 -21 0 -12 3 -12 15 -2 8 7 15 16 15 21 0
11 -14 12 -23 2z"/>
<path d="M4095 440 c3 -5 8 -10 11 -10 2 0 4 5 4 10 0 6 -5 10 -11 10 -5 0 -7
-4 -4 -10z"/>
<path d="M4420 440 c0 -5 5 -10 11 -10 5 0 7 5 4 10 -3 6 -8 10 -11 10 -2 0
-4 -4 -4 -10z"/>
<path d="M4572 438 c2 -6 10 -14 16 -16 7 -2 10 2 6 12 -7 18 -28 22 -22 4z"/>
<path d="M3730 430 c0 -5 5 -10 11 -10 5 0 7 5 4 10 -3 6 -8 10 -11 10 -2 0
-4 -4 -4 -10z"/>
<path d="M3925 430 c-3 -5 -1 -10 4 -10 6 0 11 5 11 10 0 6 -2 10 -4 10 -3 0
-8 -4 -11 -10z"/>
<path d="M4160 432 c0 -5 7 -13 16 -16 10 -4 14 -1 12 6 -5 15 -28 23 -28 10z"/>
<path d="M4313 423 c-23 -8 -14 -21 17 -25 17 -3 30 -2 30 1 0 11 -35 28 -47
24z"/>
<path d="M4800 421 c0 -6 4 -13 10 -16 6 -3 7 1 4 9 -7 18 -14 21 -14 7z"/>
<path d="M2650 410 c0 -5 5 -10 10 -10 6 0 10 5 10 10 0 6 -4 10 -10 10 -5 0
-10 -4 -10 -10z"/>
<path d="M4125 410 c3 -5 10 -10 16 -10 5 0 9 5 9 10 0 6 -7 10 -16 10 -8 0
-12 -4 -9 -10z"/>
<path d="M4700 404 c0 -8 5 -12 10 -9 6 4 8 11 5 16 -9 14 -15 11 -15 -7z"/>
<path d="M2320 406 c0 -2 7 -6 15 -10 8 -3 15 -1 15 4 0 6 -7 10 -15 10 -8 0
-15 -2 -15 -4z"/>
<path d="M4416 401 c-12 -5 -15 -10 -9 -14 6 -4 16 0 23 8 14 17 13 17 -14 6z"/>
<path d="M3310 389 c0 -5 5 -7 10 -4 6 3 10 8 10 11 0 2 -4 4 -10 4 -5 0 -10
-5 -10 -11z"/>
<path d="M4460 390 c0 -5 5 -10 10 -10 6 0 10 5 10 10 0 6 -4 10 -10 10 -5 0
-10 -4 -10 -10z"/>
<path d="M4640 391 c0 -6 5 -13 10 -16 6 -3 10 1 10 9 0 9 -4 16 -10 16 -5 0
-10 -4 -10 -9z"/>
<path d="M4558 383 c7 -3 16 -2 19 1 4 3 -2 6 -13 5 -11 0 -14 -3 -6 -6z"/>
<path d="M4730 374 c0 -8 5 -12 10 -9 6 4 8 11 5 16 -9 14 -15 11 -15 -7z"/>
<path d="M4235 370 c3 -5 8 -10 11 -10 2 0 4 5 4 10 0 6 -5 10 -11 10 -5 0 -7
-4 -4 -10z"/>
</g>
</svg>
