<?xml version="1.0" standalone="no"?>
<!DOCTYPE svg PUBLIC "-//W3C//DTD SVG 20010904//EN"
 "http://www.w3.org/TR/2001/REC-SVG-20010904/DTD/svg10.dtd">
<svg version="1.0" xmlns="http://www.w3.org/2000/svg"
 width="506.000000pt" height="522.000000pt" viewBox="0 0 506.000000 522.000000"
 preserveAspectRatio="xMidYMid meet">

<g transform="translate(0.000000,522.000000) scale(0.100000,-0.100000)"
fill="#000000" stroke="none">
<path d="M1487 4226 c-27 -7 -56 -21 -65 -30 -16 -16 -16 -18 1 -31 16 -11 17
-16 5 -34 -13 -23 -91 -63 -143 -75 -34 -9 -203 -173 -229 -224 -27 -52 -47
-41 -26 14 9 23 9 25 -4 15 -15 -13 -56 -107 -79 -186 -92 -303 -50 -508 155
-767 114 -144 241 -231 416 -284 48 -15 90 -31 93 -37 4 -5 12 -6 18 -3 6 4
14 1 17 -7 8 -23 56 -38 100 -34 28 3 42 -1 51 -12 11 -14 12 -14 13 0 0 8 -5
20 -12 27 -17 17 0 28 22 14 25 -16 30 -15 30 3 0 8 9 15 20 15 11 0 20 -4 20
-10 0 -20 19 -9 22 13 2 14 11 23 26 25 12 2 22 10 22 19 0 10 6 13 16 9 24
-9 54 3 48 18 -6 16 47 29 82 20 18 -5 24 -2 24 10 0 10 9 16 25 16 14 0 33 9
42 20 10 11 25 20 35 20 14 0 18 7 16 32 -3 29 1 34 31 44 18 6 39 20 45 31 6
11 17 18 24 16 7 -3 12 4 12 15 0 11 7 25 15 32 8 7 15 21 15 31 0 11 11 29
25 41 14 12 25 29 25 39 0 25 29 91 52 116 13 14 17 26 12 35 -11 17 -11 41 0
50 5 3 2 14 -7 23 -22 21 -22 35 1 35 15 0 17 8 11 83 -6 86 -25 173 -42 195
-5 6 -9 32 -9 57 1 35 -4 51 -23 71 -14 15 -25 33 -25 40 0 8 -7 14 -15 14 -8
0 -24 18 -35 41 -12 22 -36 61 -55 87 -101 139 -97 135 -230 207 -105 56 -130
74 -141 101 -7 17 -21 35 -31 39 -35 15 -365 16 -416 1z m300 -202 c42 -8 95
-24 117 -35 52 -24 147 -103 182 -149 73 -99 134 -280 134 -401 0 -65 -34
-191 -75 -278 -28 -58 -57 -96 -133 -174 -105 -107 -133 -124 -262 -157 -93
-24 -162 -25 -249 -5 -98 23 -157 61 -261 165 -147 147 -198 269 -187 444 7
104 33 203 79 296 59 120 225 262 348 296 64 17 218 17 307 -2z m-80 -1450
c-3 -3 -12 -4 -19 -1 -8 3 -5 6 6 6 11 1 17 -2 13 -5z m73 -4 c0 -5 -4 -10
-10 -10 -5 0 -10 5 -10 10 0 6 5 10 10 10 6 0 10 -4 10 -10z"/>
<path d="M1550 3725 c-76 -22 -173 -68 -198 -96 -28 -29 -28 -60 0 -78 19 -12
25 -9 70 37 64 65 122 94 207 99 86 6 139 -16 226 -97 35 -33 69 -60 75 -60 5
0 10 18 10 40 0 33 -7 47 -40 80 -62 62 -111 82 -210 86 -56 3 -104 -1 -140
-11z"/>
<path d="M1855 3319 c-16 -4 -46 -6 -65 -3 -48 8 -215 -12 -322 -37 -110 -26
-138 -50 -138 -118 0 -26 5 -52 12 -59 14 -14 97 -15 153 -2 22 5 90 12 150
16 90 5 126 3 188 -12 89 -20 103 -15 93 38 -11 60 -16 62 -82 46 -45 -12 -83
-14 -164 -8 -58 5 -116 7 -130 7 -20 -2 -25 3 -25 23 0 23 4 25 65 32 36 4
118 8 183 9 102 2 122 5 144 22 l26 21 -23 18 c-25 20 -23 20 -65 7z"/>
<path d="M4890 4086 c0 -8 4 -17 9 -20 5 -4 7 3 4 14 -6 23 -13 26 -13 6z"/>
<path d="M4870 3949 c0 -5 5 -7 10 -4 6 3 10 8 10 11 0 2 -4 4 -10 4 -5 0 -10
-5 -10 -11z"/>
<path d="M4140 3867 c0 -76 -9 -129 -21 -121 -5 2 -11 -7 -15 -21 -3 -14 -10
-25 -15 -25 -5 0 -8 -3 -8 -7 3 -21 -3 -33 -17 -33 -9 0 -18 -9 -21 -20 -3
-13 -12 -20 -23 -18 -25 4 -118 -44 -123 -64 -11 -37 77 -29 138 14 35 23 71
81 61 97 -3 5 1 11 9 14 8 4 24 28 37 54 26 55 33 183 11 190 -10 4 -13 -13
-13 -60z"/>
<path d="M4850 3910 c0 -5 5 -10 10 -10 6 0 10 5 10 10 0 6 -4 10 -10 10 -5 0
-10 -4 -10 -10z"/>
<path d="M4890 3890 c0 -5 5 -10 10 -10 6 0 10 5 10 10 0 6 -4 10 -10 10 -5 0
-10 -4 -10 -10z"/>
<path d="M4890 3850 c0 -5 5 -10 11 -10 5 0 7 5 4 10 -3 6 -8 10 -11 10 -2 0
-4 -4 -4 -10z"/>
<path d="M4848 3843 c7 -3 16 -2 19 1 4 3 -2 6 -13 5 -11 0 -14 -3 -6 -6z"/>
<path d="M4476 3825 c-11 -9 -41 -15 -70 -15 -77 0 -44 -15 37 -16 73 -2 96 9
75 33 -13 16 -18 16 -42 -2z"/>
<path d="M4867 3813 c-10 -9 -9 -23 2 -23 5 0 11 7 15 15 5 15 -5 20 -17 8z"/>
<path d="M4830 3694 c0 -13 18 -39 24 -34 2 3 -2 14 -10 24 -8 11 -14 16 -14
10z"/>
<path d="M4895 3650 c3 -5 11 -10 16 -10 6 0 7 5 4 10 -3 6 -11 10 -16 10 -6
0 -7 -4 -4 -10z"/>
<path d="M4865 3540 c3 -5 8 -10 11 -10 2 0 4 5 4 10 0 6 -5 10 -11 10 -5 0
-7 -4 -4 -10z"/>
<path d="M3535 3460 c-3 -5 -1 -10 4 -10 6 0 11 5 11 10 0 6 -2 10 -4 10 -3 0
-8 -4 -11 -10z"/>
<path d="M4890 3409 c0 -5 5 -7 10 -4 6 3 10 8 10 11 0 2 -4 4 -10 4 -5 0 -10
-5 -10 -11z"/>
<path d="M2548 3253 c12 -2 30 -2 40 0 9 3 -1 5 -23 4 -22 0 -30 -2 -17 -4z"/>
<path d="M3137 2993 c-4 -3 -7 -44 -7 -90 0 -91 16 -145 48 -162 30 -16 108
-13 142 4 35 18 38 29 43 158 3 85 1 97 -14 97 -24 0 -40 -22 -29 -40 15 -23
12 -146 -2 -157 -23 -18 -66 -23 -91 -12 -34 15 -46 47 -54 135 -6 69 -16 88
-36 67z"/>
<path d="M3436 2984 c-27 -15 -28 -18 -22 -67 10 -73 25 -94 26 -35 0 63 27
82 105 76 55 -5 76 7 52 31 -16 16 -127 13 -161 -5z"/>
<path d="M3987 2992 c-38 -16 -18 -27 45 -24 62 4 66 2 91 -28 l27 -32 0 26
c0 16 -9 32 -26 42 -28 19 -109 28 -137 16z"/>
<path d="M3695 2974 c-22 -22 -15 -26 26 -14 18 6 61 10 94 11 45 1 54 3 35 9
-47 15 -137 11 -155 -6z"/>
<path d="M3476 2893 c-10 -11 -7 -23 7 -23 21 0 94 -43 106 -63 10 -14 9 -22
-1 -34 -10 -13 -28 -15 -95 -10 -76 6 -83 4 -83 -12 0 -11 7 -22 16 -25 25
-10 101 -7 150 5 38 10 44 15 44 37 0 43 -22 89 -49 104 -30 18 -86 30 -95 21z"/>
<path d="M3680 2806 l0 -66 64 0 c38 0 68 5 72 11 5 9 -6 11 -38 7 -63 -7 -78
4 -78 57 0 24 -4 47 -10 50 -6 4 -10 -18 -10 -59z"/>
<path d="M4071 2846 c-9 -11 -7 -15 9 -19 22 -6 35 7 25 23 -9 14 -20 13 -34
-4z"/>
<path d="M3971 2808 c-1 -16 4 -28 9 -28 12 0 12 8 0 35 -8 18 -9 17 -9 -7z"/>
<path d="M2260 2795 c0 -8 5 -15 10 -15 6 0 10 7 10 15 0 8 -4 15 -10 15 -5 0
-10 -7 -10 -15z"/>
<path d="M3510 2590 c-11 -20 3 -30 15 -10 3 6 30 10 58 11 41 1 47 3 27 9
-48 15 -89 11 -100 -10z"/>
<path d="M4423 2596 c-30 -14 -33 -19 -33 -62 0 -38 2 -44 14 -35 7 6 14 23
14 36 0 37 20 55 63 55 51 0 73 -23 65 -69 -3 -20 -6 -41 -6 -48 0 -8 -15 -5
-46 8 -25 12 -48 18 -51 15 -3 -3 20 -29 52 -58 70 -64 98 -82 67 -43 -26 33
-28 52 -7 75 26 29 30 82 8 109 -24 29 -94 38 -140 17z"/>
<path d="M3724 2563 c4 -16 13 -56 19 -90 16 -84 31 -94 23 -14 -3 35 -6 79
-6 97 0 28 -4 34 -21 34 -18 0 -20 -4 -15 -27z"/>
<path d="M4160 2560 c0 -11 2 -20 5 -20 2 0 9 9 15 20 9 16 8 20 -5 20 -8 0
-15 -9 -15 -20z"/>
<path d="M3098 2517 c-12 -29 -10 -73 3 -60 6 6 9 26 7 44 -2 26 -5 30 -10 16z"/>
<path d="M3983 2523 c-21 -8 -15 -22 7 -16 11 3 20 9 20 14 0 10 -8 10 -27 2z"/>
<path d="M4271 2485 c1 -51 11 -87 26 -92 15 -5 5 72 -13 107 -13 24 -13 24
-13 -15z"/>
<path d="M1636 2490 c5 -5 28 -12 52 -16 34 -5 42 -4 42 9 0 11 -12 15 -51 15
-31 1 -48 -3 -43 -8z"/>
<path d="M3490 2484 c0 -10 14 -14 51 -14 28 0 59 -5 70 -10 13 -8 19 -7 19 0
0 14 -34 26 -92 32 -37 4 -48 2 -48 -8z"/>
<path d="M4880 2470 c0 -5 4 -10 9 -10 6 0 13 5 16 10 3 6 -1 10 -9 10 -9 0
-16 -4 -16 -10z"/>
<path d="M4151 2462 c-2 -23 19 -52 37 -52 14 0 14 3 -4 18 -12 9 -24 24 -27
32 -4 10 -6 11 -6 2z"/>
<path d="M4391 2428 c-1 -21 4 -38 9 -38 12 0 12 27 0 55 -7 16 -9 13 -9 -17z"/>
<path d="M3891 2424 c0 -11 3 -14 6 -6 3 7 2 16 -1 19 -3 4 -6 -2 -5 -13z"/>
<path d="M4865 2390 c3 -5 8 -10 11 -10 2 0 4 5 4 10 0 6 -5 10 -11 10 -5 0
-7 -4 -4 -10z"/>
<path d="M4838 2353 c6 -2 18 -2 25 0 6 3 1 5 -13 5 -14 0 -19 -2 -12 -5z"/>
<path d="M1655 2150 c-4 -6 -84 -10 -208 -10 -166 0 -211 -3 -250 -17 -30 -11
-46 -22 -43 -30 6 -16 -151 -135 -183 -139 -42 -5 -168 -128 -159 -156 2 -5
178 -11 392 -13 214 -3 441 -10 505 -16 64 -5 233 -14 376 -18 143 -5 268 -12
278 -16 9 -4 17 -15 17 -25 0 -23 -30 -27 -285 -40 -104 -6 -211 -12 -238 -14
-57 -5 -117 -24 -117 -37 0 -5 -5 -9 -11 -9 -6 0 -9 17 -7 41 l3 42 -280 -2
c-154 -1 -290 -5 -303 -8 -12 -3 -115 0 -228 7 -122 7 -256 9 -331 5 l-125 -7
31 -19 c37 -22 48 -58 30 -102 -18 -46 -38 -66 -94 -94 -60 -31 -106 -76 -125
-123 -7 -19 -26 -51 -42 -71 -24 -32 -28 -46 -28 -101 0 -84 22 -146 71 -202
47 -53 83 -66 159 -56 83 11 100 2 135 -66 36 -71 109 -145 155 -159 19 -5 36
-16 38 -23 3 -11 -41 -12 -227 -10 -127 2 -231 0 -231 -3 0 -20 114 -109 173
-134 37 -16 67 -33 67 -37 0 -5 11 -8 25 -8 16 0 25 -6 25 -16 0 -8 5 -12 10
-9 6 4 17 1 25 -5 11 -9 19 -10 28 -1 21 17 52 -10 44 -39 -3 -13 0 -28 8 -36
18 -18 25 -18 25 1 0 8 -4 15 -10 15 -15 0 -12 17 4 23 18 7 56 -25 56 -47 0
-19 5 -20 29 -6 14 7 23 5 36 -10 20 -23 40 -27 32 -7 -3 8 3 14 15 14 11 1
18 -3 15 -10 -2 -6 13 -17 32 -24 54 -19 64 -17 57 11 -4 17 -1 26 11 30 21 9
29 0 15 -17 -13 -15 -6 -27 14 -27 8 0 16 11 20 25 3 14 11 25 16 25 6 0 8 -9
5 -20 -3 -13 0 -20 9 -20 8 0 14 9 14 19 0 10 7 21 15 25 11 4 15 -1 15 -18 0
-14 -6 -26 -12 -29 -10 -4 -10 -7 -1 -18 10 -10 16 -10 25 -1 7 7 21 12 31 12
15 0 18 -5 14 -21 -4 -15 -1 -19 11 -17 9 2 21 19 26 38 12 45 11 44 35 30 14
-7 21 -7 21 0 0 16 30 12 36 -5 4 -8 13 -15 21 -15 7 0 26 -11 41 -25 15 -14
34 -25 42 -24 10 0 8 5 -7 16 -13 8 -23 22 -23 29 0 8 -7 14 -15 14 -8 0 -15
4 -15 9 0 12 59 9 79 -3 8 -5 16 -4 22 5 6 11 12 9 31 -6 13 -11 27 -26 31
-33 7 -10 14 -7 31 13 20 24 24 25 30 10 3 -10 1 -24 -5 -31 -9 -11 -8 -14 4
-14 9 0 28 16 43 36 20 26 33 34 48 30 11 -3 26 0 34 6 7 6 12 7 11 2 -4 -21
2 -32 21 -37 15 -4 20 0 20 14 0 10 5 19 11 19 6 0 9 7 6 14 -4 10 -1 13 9 9
7 -3 14 -8 14 -12 0 -3 14 -12 31 -20 38 -17 47 -38 23 -56 -11 -8 -14 -14 -6
-15 19 0 52 38 46 54 -6 17 12 31 21 16 4 -6 12 -5 21 5 9 8 20 13 25 10 14
-9 11 -23 -7 -27 -13 -3 -13 -5 0 -23 13 -17 17 -18 25 -6 8 13 12 13 26 1 14
-12 18 -12 25 0 7 12 13 11 31 -5 22 -20 22 -20 15 3 -7 19 -4 22 23 22 38 0
39 8 4 37 -31 27 -20 29 22 4 19 -12 30 -26 29 -40 0 -14 5 -21 17 -21 10 0
21 -5 24 -11 5 -7 12 -6 23 4 10 8 25 17 35 20 10 4 15 11 12 17 -3 5 -3 15 1
21 10 17 25 -12 18 -34 -5 -16 -2 -18 18 -12 12 4 27 14 31 22 7 11 12 12 24
2 22 -19 49 -18 62 3 10 17 9 18 -13 12 -21 -5 -24 -3 -19 15 6 24 14 26 31 9
8 -8 15 -8 27 2 13 11 15 9 15 -10 0 -13 -8 -29 -17 -37 -16 -12 -14 -13 17
-7 19 3 43 13 53 22 19 16 23 42 7 42 -5 0 -10 -5 -10 -11 0 -6 -7 -3 -16 6
-9 9 -13 19 -10 23 4 3 11 0 15 -7 6 -9 11 -10 15 -2 9 14 32 -7 38 -35 2 -11
12 -19 23 -19 37 0 48 -15 29 -36 -16 -18 -16 -19 0 -19 10 0 20 9 23 19 3 11
12 22 22 24 14 4 14 5 -1 6 -10 0 -18 6 -18 11 0 14 16 13 40 -2 17 -11 22
-10 30 2 7 10 5 18 -5 26 -21 15 -19 19 9 19 20 0 24 -5 24 -32 0 -22 -5 -33
-14 -33 -19 0 -18 -10 4 -26 21 -16 72 -18 72 -3 0 7 -11 9 -30 6 -22 -5 -30
-3 -30 8 0 9 9 15 21 15 19 0 19 1 3 17 -23 23 1 31 26 8 21 -19 40 -13 40 12
0 14 3 14 21 -3 16 -14 22 -15 28 -5 6 9 11 10 15 2 10 -16 26 -14 26 4 0 8 7
15 15 15 17 0 21 -35 5 -45 -16 -10 -12 -28 5 -22 8 4 17 2 20 -3 7 -11 35 -2
35 11 0 5 -7 9 -15 9 -8 0 -15 7 -15 15 0 19 26 20 33 1 6 -15 64 -32 74 -22
3 3 0 12 -6 20 -7 8 -10 20 -6 27 6 8 10 7 16 -2 5 -9 9 -10 9 -3 0 7 7 14 15
17 11 5 13 0 8 -23 -7 -38 13 -40 29 -4 10 21 14 23 23 11 5 -7 22 -16 37 -19
24 -5 27 -2 22 16 -6 24 20 65 33 53 4 -5 0 -15 -10 -22 -13 -9 -17 -20 -12
-34 4 -14 0 -24 -14 -33 -25 -16 -28 -33 -4 -19 13 7 23 5 36 -6 22 -20 35 -8
19 17 -10 17 -10 20 6 20 10 0 23 -5 29 -11 6 -6 17 -8 23 -4 9 6 9 9 0 15 -8
5 -10 15 -6 26 6 16 9 14 21 -9 8 -15 12 -34 9 -41 -4 -10 2 -12 21 -8 19 3
23 8 16 15 -16 16 -14 52 2 39 12 -10 54 -13 95 -6 14 3 22 11 22 24 0 11 3
20 8 19 15 -1 54 -60 48 -74 -4 -12 -1 -12 20 -3 18 9 27 9 36 0 7 -7 23 -12
38 -11 l25 0 -22 11 c-13 6 -23 17 -23 23 0 16 35 26 48 13 13 -13 32 -2 32
18 0 16 16 19 25 4 4 -6 -4 -19 -17 -29 -29 -24 -20 -34 37 -36 37 -1 45 2 45
17 0 21 20 24 39 6 11 -11 13 -10 8 4 -6 18 15 31 38 22 9 -4 15 0 15 10 0 9
7 16 15 16 20 0 19 -9 -5 -45 -24 -36 -25 -45 -5 -45 8 0 15 5 15 10 0 6 11 8
25 4 30 -7 34 12 8 32 -17 13 -17 15 0 25 14 8 16 14 6 25 -6 8 -9 17 -5 21 3
4 12 -2 20 -12 9 -13 25 -18 50 -17 20 1 36 -3 36 -8 0 -6 -19 -10 -41 -10
-36 0 -40 -2 -29 -15 17 -20 70 -19 85 2 16 21 38 7 29 -19 -4 -15 -2 -19 7
-16 18 7 12 35 -12 62 -18 19 -19 21 -3 24 9 2 20 -2 24 -9 11 -17 52 -22 61
-7 4 7 11 9 16 5 4 -5 1 -12 -6 -16 -21 -14 -2 -33 26 -27 13 4 29 3 36 -1 24
-15 57 -14 57 2 0 9 -9 15 -24 15 -14 0 -27 4 -31 9 -9 15 14 24 29 12 7 -6
20 -9 28 -6 7 3 24 -4 36 -15 12 -11 22 -17 22 -12 0 6 12 18 27 27 26 18 27
17 50 -9 14 -17 30 -26 41 -23 15 4 15 5 -2 6 -12 1 -16 6 -12 16 4 10 -1 15
-14 15 -23 0 -23 0 -11 34 7 18 15 23 29 19 11 -2 23 0 27 7 5 8 -8 10 -44 8
-34 -2 -51 -7 -51 -16 0 -22 -24 -38 -48 -33 -21 6 -21 7 13 34 19 15 40 25
45 22 15 -9 45 11 45 32 0 13 9 19 33 21 17 2 32 7 32 11 0 4 15 16 33 26 17
10 53 44 79 75 l48 58 -58 -6 c-31 -4 -75 -6 -97 -7 -37 0 -40 2 -38 25 14
197 26 391 32 500 3 74 10 141 15 148 13 21 -2 62 -23 62 -25 0 -31 19 -31
100 0 68 0 68 30 75 16 4 37 16 45 28 37 52 -2 182 -60 201 -38 12 -504 12
-565 0 -33 -7 -46 -15 -48 -29 -3 -16 -1 -18 9 -7 14 13 301 18 347 6 28 -8
31 -58 4 -73 -14 -7 -245 -26 -326 -26 -14 0 -23 12 -32 40 -13 40 -14 40 -10
-29 4 -73 9 -82 69 -115 31 -18 55 -21 142 -21 l105 0 0 -54 c0 -30 -5 -58
-11 -62 -6 -3 -37 -8 -68 -11 -37 -2 -60 -9 -68 -20 -12 -15 -13 -15 -13 -1 0
13 -26 27 -52 28 -12 0 -9 -29 4 -53 6 -12 13 -33 14 -46 2 -13 6 -31 10 -40
4 -9 9 -25 11 -36 2 -11 5 -25 7 -31 6 -15 56 -24 56 -10 0 6 5 4 10 -4 10
-15 14 -113 5 -122 -3 -2 -18 -3 -33 0 -24 3 -28 8 -24 28 3 19 0 24 -17 24
l-22 0 5 -204 5 -205 -30 -32 -31 -33 -191 -7 c-106 -4 -271 -9 -367 -10 -204
-4 -213 1 -131 70 27 23 63 66 80 96 39 70 58 80 122 66 139 -30 225 14 267
138 17 51 19 71 12 128 -5 37 -12 98 -15 136 l-7 67 -59 0 c-58 0 -139 24
-139 41 0 5 -6 9 -14 9 -8 0 -37 26 -65 57 -54 60 -67 103 -32 103 11 0 23 5
26 10 8 12 117 13 131 1 14 -13 76 -23 69 -10 -8 11 -50 29 -80 34 -28 4 -55
16 -55 24 0 21 -94 31 -315 34 -162 2 -247 7 -262 15 -13 7 -25 26 -28 45 -4
20 -17 39 -33 49 -61 39 -139 94 -158 113 -39 38 -79 67 -113 82 -45 19 -110
61 -146 94 -35 33 -156 99 -179 99 -9 0 -16 -4 -16 -10 0 -5 5 -10 10 -10 6 0
22 -7 35 -16 21 -13 22 -19 13 -40 -10 -21 -8 -26 15 -44 40 -32 72 -81 58
-89 -6 -4 -39 -4 -74 1 -34 4 -102 12 -151 18 -50 6 -119 17 -155 25 -36 8
-116 16 -178 19 -61 2 -117 7 -122 11 -7 4 -9 27 -6 60 5 47 3 56 -14 65 -25
13 -58 13 -66 0z m-37 -37 c20 -5 22 -11 22 -61 l0 -55 -71 7 c-92 8 -105 17
-49 32 25 7 38 12 29 13 -9 1 -21 12 -27 26 -10 22 -9 26 16 39 15 9 34 13 42
9 8 -3 25 -8 38 -10z m-195 -90 c-7 -2 -19 -2 -25 0 -7 3 -2 5 12 5 14 0 19
-2 13 -5z m1125 -162 c134 -69 60 -139 -95 -90 -27 9 -33 16 -33 38 0 35 33
71 66 71 14 0 41 -9 62 -19z m-1454 -505 c103 -51 159 -148 160 -282 1 -100
-60 -201 -128 -209 l-38 -5 51 55 c62 68 78 118 62 188 -16 72 -61 156 -100
188 -33 27 -42 29 -117 29 -68 0 -89 -4 -130 -26 -67 -35 -129 -98 -143 -143
-20 -67 -14 -95 34 -165 25 -37 45 -70 45 -75 0 -5 7 -14 15 -21 18 -15 20
-60 3 -60 -50 0 -137 150 -146 247 -8 101 42 207 126 265 60 42 85 48 173 44
59 -2 90 -9 133 -30z m2067 3 c55 -30 112 -106 135 -178 23 -73 21 -177 -4
-233 -18 -41 -48 -76 -57 -66 -9 9 -7 65 5 123 15 75 8 136 -24 200 -14 28
-26 55 -26 62 0 7 -16 24 -35 39 -32 24 -41 26 -108 22 -59 -2 -87 -10 -140
-37 -63 -32 -112 -71 -90 -71 6 0 16 6 22 14 11 13 51 29 51 20 0 -2 -11 -13
-24 -26 -34 -31 -65 -108 -55 -133 11 -29 11 -67 -1 -60 -5 3 -10 1 -10 -4 0
-6 4 -11 9 -11 5 0 11 -12 14 -28 3 -15 19 -45 36 -66 33 -42 35 -54 4 -37
-10 5 -25 12 -34 15 -44 13 -109 158 -94 207 4 11 2 19 -3 19 -13 0 2 95 21
123 28 42 68 76 132 108 56 29 65 31 146 26 67 -3 97 -10 130 -28z m-2100 -86
c6 -6 -11 -9 -47 -8 -48 2 -62 -2 -102 -29 -53 -35 -92 -88 -92 -123 0 -13 -7
-40 -16 -61 l-15 -37 -20 24 c-11 13 -22 34 -25 48 -9 35 33 110 80 142 21 14
50 34 65 44 21 15 40 17 94 14 38 -2 73 -9 78 -14z m2083 -149 c41 -16 5 -138
-52 -178 -61 -41 -87 -43 -121 -8 -34 33 -49 77 -34 101 14 22 86 61 141 76
26 7 48 14 49 14 1 1 8 -2 17 -5z m-2070 -26 c21 -30 20 -56 -4 -96 -41 -66
-136 -76 -174 -17 -34 52 -13 94 61 121 58 20 99 18 117 -8z m1636 -287 c35
-48 70 -81 123 -114 15 -10 27 -22 27 -27 0 -7 -302 -10 -845 -10 -564 0 -845
3 -845 10 0 6 25 26 56 46 43 28 61 47 79 86 13 28 30 55 37 60 7 5 297 6 673
3 l660 -5 35 -49z m240 39 c0 -5 -2 -10 -4 -10 -3 0 -8 5 -11 10 -3 6 -1 10 4
10 6 0 11 -4 11 -10z m1425 -390 c-3 -5 -10 -10 -16 -10 -5 0 -9 5 -9 10 0 6
7 10 16 10 8 0 12 -4 9 -10z m-3165 -16 c0 -8 -4 -12 -10 -9 -5 3 -10 10 -10
16 0 5 5 9 10 9 6 0 10 -7 10 -16z m2724 -20 c3 -8 2 -12 -4 -9 -6 3 -10 10
-10 16 0 14 7 11 14 -7z m236 12 c0 -11 -19 -15 -25 -6 -3 5 1 10 9 10 9 0 16
-2 16 -4z m47 -2 c-3 -3 -12 -4 -19 -1 -8 3 -5 6 6 6 11 1 17 -2 13 -5z
m-1367 -14 c0 -5 -4 -10 -10 -10 -5 0 -10 5 -10 10 0 6 5 10 10 10 6 0 10 -4
10 -10z m930 0 c0 -5 -8 -10 -17 -10 -15 0 -16 2 -3 10 19 12 20 12 20 0z
m110 6 c0 -3 -4 -8 -10 -11 -5 -3 -10 -1 -10 4 0 6 5 11 10 11 6 0 10 -2 10
-4z m160 -6 c0 -5 -4 -10 -9 -10 -6 0 -13 5 -16 10 -3 6 1 10 9 10 9 0 16 -4
16 -10z m243 4 c11 -11 -3 -24 -18 -18 -8 4 -12 10 -9 15 6 11 18 12 27 3z
m-1228 -13 c3 -5 1 -12 -4 -15 -5 -3 -11 1 -15 9 -6 16 9 21 19 6z m-2190 -11
c3 -5 1 -10 -4 -10 -6 0 -11 5 -11 10 0 6 2 10 4 10 3 0 8 -4 11 -10z m45 0
c0 -5 -2 -10 -4 -10 -3 0 -8 5 -11 10 -3 6 -1 10 4 10 6 0 11 -4 11 -10z m210
6 c0 -3 -4 -8 -10 -11 -5 -3 -10 -1 -10 4 0 6 5 11 10 11 6 0 10 -2 10 -4z
m180 -6 c0 -12 -8 -12 -35 0 -18 8 -17 9 8 9 15 1 27 -3 27 -9z m640 0 c0 -5
-4 -10 -10 -10 -5 0 -10 5 -10 10 0 6 5 10 10 10 6 0 10 -4 10 -10z m291 -12
c23 -25 23 -29 6 -52 -13 -18 -14 -18 -21 0 -4 11 -3 20 3 22 16 5 13 22 -4
22 -8 0 -15 7 -15 15 0 21 9 19 31 -7z m42 -3 c-3 -8 -9 -15 -14 -15 -10 0
-12 24 -3 33 11 11 24 -3 17 -18z m67 4 c0 -5 -4 -9 -10 -9 -5 0 -10 7 -10 16
0 8 5 12 10 9 6 -3 10 -10 10 -16z m580 11 c0 -5 -4 -10 -10 -10 -5 0 -10 5
-10 10 0 6 5 10 10 10 6 0 10 -4 10 -10z m410 0 c0 -5 -2 -10 -4 -10 -3 0 -8
5 -11 10 -3 6 -1 10 4 10 6 0 11 -4 11 -10z m291 -6 c12 -14 11 -16 -5 -13
-11 2 -21 10 -24 17 -5 17 13 15 29 -4z m89 6 c0 -5 -4 -10 -10 -10 -5 0 -10
5 -10 10 0 6 5 10 10 10 6 0 10 -4 10 -10z m123 -4 c25 -19 21 -26 -15 -26
-17 0 -29 -3 -25 -6 6 -7 -17 -34 -28 -34 -13 0 6 54 23 67 21 15 23 15 45 -1z
m-2813 -6 c0 -5 -7 -10 -16 -10 -8 0 -12 5 -9 10 3 6 10 10 16 10 5 0 9 -4 9
-10z m220 -5 c0 -13 -4 -14 -20 -5 -11 6 -20 13 -20 15 0 3 9 5 20 5 11 0 20
-7 20 -15z m125 5 c3 -5 2 -10 -4 -10 -5 0 -13 5 -16 10 -3 6 -2 10 4 10 5 0
13 -4 16 -10z m1445 0 c0 -5 -4 -10 -10 -10 -5 0 -10 5 -10 10 0 6 5 10 10 10
6 0 10 -4 10 -10z m630 -5 c0 -8 -2 -15 -4 -15 -2 0 -6 7 -10 15 -3 8 -1 15 4
15 6 0 10 -7 10 -15z m-410 -5 c0 -5 -5 -10 -11 -10 -5 0 -7 5 -4 10 3 6 8 10
11 10 2 0 4 -4 4 -10z m474 -5 c-4 -8 -13 -15 -21 -15 -13 0 -13 3 -3 15 7 8
16 15 21 15 5 0 6 -7 3 -15z m-1444 -10 c15 -18 13 -22 -16 -27 -21 -3 -26 6
-17 30 7 16 18 15 33 -3z m575 5 c3 -5 -1 -10 -9 -10 -9 0 -16 5 -16 10 0 6 4
10 9 10 6 0 13 -4 16 -10z m-1415 -20 c0 -5 -4 -10 -10 -10 -5 0 -10 5 -10 10
0 6 5 10 10 10 6 0 10 -4 10 -10z"/>
<path d="M1830 2141 c-41 -10 -43 -10 145 -16 83 -3 122 -2 109 4 -29 13 -212
21 -254 12z"/>
<path d="M4890 1940 c0 -5 5 -10 11 -10 5 0 7 5 4 10 -3 6 -8 10 -11 10 -2 0
-4 -4 -4 -10z"/>
<path d="M290 1511 c0 -6 5 -13 10 -16 6 -3 10 1 10 9 0 9 -4 16 -10 16 -5 0
-10 -4 -10 -9z"/>
<path d="M4860 1340 c0 -5 5 -10 11 -10 5 0 7 5 4 10 -3 6 -8 10 -11 10 -2 0
-4 -4 -4 -10z"/>
<path d="M4082 1185 c0 -16 2 -22 5 -12 2 9 2 23 0 30 -3 6 -5 -1 -5 -18z"/>
<path d="M4830 740 c0 -5 7 -10 16 -10 8 0 12 5 9 10 -3 6 -10 10 -16 10 -5 0
-9 -4 -9 -10z"/>
<path d="M4725 560 c3 -5 8 -10 11 -10 2 0 4 5 4 10 0 6 -5 10 -11 10 -5 0 -7
-4 -4 -10z"/>
<path d="M4520 495 c7 -8 16 -15 21 -15 5 0 9 7 9 15 0 9 -9 15 -21 15 -18 0
-19 -2 -9 -15z"/>
<path d="M4577 446 c20 -26 27 -28 17 -3 -3 8 -12 18 -20 21 -11 4 -10 0 3
-18z"/>
<path d="M690 424 c0 -8 5 -12 10 -9 6 3 10 10 10 16 0 5 -4 9 -10 9 -5 0 -10
-7 -10 -16z"/>
<path d="M4690 431 c0 -6 5 -13 10 -16 6 -3 10 1 10 9 0 9 -4 16 -10 16 -5 0
-10 -4 -10 -9z"/>
<path d="M4542 408 c6 -18 28 -21 28 -4 0 9 -7 16 -16 16 -9 0 -14 -5 -12 -12z"/>
<path d="M1452 324 c1 -9 9 -19 16 -22 9 -3 13 2 10 14 -1 9 -9 19 -16 22 -9
3 -13 -2 -10 -14z"/>
<path d="M1690 330 c0 -5 5 -10 10 -10 6 0 10 5 10 10 0 6 -4 10 -10 10 -5 0
-10 -4 -10 -10z"/>
<path d="M1820 326 c0 -8 5 -18 10 -21 6 -3 10 3 10 14 0 12 -4 21 -10 21 -5
0 -10 -6 -10 -14z"/>
<path d="M2550 332 c0 -13 23 -32 37 -32 11 0 11 5 3 20 -10 19 -40 28 -40 12z"/>
<path d="M2860 330 c0 -5 5 -10 10 -10 6 0 10 5 10 10 0 6 -4 10 -10 10 -5 0
-10 -4 -10 -10z"/>
<path d="M3171 330 c-19 -11 -6 -41 14 -34 16 6 20 29 7 38 -4 2 -14 1 -21 -4z"/>
<path d="M3530 326 c0 -9 5 -16 10 -16 6 0 10 4 10 9 0 6 -4 13 -10 16 -5 3
-10 -1 -10 -9z"/>
<path d="M840 320 c0 -5 7 -10 16 -10 8 0 12 5 9 10 -3 6 -10 10 -16 10 -5 0
-9 -4 -9 -10z"/>
<path d="M1505 320 c-7 -12 2 -30 16 -30 5 0 9 9 9 20 0 21 -15 27 -25 10z"/>
<path d="M3456 321 c-3 -5 1 -11 9 -15 9 -3 15 0 15 9 0 16 -16 20 -24 6z"/>
<path d="M4460 320 c0 -5 5 -10 10 -10 6 0 10 5 10 10 0 6 -4 10 -10 10 -5 0
-10 -4 -10 -10z"/>
<path d="M3110 310 c0 -5 5 -10 10 -10 6 0 10 5 10 10 0 6 -4 10 -10 10 -5 0
-10 -4 -10 -10z"/>
<path d="M960 295 c0 -8 5 -15 10 -15 6 0 10 7 10 15 0 8 -4 15 -10 15 -5 0
-10 -7 -10 -15z"/>
<path d="M1040 299 c0 -5 5 -7 10 -4 6 3 10 8 10 11 0 2 -4 4 -10 4 -5 0 -10
-5 -10 -11z"/>
<path d="M1092 298 c6 -18 28 -21 28 -4 0 9 -7 16 -16 16 -9 0 -14 -5 -12 -12z"/>
<path d="M1292 299 c2 -6 8 -10 13 -10 5 0 11 4 13 10 2 6 -4 11 -13 11 -9 0
-15 -5 -13 -11z"/>
<path d="M1660 300 c0 -5 5 -10 10 -10 6 0 10 5 10 10 0 6 -4 10 -10 10 -5 0
-10 -4 -10 -10z"/>
<path d="M1730 300 c0 -5 5 -10 10 -10 6 0 10 5 10 10 0 6 -4 10 -10 10 -5 0
-10 -4 -10 -10z"/>
<path d="M2430 295 c0 -8 4 -15 9 -15 5 0 11 7 15 15 3 9 0 15 -9 15 -8 0 -15
-7 -15 -15z"/>
<path d="M2495 300 c3 -5 8 -10 11 -10 2 0 4 5 4 10 0 6 -5 10 -11 10 -5 0 -7
-4 -4 -10z"/>
<path d="M2690 299 c0 -5 5 -7 10 -4 6 3 10 8 10 11 0 2 -4 4 -10 4 -5 0 -10
-5 -10 -11z"/>
<path d="M4020 300 c0 -5 5 -10 10 -10 6 0 10 5 10 10 0 6 -4 10 -10 10 -5 0
-10 -4 -10 -10z"/>
<path d="M1785 290 c-3 -5 -2 -10 4 -10 5 0 13 5 16 10 3 6 2 10 -4 10 -5 0
-13 -4 -16 -10z"/>
<path d="M2156 291 c-4 -7 -5 -15 -2 -18 9 -9 19 4 14 18 -4 11 -6 11 -12 0z"/>
<path d="M2910 290 c-9 -6 -10 -10 -3 -10 6 0 15 5 18 10 8 12 4 12 -15 0z"/>
<path d="M2356 282 c-3 -6 -1 -14 5 -17 15 -10 25 3 12 16 -7 7 -13 7 -17 1z"/>
<path d="M3428 283 c7 -3 16 -2 19 1 4 3 -2 6 -13 5 -11 0 -14 -3 -6 -6z"/>
<path d="M3800 280 c0 -5 5 -10 10 -10 6 0 10 5 10 10 0 6 -4 10 -10 10 -5 0
-10 -4 -10 -10z"/>
<path d="M4108 283 c6 -2 18 -2 25 0 6 3 1 5 -13 5 -14 0 -19 -2 -12 -5z"/>
<path d="M1700 270 c0 -5 5 -10 10 -10 6 0 10 5 10 10 0 6 -4 10 -10 10 -5 0
-10 -4 -10 -10z"/>
<path d="M2275 270 c3 -5 14 -10 23 -10 15 0 15 2 2 10 -20 13 -33 13 -25 0z"/>
<path d="M1195 240 c-3 -5 -1 -10 4 -10 6 0 11 5 11 10 0 6 -2 10 -4 10 -3 0
-8 -4 -11 -10z"/>
<path d="M1475 240 c-3 -5 -1 -10 4 -10 6 0 11 5 11 10 0 6 -2 10 -4 10 -3 0
-8 -4 -11 -10z"/>
</g>
</svg>
