<?xml version="1.0" standalone="no"?>
<!DOCTYPE svg PUBLIC "-//W3C//DTD SVG 20010904//EN"
 "http://www.w3.org/TR/2001/REC-SVG-20010904/DTD/svg10.dtd">
<svg version="1.0" xmlns="http://www.w3.org/2000/svg"
 width="514.000000pt" height="524.000000pt" viewBox="0 0 514.000000 524.000000"
 preserveAspectRatio="xMidYMid meet">

<g transform="translate(0.000000,524.000000) scale(0.100000,-0.100000)"
fill="#000000" stroke="none">
<path d="M3654 4543 c4 -16 11 -93 16 -173 5 -80 14 -163 20 -185 25 -84 23
-107 -8 -144 -38 -45 -81 -47 -122 -5 -36 38 -45 67 -25 87 12 13 15 43 15
152 0 75 -5 156 -11 181 l-12 45 -29 -28 -29 -28 -932 -2 c-513 -2 -1103 -4
-1312 -5 l-380 -3 -60 -32 c-76 -39 -141 -102 -168 -161 -19 -42 -22 -70 -25
-243 l-4 -197 93 -7 c120 -8 1124 -11 2629 -7 652 2 1190 3 1196 3 13 -1 14
-1828 1 -1849 -10 -15 -27 -6 -76 38 -43 39 -74 46 -125 31 -68 -21 -99 -19
-112 8 -17 33 -2 68 55 134 94 107 137 237 128 382 -13 198 -86 346 -225 457
-67 54 -93 69 -187 106 -97 38 -281 55 -291 27 -3 -8 -31 -26 -61 -40 -206
-94 -331 -212 -388 -365 -38 -102 -48 -123 -63 -128 -7 -2 -12 6 -13 20 -1 18
-3 15 -11 -12 -12 -43 -4 -178 16 -240 31 -103 59 -144 167 -250 85 -84 131
-120 229 -178 120 -72 124 -74 214 -83 50 -5 112 -14 138 -21 39 -9 52 -9 74
2 14 8 36 15 47 15 25 0 25 11 2 74 -18 51 -13 77 18 85 58 15 93 -7 115 -70
11 -35 6 -50 -42 -120 -52 -76 -48 -83 218 -343 82 -80 155 -160 162 -178 20
-47 18 -217 -3 -279 -31 -93 -112 -183 -213 -234 -96 -49 -45 -48 -1750 -48
-1763 -1 -1638 -5 -1745 63 -98 62 -171 171 -199 296 -7 34 -133 157 -271 263
-61 47 -113 86 -117 86 -11 0 -9 -328 2 -478 8 -102 14 -132 37 -179 50 -103
149 -192 258 -233 60 -22 75 -31 75 -40 0 -6 4 -9 9 -5 5 3 12 1 16 -5 3 -5
15 -10 25 -10 10 0 22 -9 25 -20 4 -11 11 -17 17 -14 6 4 14 0 19 -7 5 -8 3
-17 -4 -21 -8 -5 -6 -8 6 -8 9 0 17 -8 17 -17 0 -15 2 -15 9 -4 5 8 18 15 28
16 10 0 24 4 31 9 6 4 12 2 12 -3 0 -6 7 -11 16 -11 10 0 14 -5 10 -15 -9 -24
23 -31 39 -9 8 11 14 14 15 7 0 -7 7 -13 15 -13 7 0 18 -7 23 -16 8 -15 11
-14 24 5 17 24 48 19 48 -6 0 -11 7 -14 22 -10 12 4 28 1 35 -5 20 -17 28 -1
9 18 -9 9 -14 19 -11 23 4 3 16 -6 27 -22 19 -26 48 -37 48 -17 0 20 16 9 27
-17 10 -25 11 -26 12 -6 1 12 -3 25 -9 28 -5 3 -10 15 -10 26 0 18 2 19 15 5
8 -8 15 -21 15 -28 0 -9 3 -9 8 -2 8 13 52 25 52 15 0 -4 16 -14 35 -23 29
-13 35 -13 35 -2 0 8 9 14 20 14 15 0 20 -7 20 -25 0 -16 6 -25 15 -25 18 0
18 5 4 32 -17 31 -3 33 28 4 27 -25 28 -25 31 -6 4 24 15 26 33 4 7 -8 21 -13
31 -11 10 3 21 1 24 -4 9 -15 34 -10 34 7 0 8 4 13 10 9 5 -3 7 -12 3 -20 -3
-9 1 -15 10 -15 16 0 30 27 21 41 -3 5 4 9 15 9 12 0 21 7 21 15 0 8 5 15 11
15 6 0 8 -9 4 -20 -11 -35 5 -41 31 -12 21 22 24 23 20 7 -3 -11 -1 -27 4 -35
8 -13 10 -12 10 3 0 9 5 17 11 17 7 0 10 12 7 30 -4 24 -2 27 9 19 7 -7 13
-24 13 -40 0 -16 4 -29 9 -29 5 0 17 -3 27 -7 14 -5 16 -2 10 20 -5 20 -3 25
8 21 8 -3 16 1 18 10 2 11 7 13 18 6 12 -8 13 -12 2 -19 -11 -7 -9 -13 9 -30
27 -25 69 -28 69 -5 0 14 2 14 16 -1 12 -12 19 -13 30 -4 8 6 14 18 14 26 0 8
6 13 13 10 6 -2 12 -16 12 -30 -1 -34 13 -35 25 -2 11 29 36 33 43 7 4 -14 5
-13 6 3 0 12 6 26 13 33 8 8 8 15 -2 27 -7 8 -8 15 -2 15 17 0 31 -25 29 -53
-1 -14 3 -25 8 -24 6 1 9 7 9 14 -1 7 8 15 20 19 11 4 24 11 27 16 4 7 14 6
27 -1 30 -16 37 -14 50 13 14 31 45 30 78 -1 14 -13 33 -23 44 -23 10 0 20 -6
23 -12 3 -9 9 -7 19 6 12 16 17 17 35 5 17 -10 24 -10 36 0 12 9 16 9 21 -1 5
-10 7 -10 12 0 11 24 24 11 25 -25 0 -34 1 -36 10 -14 6 15 14 21 24 17 11 -4
15 0 13 12 -2 13 3 16 23 14 20 -2 28 3 32 18 3 11 10 20 16 20 6 0 8 -7 5
-15 -6 -16 12 -45 28 -45 5 0 4 9 -2 19 -7 14 -7 22 1 26 6 4 13 -2 16 -14 3
-12 12 -21 19 -21 8 0 14 -7 14 -15 0 -19 14 -19 30 -1 14 18 40 10 40 -12 0
-13 2 -14 13 -3 10 11 10 14 0 18 -7 3 -13 10 -13 16 0 13 107 17 126 5 6 -4
20 -1 30 7 18 13 18 14 -11 26 -24 10 -26 13 -12 16 25 6 65 -22 63 -44 -1
-13 6 -18 22 -17 12 0 22 -5 22 -13 0 -7 4 -13 9 -13 11 0 29 22 29 35 0 5 5
11 11 13 6 2 11 -1 11 -6 0 -10 37 -25 54 -23 4 1 15 -6 23 -16 14 -17 14 -17
10 4 -4 16 1 24 14 28 11 4 17 10 14 15 -3 5 0 12 6 16 9 5 10 -1 5 -20 -6
-24 -5 -26 12 -17 22 12 32 5 32 -21 0 -27 17 -22 28 10 10 26 11 27 17 5 8
-26 16 -28 34 -10 10 10 14 9 22 -5 14 -24 33 -23 26 2 -3 11 -1 20 4 20 5 0
10 -4 10 -10 1 -5 2 -14 3 -20 2 -20 21 -4 21 18 -1 12 2 22 6 22 19 0 39 -14
39 -26 0 -8 9 -14 20 -14 23 0 26 10 8 28 -6 6 -9 14 -6 18 7 7 50 -16 61 -33
4 -7 13 -13 18 -13 6 0 18 -7 26 -16 15 -14 17 -14 25 0 5 9 18 16 30 16 17 0
18 3 8 15 -13 15 -5 39 11 29 5 -3 7 -9 4 -13 -6 -11 50 -22 69 -15 8 3 24 -4
36 -16 25 -25 45 -18 29 11 -9 18 -8 20 13 17 19 -2 22 -8 20 -30 -3 -31 3
-35 21 -15 23 24 38 58 31 68 -4 7 1 9 15 5 11 -3 30 -9 41 -12 15 -4 18 -11
14 -33 -4 -16 -1 -32 5 -36 7 -4 10 -1 9 7 -2 7 7 14 20 16 12 2 22 8 22 13 0
5 9 9 20 9 11 0 20 -4 20 -10 0 -17 25 -11 49 11 25 23 62 19 42 -5 -9 -10 -8
-15 4 -20 9 -3 15 0 15 8 0 22 47 58 72 54 19 -2 22 -8 20 -30 -4 -33 13 -37
22 -5 9 35 7 47 -10 47 -8 0 -12 5 -9 10 4 6 10 8 15 5 5 -3 11 -1 15 5 3 5
11 10 18 10 8 0 8 -3 0 -11 -15 -15 7 -39 36 -39 24 0 25 4 11 31 -16 29 5 24
29 -7 16 -20 21 -22 21 -10 0 15 3 15 23 2 31 -19 96 -31 79 -14 -19 19 -14
35 14 42 31 8 43 1 26 -16 -27 -27 -9 -37 22 -13 16 12 17 17 6 30 -12 14 -11
18 1 26 8 4 23 6 34 2 20 -6 20 -5 1 16 -18 20 -20 20 -38 5 -17 -16 -18 -16
-18 -1 0 10 5 17 10 17 6 0 10 8 10 17 0 15 1 15 13 1 6 -9 24 -18 40 -22 28
-7 37 -31 15 -39 -7 -2 -10 -8 -6 -12 14 -15 40 17 33 42 -4 16 -1 25 10 29
23 9 18 23 -11 34 -14 6 -23 14 -19 20 3 5 12 7 20 4 8 -4 18 1 21 10 6 15 9
15 23 3 29 -25 41 -29 41 -13 0 9 -8 16 -18 16 -15 0 -18 6 -14 29 l4 29 30
-31 30 -32 -7 30 c-4 17 -14 35 -22 42 -12 9 -9 12 16 18 17 3 29 11 28 17 -4
18 20 20 36 3 20 -19 27 -19 27 0 0 9 -6 18 -14 21 -17 6 -16 54 1 54 19 0 26
20 12 36 -9 11 -9 20 -1 37 16 31 22 88 27 257 5 140 20 234 37 224 4 -3 8 4
8 16 0 14 10 25 33 35 25 11 28 15 15 20 -9 4 -26 2 -37 -5 -21 -11 -28 -2
-12 16 6 5 5 20 -3 38 l-12 30 -33 -37 c-37 -40 -88 -56 -124 -40 -12 6 -63
48 -113 94 -50 46 -131 120 -180 164 -49 44 -111 104 -139 133 -33 36 -55 52
-67 49 -14 -4 -11 4 13 38 17 24 46 58 65 76 l34 33 47 -23 c27 -13 61 -38 76
-55 15 -17 101 -104 190 -194 146 -148 163 -162 174 -145 12 15 11 18 -8 25
-17 6 -20 14 -15 33 4 14 2 25 -4 25 -5 0 -10 -4 -10 -10 0 -17 -21 -11 -41
12 -24 30 -24 48 1 48 14 0 20 7 20 21 0 18 4 20 25 15 27 -7 32 3 13 22 -9 9
-7 13 5 18 9 3 17 10 17 16 0 5 -5 6 -11 3 -6 -4 -16 1 -23 10 -7 10 -26 18
-41 19 -16 1 -30 7 -32 13 -3 9 5 12 26 9 37 -4 45 2 26 21 -11 11 -19 11 -36
3 -27 -15 -36 -5 -16 18 10 10 17 23 17 28 0 5 4 16 10 24 7 12 12 12 29 -4
25 -22 26 -18 7 18 l-13 26 -36 -37 c-20 -20 -40 -33 -44 -29 -4 4 0 13 10 20
22 17 22 26 -3 26 -11 0 -20 7 -20 15 0 8 9 15 20 15 11 0 20 -4 20 -10 0 -5
5 -10 11 -10 6 0 8 9 4 21 -5 13 -2 25 6 29 19 12 -13 39 -52 44 -17 1 -36 10
-41 20 -5 9 -15 16 -22 16 -8 0 -19 7 -26 15 -7 8 -21 15 -31 15 -11 0 -19 5
-19 10 0 6 -9 10 -20 10 -11 0 -20 4 -20 9 0 15 18 23 25 11 4 -6 11 -8 16 -5
16 10 10 23 -13 27 -12 2 -24 9 -26 17 -3 10 1 12 17 8 17 -4 21 -1 21 19 0
17 -4 22 -15 18 -9 -4 -15 0 -15 10 0 9 7 16 15 16 11 0 15 11 15 40 0 29 5
43 20 52 26 16 26 31 0 23 -15 -5 -18 -3 -14 9 4 10 -3 23 -17 35 -13 11 -21
23 -16 27 4 4 13 -1 21 -11 12 -16 16 -17 30 -6 9 7 22 11 30 8 10 -4 12 0 9
14 -3 10 0 19 6 19 17 0 13 21 -6 36 -14 10 -15 15 -6 25 10 10 15 9 27 -1 9
-7 13 -16 10 -21 -3 -5 5 -9 18 -8 13 0 17 3 11 6 -7 2 -13 13 -13 24 0 10 -5
19 -11 19 -6 0 -9 10 -7 23 2 17 9 21 30 19 14 -1 29 2 33 8 3 5 2 10 -4 10
-5 0 -22 5 -38 11 -22 8 -24 12 -13 19 9 6 14 21 12 40 -4 31 6 38 25 19 8 -8
13 -8 17 0 10 16 -3 33 -20 27 -8 -3 -14 1 -14 10 0 9 9 18 20 21 36 10 23 29
-17 25 l-37 -5 49 49 c44 44 46 49 27 52 -26 4 -29 27 -6 40 14 8 13 10 -2 23
-13 11 -18 11 -21 2 -3 -7 -14 -13 -25 -13 -19 0 -20 1 -4 25 11 17 13 25 5
25 -7 0 -9 3 -5 7 4 5 14 -1 22 -11 12 -17 17 -18 39 -6 25 13 34 30 15 30 -5
0 -10 -4 -10 -10 0 -20 -29 -9 -32 12 -2 14 -13 25 -28 29 -21 6 -22 7 -5 9
11 2 31 3 45 4 14 0 26 6 27 11 1 6 -9 9 -22 7 -34 -5 -32 16 3 29 23 9 24 12
11 19 -17 10 -69 -8 -69 -22 0 -5 -9 -8 -20 -8 -11 0 -20 4 -20 9 0 5 8 8 17
7 9 0 22 9 29 22 6 13 15 23 20 23 5 -1 25 2 44 6 l35 6 -29 8 c-19 5 -35 4
-43 -3 -10 -8 -13 -7 -13 5 0 8 7 20 15 27 14 11 13 14 -2 25 -15 11 -15 13 6
20 16 5 20 12 16 27 -5 13 -1 24 11 32 15 12 14 14 -17 26 -32 12 -33 13 -11
19 31 8 28 27 -4 24 -15 -1 -24 4 -24 13 0 8 10 14 23 14 13 0 32 9 42 20 10
11 26 20 37 20 10 0 18 4 18 9 0 5 -9 7 -20 4 -13 -4 -27 3 -40 18 -16 20 -21
21 -29 10 -5 -8 -16 -11 -27 -7 -25 9 -1 31 34 31 31 0 37 20 7 21 -11 0 -26
3 -33 8 -6 4 -17 4 -23 0 -7 -4 -10 -1 -7 7 3 8 14 14 25 15 37 2 57 14 46 25
-7 7 -17 8 -29 1 -21 -10 -44 -6 -44 9 0 5 9 9 20 9 11 0 20 5 20 11 0 7 10 9
25 7 14 -3 25 -2 25 2 0 14 -28 19 -66 13 -26 -4 -35 -3 -30 5 4 6 13 9 21 5
8 -3 15 -1 15 3 -1 16 -27 44 -41 44 -12 0 -12 2 0 9 16 11 57 -2 83 -26 10
-9 18 -11 18 -6 0 6 -7 13 -15 17 -8 3 -15 14 -15 24 0 15 -6 18 -28 14 -17
-2 -33 2 -41 12 -11 13 -8 14 23 9 31 -5 35 -3 30 11 -3 9 -12 16 -19 16 -7 0
-18 7 -25 15 -10 12 -10 15 3 15 12 0 27 19 27 36 0 2 -11 2 -25 -2 -22 -5
-25 -3 -25 21 0 22 4 26 20 22 11 -3 20 -2 20 2 0 3 -9 14 -20 24 -18 15 -20
15 -20 1 0 -9 -6 -14 -12 -12 -7 3 -18 -5 -23 -16 -6 -12 -20 -21 -33 -21 -13
0 -26 -6 -31 -13 -10 -17 -18 48 -27 218 -8 158 -24 197 -109 280 -108 103
-115 105 -425 105 -146 0 -270 2 -276 3 -6 1 -14 17 -17 35 -9 53 -25 87 -43
87 -13 0 -15 -6 -10 -27z m-1734 -298 c39 -20 80 -82 80 -120 0 -66 -73 -136
-122 -115 -56 23 -98 80 -98 133 0 32 7 46 39 78 42 43 58 46 101 24z m-575
-26 c20 -18 43 -45 51 -60 13 -26 13 -32 -1 -59 -16 -30 -79 -80 -103 -80 -27
0 -72 31 -87 60 -26 51 -18 97 28 148 29 32 69 28 112 -9z m-409 -10 c-3 -17
-6 -37 -6 -45 0 -7 -7 -20 -15 -28 -14 -14 -14 -18 1 -42 10 -14 28 -30 41
-35 33 -12 28 -29 -7 -26 -55 7 -112 80 -102 133 5 27 55 74 79 74 12 0 14 -7
9 -31z m734 -4 c15 -16 24 -41 28 -74 4 -46 2 -53 -27 -81 -24 -24 -36 -30
-53 -25 -43 13 -87 46 -90 68 -5 26 16 102 32 122 20 25 83 19 110 -10z m2461
-5 c21 -12 49 -60 49 -86 0 -21 -63 -84 -84 -84 -21 0 -73 49 -80 76 -4 14 4
34 24 62 31 43 54 51 91 32z m519 -500 c0 -5 -4 -10 -10 -10 -5 0 -10 5 -10
10 0 6 5 10 10 10 6 0 10 -4 10 -10z m-5 -100 c3 -5 2 -10 -4 -10 -5 0 -13 5
-16 10 -3 6 -2 10 4 10 5 0 13 -4 16 -10z m0 -50 c3 -5 -1 -10 -10 -10 -9 0
-13 5 -10 10 3 6 8 10 10 10 2 0 7 -4 10 -10z m-28 -36 c-3 -3 -12 -4 -19 -1
-8 3 -5 6 6 6 11 1 17 -2 13 -5z m58 -14 c3 -5 -1 -10 -9 -10 -9 0 -16 5 -16
10 0 6 4 10 9 10 6 0 13 -4 16 -10z m-5 -50 c0 -5 -2 -10 -4 -10 -3 0 -8 5
-11 10 -3 6 -1 10 4 10 6 0 11 -4 11 -10z m74 4 c18 -7 12 -24 -10 -24 -8 0
-14 7 -14 15 0 17 2 18 24 9z m-64 -119 c0 -8 -4 -15 -10 -15 -5 0 -10 7 -10
15 0 8 5 15 10 15 6 0 10 -7 10 -15z m-5 -35 c3 -5 1 -10 -4 -10 -6 0 -11 5
-11 10 0 6 2 10 4 10 3 0 8 -4 11 -10z m55 -5 c0 -9 -7 -18 -15 -21 -8 -4 -15
-12 -15 -20 0 -8 -5 -14 -10 -14 -9 0 -5 42 7 63 8 13 33 7 33 -8z m-30 -105
c0 -5 -4 -10 -9 -10 -6 0 -13 5 -16 10 -3 6 1 10 9 10 9 0 16 -4 16 -10z m-35
-40 c3 -5 -1 -10 -9 -10 -9 0 -16 5 -16 10 0 6 4 10 9 10 6 0 13 -4 16 -10z
m-729 -200 c209 -102 326 -346 269 -564 -36 -139 -96 -211 -224 -273 -75 -37
-77 -37 -206 -37 -130 -1 -130 -1 -208 36 -93 44 -190 136 -233 220 -81 156
-35 384 106 527 91 93 193 132 336 128 80 -2 99 -7 160 -37z m754 -50 c0 -5
-4 -10 -10 -10 -5 0 -10 5 -10 10 0 6 5 10 10 10 6 0 10 -4 10 -10z m36 -31
c3 -6 2 -15 -2 -19 -12 -12 -38 5 -30 19 9 14 23 14 32 0z m-96 -298 c0 -17
-18 -21 -24 -6 -3 9 0 15 9 15 8 0 15 -4 15 -9z m-50 -41 c0 -5 -4 -10 -9 -10
-6 0 -13 5 -16 10 -3 6 1 10 9 10 9 0 16 -4 16 -10z m50 -45 c0 -8 -7 -15 -15
-15 -8 0 -15 7 -15 15 0 8 7 15 15 15 8 0 15 -7 15 -15z m-45 -115 c3 -5 1
-10 -4 -10 -6 0 -11 5 -11 10 0 6 2 10 4 10 3 0 8 -4 11 -10z m-5 -55 c0 -8
-4 -15 -10 -15 -5 0 -10 7 -10 15 0 8 5 15 10 15 6 0 10 -7 10 -15z m62 -236
c15 -16 35 -29 43 -29 8 0 15 -4 15 -10 0 -5 -2 -10 -4 -10 -2 0 -11 -3 -20
-6 -10 -4 -16 -1 -16 8 0 12 -36 42 -53 43 -4 0 -11 5 -15 10 -4 6 -13 10 -21
10 -8 0 -16 6 -18 12 -8 24 61 2 89 -28z m-24 -25 c12 -4 22 -13 22 -21 0 -11
-4 -11 -21 -3 -11 7 -32 9 -45 6 -13 -4 -24 -2 -24 3 0 8 12 14 40 20 3 0 15
-2 28 -5z m141 -23 c19 -12 4 -31 -25 -31 -35 0 -30 34 6 39 3 0 11 -3 19 -8z
m-159 -36 c-14 -16 -50 -21 -50 -6 0 11 18 19 44 20 15 1 16 -2 6 -14z m82
-14 c-4 -10 -1 -13 11 -8 11 4 17 1 17 -8 0 -8 -5 -15 -11 -15 -6 0 -9 -7 -5
-15 3 -9 0 -15 -10 -15 -10 0 -13 7 -8 25 4 17 2 25 -7 26 -8 1 -20 2 -28 3
-8 0 -16 7 -18 14 -3 8 6 11 30 10 25 -2 33 -7 29 -17z m-112 -18 c0 -5 -4
-14 -9 -21 -7 -11 -9 -11 -14 1 -3 8 -3 18 0 21 9 8 23 7 23 -1z m50 -9 c0 -8
-32 -33 -42 -34 -10 0 24 38 35 39 4 1 7 -2 7 -5z m40 -14 c0 -5 -4 -10 -10
-10 -5 0 -10 5 -10 10 0 6 5 10 10 10 6 0 10 -4 10 -10z m0 -46 c0 -9 -7 -14
-17 -12 -25 5 -28 28 -4 28 12 0 21 -6 21 -16z m60 -46 c0 -5 -7 -3 -15 6 -9
8 -23 12 -31 9 -14 -5 -14 -3 -2 16 l13 22 18 -22 c9 -12 17 -26 17 -31z m110
-89 c0 -5 -12 -9 -26 -9 -22 0 -24 2 -14 14 12 15 40 11 40 -5z m-65 1 c-3 -5
-13 -10 -21 -10 -8 0 -14 5 -14 10 0 6 9 10 21 10 11 0 17 -4 14 -10z m-125
-1241 c0 -18 -2 -19 -15 -5 -8 8 -15 17 -15 20 0 3 7 6 15 6 9 0 15 -9 15 -21z
m-3880 -81 c0 -5 -13 -8 -30 -8 -16 0 -30 4 -30 10 0 5 13 8 30 7 16 -1 30 -5
30 -9z m158 -28 c-14 -22 -24 -19 -15 5 4 8 11 15 17 15 6 0 6 -7 -2 -20z
m185 7 c4 3 7 1 7 -6 0 -16 -29 -26 -42 -13 -15 15 0 36 16 23 7 -6 16 -8 19
-4z m297 3 c0 -5 -4 -10 -10 -10 -5 0 -10 5 -10 10 0 6 5 10 10 10 6 0 10 -4
10 -10z m380 0 c0 -5 -2 -10 -4 -10 -3 0 -8 5 -11 10 -3 6 -1 10 4 10 6 0 11
-4 11 -10z m2170 0 c0 -5 -2 -10 -4 -10 -3 0 -8 5 -11 10 -3 6 -1 10 4 10 6 0
11 -4 11 -10z m228 -2 c-9 -7 -18 -20 -21 -28 -4 -10 -6 -8 -6 7 -1 20 10 30
33 32 6 1 3 -5 -6 -11z m312 8 c0 -2 -7 -6 -15 -10 -8 -3 -15 -1 -15 4 0 6 7
10 15 10 8 0 15 -2 15 -4z m-2335 -16 c3 -5 1 -10 -4 -10 -6 0 -11 5 -11 10 0
6 2 10 4 10 3 0 8 -4 11 -10z m315 0 c0 -5 -4 -10 -10 -10 -5 0 -10 5 -10 10
0 6 5 10 10 10 6 0 10 -4 10 -10z m1325 0 c3 -5 1 -10 -4 -10 -6 0 -11 5 -11
10 0 6 2 10 4 10 3 0 8 -4 11 -10z m301 -7 c-4 -9 -1 -20 6 -24 7 -4 9 -11 5
-15 -13 -13 -29 13 -22 35 3 12 9 21 12 21 3 0 2 -8 -1 -17z m-2766 -8 c0 -8
-4 -15 -10 -15 -5 0 -7 7 -4 15 4 8 8 15 10 15 2 0 4 -7 4 -15z m695 4 c12
-19 -5 -23 -22 -6 -16 16 -16 17 -1 17 9 0 20 -5 23 -11z m1145 -14 c0 -15 -6
-25 -14 -25 -11 0 -12 5 -3 25 15 31 17 31 17 0z m-420 5 c0 -5 -4 -10 -10
-10 -5 0 -10 5 -10 10 0 6 5 10 10 10 6 0 10 -4 10 -10z m1270 -14 c0 -26 -14
-41 -29 -32 -10 7 9 56 22 56 4 0 7 -11 7 -24z m-2156 -36 c-10 -10 -17 -11
-25 -3 -8 8 -6 16 8 30 16 16 19 17 24 3 4 -8 1 -22 -7 -30z m76 34 c0 -9 -5
-14 -12 -12 -18 6 -21 28 -4 28 9 0 16 -7 16 -16z m1107 10 c-3 -3 -12 -4 -19
-1 -8 3 -5 6 6 6 11 1 17 -2 13 -5z m561 -6 c17 -17 15 -48 -3 -48 -14 0 -35
29 -35 49 0 15 23 14 38 -1z m262 -19 c0 -5 -7 -6 -15 -3 -8 4 -15 13 -15 21
0 13 3 13 15 3 8 -7 15 -16 15 -21z m-2780 11 c0 -5 -4 -10 -10 -10 -5 0 -10
5 -10 10 0 6 5 10 10 10 6 0 10 -4 10 -10z m290 0 c0 -5 -4 -10 -10 -10 -5 0
-10 5 -10 10 0 6 5 10 10 10 6 0 10 -4 10 -10z"/>
<path d="M3653 2612 c-36 -23 -38 -108 -3 -147 27 -30 62 -96 69 -130 8 -37
32 -42 104 -21 33 10 67 29 88 49 41 41 89 132 89 169 0 35 -37 64 -101 77
-57 13 -228 15 -246 3z"/>
<path d="M3634 4223 c-3 -10 -16 -40 -29 -67 -20 -39 -22 -51 -12 -67 6 -10
21 -19 32 -19 31 0 49 50 40 116 -6 53 -21 71 -31 37z"/>
<path d="M4886 3705 c4 -10 0 -15 -12 -15 -13 0 -15 -3 -7 -11 12 -12 53 -3
53 11 0 5 -9 14 -20 20 -16 9 -18 8 -14 -5z"/>
<path d="M3851 3671 c-7 -12 -11 -93 -11 -206 l0 -186 37 3 37 3 1 75 0 75 75
0 75 0 3 -72 3 -73 41 0 41 0 -7 188 c-4 103 -11 190 -14 194 -4 3 -18 8 -32
10 -25 3 -25 2 -25 -74 0 -42 -4 -80 -8 -84 -4 -5 -38 -10 -75 -12 -50 -3 -71
0 -79 10 -7 8 -13 47 -15 88 -2 61 -6 75 -20 78 -9 2 -21 -6 -27 -17z"/>
<path d="M1441 3651 c-12 -16 -21 -34 -21 -40 0 -6 -4 -19 -10 -29 -5 -9 -30
-62 -56 -117 -25 -55 -53 -107 -60 -116 -11 -12 -12 -23 -5 -43 15 -38 44 -33
75 13 31 44 55 52 132 44 46 -5 53 -9 75 -44 25 -41 48 -49 68 -25 10 11 3 33
-29 103 -23 48 -53 117 -66 152 -27 71 -61 131 -74 131 -5 0 -18 -13 -29 -29z
m49 -157 c28 -64 26 -74 -14 -74 -43 0 -58 18 -50 61 14 71 37 76 64 13z"/>
<path d="M2866 3586 c-25 -51 -46 -97 -46 -101 0 -4 -7 -23 -16 -43 -9 -21
-23 -52 -31 -70 -21 -48 -14 -86 17 -90 20 -2 28 5 43 37 16 36 22 40 65 45
69 9 103 -4 127 -47 22 -40 36 -50 60 -41 24 9 18 55 -16 125 -50 103 -89 189
-89 197 0 13 -50 82 -59 82 -5 0 -30 -42 -55 -94z m84 -92 c25 -56 26 -78 4
-70 -9 3 -27 6 -40 6 -14 0 -27 7 -31 16 -8 22 17 94 34 94 8 0 23 -21 33 -46z"/>
<path d="M1090 3649 c-92 -52 -141 -141 -120 -218 15 -55 92 -139 136 -147 48
-9 94 2 129 30 28 23 29 26 13 42 -15 15 -22 16 -56 5 -22 -7 -48 -10 -60 -7
-32 10 -71 45 -88 77 -21 41 -4 90 43 126 37 28 71 33 136 19 38 -8 39 -8 35
20 -4 35 -58 74 -102 73 -17 0 -47 -9 -66 -20z"/>
<path d="M1695 3481 c0 -180 1 -191 20 -199 32 -14 45 -3 45 38 0 88 37 95
100 20 49 -58 73 -74 100 -65 29 9 24 33 -15 76 -19 22 -35 44 -35 51 0 6 16
26 35 44 28 26 35 39 35 70 0 47 -29 98 -67 117 -15 8 -59 17 -98 21 -38 3
-81 9 -95 12 l-25 5 0 -190z m204 75 c44 -47 -3 -90 -90 -84 -44 3 -44 3 -47
44 -3 34 1 42 20 52 41 19 92 14 117 -12z"/>
<path d="M2222 3640 c-72 -52 -81 -98 -29 -148 18 -18 37 -32 42 -32 20 0 104
-44 109 -57 12 -30 -13 -53 -57 -53 -24 0 -48 5 -54 11 -6 6 -26 9 -44 7 -26
-2 -35 -8 -37 -25 -4 -29 39 -51 118 -60 l61 -6 45 44 c57 56 59 91 10 143
-18 20 -42 36 -52 36 -36 0 -84 38 -84 66 l0 27 64 -7 c70 -7 82 -1 72 37 -13
52 -103 61 -164 17z"/>
<path d="M3144 3655 c-4 -10 -2 -95 4 -189 10 -140 15 -173 28 -183 29 -21 44
2 44 68 0 45 3 59 15 59 8 0 44 -31 81 -70 46 -47 75 -70 91 -70 35 0 29 30
-17 75 -22 21 -40 46 -40 55 0 9 16 31 35 50 43 41 45 76 10 135 -28 49 -54
61 -147 69 -37 4 -75 9 -83 12 -9 4 -18 -1 -21 -11z m190 -94 c23 -26 13 -57
-24 -76 -58 -30 -100 -9 -100 49 0 43 5 46 60 46 34 0 52 -5 64 -19z"/>
<path d="M3589 3650 c-44 -23 -84 -69 -112 -127 -20 -42 -21 -45 -4 -89 20
-54 50 -93 94 -123 26 -17 48 -21 106 -21 82 0 97 9 97 57 l0 32 -83 -6 -84
-6 -26 35 c-34 44 -37 113 -7 145 26 28 84 46 123 39 67 -14 72 -12 75 15 7
60 -102 90 -179 49z"/>
<path d="M2583 3652 l-123 -3 5 -57 c3 -31 7 -111 9 -177 l3 -120 122 -3 121
-3 0 30 0 30 -82 3 -83 3 -3 34 c-4 44 9 52 78 49 l55 -3 3 33 3 32 -70 0
c-69 0 -69 0 -76 30 -4 16 -4 34 0 40 3 5 44 10 91 10 l84 0 0 34 c0 19 -3 36
-7 38 -5 2 -63 2 -130 0z"/>
<path d="M4920 3600 c0 -5 5 -10 10 -10 6 0 10 5 10 10 0 6 -4 10 -10 10 -5 0
-10 -4 -10 -10z"/>
<path d="M4780 3560 c0 -5 5 -10 11 -10 5 0 7 5 4 10 -3 6 -8 10 -11 10 -2 0
-4 -4 -4 -10z"/>
<path d="M4898 3563 c12 -2 30 -2 40 0 9 3 -1 5 -23 4 -22 0 -30 -2 -17 -4z"/>
<path d="M4875 3420 c-4 -6 7 -10 24 -10 17 0 31 5 31 10 0 6 -11 10 -24 10
-14 0 -28 -4 -31 -10z"/>
<path d="M4760 3220 c0 -5 5 -10 11 -10 5 0 7 5 4 10 -3 6 -8 10 -11 10 -2 0
-4 -4 -4 -10z"/>
<path d="M2083 2892 c-8 -5 -15 -55 -19 -146 -8 -164 -17 -182 -87 -173 -67 9
-71 20 -77 175 l-5 137 -27 3 c-38 4 -48 -25 -48 -141 0 -90 18 -175 42 -204
16 -20 75 -43 110 -43 60 0 118 48 142 117 21 60 25 261 6 273 -18 12 -22 12
-37 2z"/>
<path d="M4938 2893 c7 -3 16 -2 19 1 4 3 -2 6 -13 5 -11 0 -14 -3 -6 -6z"/>
<path d="M1125 2708 c4 -95 11 -177 15 -181 4 -5 18 -7 30 -5 22 3 23 7 21 93
-2 100 9 133 33 100 8 -11 22 -30 32 -42 11 -11 39 -46 64 -76 55 -67 106
-100 120 -77 6 8 9 89 7 185 l-2 170 -34 3 -34 3 6 -100 c4 -58 3 -102 -2
-106 -5 -3 -29 18 -53 47 -95 116 -143 158 -178 158 l-32 0 7 -172z"/>
<path d="M1490 2842 l0 -39 55 5 55 4 0 -146 0 -146 24 -6 c46 -11 49 -1 45
150 l-4 141 57 3 c61 3 85 22 72 56 -5 14 -29 16 -155 16 l-149 0 0 -38z"/>
<path d="M2226 2862 c-15 -51 -28 -179 -23 -220 11 -97 38 -122 131 -122 99 0
115 50 25 79 -81 25 -90 31 -105 66 -15 38 -18 83 -6 102 4 7 41 15 82 19 81
7 100 16 100 45 0 21 15 26 23 6 2 -7 17 -13 33 -15 15 -1 33 -7 39 -13 5 -5
11 -70 13 -149 3 -127 5 -140 23 -145 32 -11 39 3 40 83 1 42 4 106 8 142 l6
65 55 5 c53 5 55 6 55 35 l0 30 -247 2 c-225 2 -247 1 -252 -15z"/>
<path d="M983 2803 c4 -38 7 -116 7 -175 l0 -108 35 0 35 0 0 175 0 175 -41 0
-42 0 6 -67z"/>
<path d="M4758 2823 c6 -2 18 -2 25 0 6 3 1 5 -13 5 -14 0 -19 -2 -12 -5z"/>
<path d="M4727 2684 c-11 -11 3 -24 24 -24 18 0 19 2 5 15 -16 17 -20 18 -29
9z"/>
<path d="M4915 2630 c-3 -5 3 -10 15 -10 12 0 18 5 15 10 -3 6 -10 10 -15 10
-5 0 -12 -4 -15 -10z"/>
<path d="M4710 2560 c0 -5 5 -10 10 -10 6 0 10 5 10 10 0 6 -4 10 -10 10 -5 0
-10 -4 -10 -10z"/>
<path d="M4916 2524 c-9 -24 -8 -25 13 -12 11 7 17 16 15 20 -8 13 -21 9 -28
-8z"/>
<path d="M4976 2503 c-6 -14 -5 -15 5 -6 7 7 10 15 7 18 -3 3 -9 -2 -12 -12z"/>
<path d="M4910 2476 c0 -9 5 -16 10 -16 6 0 10 4 10 9 0 6 -4 13 -10 16 -5 3
-10 -1 -10 -9z"/>
<path d="M4925 2430 c-3 -5 3 -10 15 -10 12 0 18 5 15 10 -3 6 -10 10 -15 10
-5 0 -12 -4 -15 -10z"/>
<path d="M4880 2415 c0 -8 4 -15 9 -15 5 0 11 7 15 15 3 9 0 15 -9 15 -8 0
-15 -7 -15 -15z"/>
<path d="M4650 2409 c0 -5 5 -7 10 -4 6 3 10 8 10 11 0 2 -4 4 -10 4 -5 0 -10
-5 -10 -11z"/>
<path d="M4905 2350 c10 -11 22 -20 27 -20 4 0 8 9 8 20 0 15 -7 20 -27 20
-25 0 -26 0 -8 -20z"/>
<path d="M4605 2330 c-3 -5 1 -10 10 -10 9 0 13 5 10 10 -3 6 -8 10 -10 10 -2
0 -7 -4 -10 -10z"/>
<path d="M4965 2310 c-3 -5 3 -10 15 -10 12 0 18 5 15 10 -3 6 -10 10 -15 10
-5 0 -12 -4 -15 -10z"/>
<path d="M4920 2281 c0 -6 5 -13 10 -16 6 -3 10 1 10 9 0 9 -4 16 -10 16 -5 0
-10 -4 -10 -9z"/>
<path d="M4880 2269 c0 -6 7 -17 15 -25 13 -14 15 -13 15 4 0 11 -7 22 -15 26
-8 3 -15 1 -15 -5z"/>
<path d="M4610 2259 c0 -5 5 -7 10 -4 6 3 10 8 10 11 0 2 -4 4 -10 4 -5 0 -10
-5 -10 -11z"/>
<path d="M4917 2226 c-3 -8 1 -17 9 -20 8 -3 14 -1 14 4 0 6 8 10 18 10 14 0
15 2 2 10 -21 14 -37 12 -43 -4z"/>
<path d="M4610 2200 c0 -5 5 -10 10 -10 6 0 10 5 10 10 0 6 -4 10 -10 10 -5 0
-10 -4 -10 -10z"/>
<path d="M4865 2200 c-3 -5 3 -10 14 -10 12 0 21 5 21 10 0 6 -6 10 -14 10 -8
0 -18 -4 -21 -10z"/>
<path d="M4628 2148 c9 -9 15 -9 24 0 9 9 7 12 -12 12 -19 0 -21 -3 -12 -12z"/>
<path d="M4686 2124 c-5 -12 -2 -15 10 -10 8 3 18 6 20 6 3 0 2 5 -1 10 -9 15
-22 12 -29 -6z"/>
<path d="M4790 2129 c0 -5 5 -7 10 -4 6 3 10 8 10 11 0 2 -4 4 -10 4 -5 0 -10
-5 -10 -11z"/>
<path d="M233 2075 c0 -27 2 -38 4 -22 2 15 2 37 0 50 -2 12 -4 0 -4 -28z"/>
<path d="M485 2055 c38 -35 71 -62 74 -59 7 7 -117 124 -131 124 -7 0 19 -29
57 -65z"/>
<path d="M2690 2107 c-71 -25 -99 -123 -84 -292 8 -89 31 -126 91 -146 50 -16
238 -5 327 20 96 27 110 43 116 139 11 173 -24 273 -100 286 -63 10 -314 5
-350 -7z"/>
<path d="M4880 2110 c-24 -8 -23 -8 8 -9 20 -1 31 3 27 9 -3 6 -7 10 -8 9 -1
-1 -13 -5 -27 -9z"/>
<path d="M4748 2102 c-32 -6 -20 -32 15 -32 17 0 27 4 21 8 -6 4 -13 12 -15
17 -2 6 -12 9 -21 7z"/>
<path d="M4875 2080 c-3 -5 -1 -10 4 -10 6 0 11 5 11 10 0 6 -2 10 -4 10 -3 0
-8 -4 -11 -10z"/>
<path d="M1021 2053 c-1 -6 -4 -20 -7 -30 -5 -17 -5 -17 6 0 6 10 9 23 6 30
-3 9 -5 9 -5 0z"/>
<path d="M4885 2050 c-19 -7 -19 -8 -1 -15 10 -5 21 -3 25 2 3 6 13 13 21 16
11 4 9 5 -5 6 -11 0 -29 -4 -40 -9z"/>
<path d="M4803 1996 c2 -6 17 -10 32 -8 15 2 32 -3 36 -10 7 -10 12 -9 26 5
16 16 16 17 -17 18 -19 0 -45 2 -58 3 -13 2 -21 -2 -19 -8z"/>
<path d="M1001 1882 c-1 -67 37 -152 82 -184 26 -19 48 -24 119 -26 117 -5
184 15 243 72 25 23 45 48 45 54 0 6 -15 -3 -32 -20 -37 -34 -115 -72 -170
-82 -45 -8 -154 9 -185 30 -41 26 -76 83 -88 147 l-13 62 -1 -53z"/>
<path d="M4790 1890 c0 -5 9 -10 20 -10 11 0 20 5 20 10 0 6 -9 10 -20 10 -11
0 -20 -4 -20 -10z"/>
<path d="M4975 1700 c-9 -15 -1 -23 21 -18 15 3 16 4 1 16 -11 9 -17 10 -22 2z"/>
<path d="M4810 1660 c0 -5 5 -10 10 -10 6 0 10 5 10 10 0 6 -4 10 -10 10 -5 0
-10 -4 -10 -10z"/>
<path d="M4877 1543 c-4 -3 -7 -11 -7 -17 0 -6 5 -5 12 2 6 6 9 14 7 17 -3 3
-9 2 -12 -2z"/>
<path d="M390 1502 c0 -5 15 -30 33 -56 17 -26 37 -55 42 -65 6 -10 32 -39 58
-64 42 -41 47 -44 47 -24 0 30 -27 69 -119 169 -41 46 -61 58 -61 40z"/>
<path d="M1189 1506 c-3 -3 -20 -8 -37 -10 -40 -4 -106 -47 -129 -83 -28 -42
-26 -243 3 -297 35 -68 67 -78 224 -73 167 5 205 20 241 94 20 40 24 64 24
138 -1 118 -16 167 -62 202 -34 26 -44 28 -147 31 -61 2 -114 1 -117 -2z"/>
<path d="M2720 1474 c-102 -42 -110 -59 -110 -218 0 -120 5 -147 37 -183 34
-39 68 -45 203 -38 158 8 191 17 229 60 72 83 83 287 18 352 -23 24 -30 25
-193 29 -93 2 -176 1 -184 -2z"/>
<path d="M3880 1240 c0 -5 6 -10 14 -10 8 0 18 5 21 10 3 6 -3 10 -14 10 -12
0 -21 -4 -21 -10z"/>
<path d="M2230 1099 c-30 -16 -58 -19 -192 -19 -143 0 -186 -7 -142 -24 9 -3
76 -6 150 -6 142 0 170 7 208 49 22 24 22 24 -24 0z"/>
<path d="M3538 1043 c18 -2 45 -2 60 0 15 2 0 4 -33 4 -33 0 -45 -2 -27 -4z"/>
<path d="M4915 770 c3 -5 10 -10 16 -10 5 0 9 5 9 10 0 6 -7 10 -16 10 -8 0
-12 -4 -9 -10z"/>
<path d="M4860 741 c0 -5 7 -12 16 -15 14 -5 15 -4 4 9 -14 17 -20 19 -20 6z"/>
<path d="M4907 673 c-12 -12 -7 -22 8 -17 8 4 15 10 15 15 0 11 -14 12 -23 2z"/>
<path d="M4815 610 c-3 -5 -2 -10 4 -10 5 0 13 5 16 10 3 6 2 10 -4 10 -5 0
-13 -4 -16 -10z"/>
<path d="M4845 590 c3 -5 8 -10 11 -10 2 0 4 5 4 10 0 6 -5 10 -11 10 -5 0 -7
-4 -4 -10z"/>
<path d="M4710 547 c0 -8 7 -20 15 -27 12 -10 15 -10 15 3 0 8 -7 20 -15 27
-12 10 -15 10 -15 -3z"/>
<path d="M4770 519 c0 -18 2 -19 15 -9 15 12 12 30 -6 30 -5 0 -9 -10 -9 -21z"/>
<path d="M4697 483 c-10 -9 13 -33 32 -32 10 0 11 2 4 6 -7 2 -13 11 -13 19 0
15 -12 19 -23 7z"/>
<path d="M2242 388 c5 -15 37 -18 41 -3 1 6 -9 12 -22 13 -16 3 -22 -1 -19
-10z"/>
<path d="M722 371 c4 -13 18 -16 19 -4 0 4 -5 9 -11 12 -7 2 -11 -2 -8 -8z"/>
<path d="M4210 365 c0 -8 7 -15 16 -15 14 0 14 3 4 15 -7 8 -14 15 -16 15 -2
0 -4 -7 -4 -15z"/>
<path d="M3906 361 c-4 -5 -2 -12 3 -15 5 -4 12 -2 15 3 4 5 2 12 -3 15 -5 4
-12 2 -15 -3z"/>
<path d="M2165 350 c-3 -5 -1 -10 4 -10 6 0 11 5 11 10 0 6 -2 10 -4 10 -3 0
-8 -4 -11 -10z"/>
<path d="M2606 346 c3 -9 13 -16 22 -16 8 0 13 1 11 3 -2 1 -12 9 -22 16 -15
12 -17 12 -11 -3z"/>
<path d="M2845 328 c0 -44 21 -47 22 -3 1 21 -4 35 -11 35 -7 0 -12 -14 -11
-32z"/>
<path d="M4430 348 c0 -9 -6 -19 -12 -21 -10 -4 -10 -6 0 -6 14 -1 28 26 18
36 -3 4 -6 -1 -6 -9z"/>
<path d="M1195 340 c-3 -5 3 -10 14 -10 12 0 21 5 21 10 0 6 -6 10 -14 10 -8
0 -18 -4 -21 -10z"/>
<path d="M2230 340 c0 -5 5 -10 10 -10 6 0 10 5 10 10 0 6 -4 10 -10 10 -5 0
-10 -4 -10 -10z"/>
<path d="M2260 335 c-7 -9 -9 -19 -5 -23 4 -4 10 -1 12 6 3 6 11 12 19 12 8 0
14 5 14 10 0 15 -26 12 -40 -5z"/>
<path d="M2400 340 c0 -5 5 -10 10 -10 6 0 10 5 10 10 0 6 -4 10 -10 10 -5 0
-10 -4 -10 -10z"/>
<path d="M2890 330 c0 -13 5 -20 13 -17 6 2 12 10 12 17 0 7 -6 15 -12 18 -8
2 -13 -5 -13 -18z"/>
<path d="M2956 341 c-4 -5 -2 -12 3 -15 5 -4 12 -2 15 3 4 5 2 12 -3 15 -5 4
-12 2 -15 -3z"/>
<path d="M3070 326 c0 -9 5 -16 10 -16 6 0 10 4 10 9 0 6 -4 13 -10 16 -5 3
-10 -1 -10 -9z"/>
<path d="M2321 314 c0 -11 3 -14 6 -6 3 7 2 16 -1 19 -3 4 -6 -2 -5 -13z"/>
<path d="M2570 320 c0 -5 7 -10 16 -10 8 0 12 5 9 10 -3 6 -10 10 -16 10 -5 0
-9 -4 -9 -10z"/>
<path d="M1592 308 c-16 -16 -15 -28 3 -28 8 0 15 9 15 20 0 23 -2 24 -18 8z"/>
<path d="M1705 310 c-3 -5 1 -10 10 -10 9 0 13 5 10 10 -3 6 -8 10 -10 10 -2
0 -7 -4 -10 -10z"/>
<path d="M1790 311 c0 -5 5 -13 10 -16 6 -3 10 -2 10 4 0 5 -4 13 -10 16 -5 3
-10 2 -10 -4z"/>
<path d="M2200 310 c0 -5 5 -10 10 -10 6 0 10 5 10 10 0 6 -4 10 -10 10 -5 0
-10 -4 -10 -10z"/>
<path d="M3220 304 c0 -8 5 -12 10 -9 6 3 10 10 10 16 0 5 -4 9 -10 9 -5 0
-10 -7 -10 -16z"/>
<path d="M3520 305 c0 -8 5 -15 10 -15 6 0 10 7 10 15 0 8 -4 15 -10 15 -5 0
-10 -7 -10 -15z"/>
<path d="M3890 310 c0 -5 7 -10 16 -10 8 0 12 5 9 10 -3 6 -10 10 -16 10 -5 0
-9 -4 -9 -10z"/>
<path d="M4110 310 c0 -5 5 -10 10 -10 6 0 10 5 10 10 0 6 -4 10 -10 10 -5 0
-10 -4 -10 -10z"/>
<path d="M4192 300 c-7 -11 -9 -20 -4 -20 10 0 32 22 32 32 0 15 -15 8 -28
-12z"/>
<path d="M4320 310 c0 -5 7 -10 16 -10 8 0 12 5 9 10 -3 6 -10 10 -16 10 -5 0
-9 -4 -9 -10z"/>
<path d="M1650 299 c0 -5 5 -7 10 -4 6 3 10 8 10 11 0 2 -4 4 -10 4 -5 0 -10
-5 -10 -11z"/>
<path d="M2371 294 c0 -11 3 -14 6 -6 3 7 2 16 -1 19 -3 4 -6 -2 -5 -13z"/>
<path d="M2765 301 c-6 -11 9 -23 19 -14 9 9 7 23 -3 23 -6 0 -12 -4 -16 -9z"/>
<path d="M3015 300 c3 -5 8 -10 11 -10 2 0 4 5 4 10 0 6 -5 10 -11 10 -5 0 -7
-4 -4 -10z"/>
<path d="M3300 300 c0 -5 9 -10 20 -10 11 0 20 5 20 10 0 6 -9 10 -20 10 -11
0 -20 -4 -20 -10z"/>
<path d="M3452 298 c3 -7 13 -15 24 -17 16 -3 17 -1 5 13 -16 19 -34 21 -29 4z"/>
<path d="M3690 300 c0 -5 5 -10 10 -10 6 0 10 5 10 10 0 6 -4 10 -10 10 -5 0
-10 -4 -10 -10z"/>
<path d="M3740 290 c0 -5 5 -10 10 -10 6 0 10 5 10 10 0 6 -4 10 -10 10 -5 0
-10 -4 -10 -10z"/>
<path d="M4020 289 c0 -5 5 -7 10 -4 6 3 10 8 10 11 0 2 -4 4 -10 4 -5 0 -10
-5 -10 -11z"/>
</g>
</svg>
