<?xml version="1.0" standalone="no"?>
<!DOCTYPE svg PUBLIC "-//W3C//DTD SVG 20010904//EN"
 "http://www.w3.org/TR/2001/REC-SVG-20010904/DTD/svg10.dtd">
<svg version="1.0" xmlns="http://www.w3.org/2000/svg"
 width="526.000000pt" height="530.000000pt" viewBox="0 0 526.000000 530.000000"
 preserveAspectRatio="xMidYMid meet">

<g transform="translate(0.000000,530.000000) scale(0.100000,-0.100000)"
fill="#000000" stroke="none">
<path d="M2365 4438 c-8 -13 -36 -77 -62 -143 -25 -66 -50 -124 -55 -129 -4
-6 -8 -23 -8 -38 0 -25 3 -28 35 -28 28 0 37 5 50 30 15 29 23 33 96 45 40 6
52 -3 63 -48 6 -24 11 -28 34 -25 38 4 42 53 9 116 -13 26 -39 81 -56 123 -30
73 -62 119 -81 119 -5 0 -16 -10 -25 -22z m47 -154 c11 -22 10 -28 -7 -40 -19
-14 -65 -19 -65 -8 0 13 42 74 51 74 5 0 15 -12 21 -26z"/>
<path d="M1090 4418 c-11 -18 -20 -36 -20 -40 0 -4 -23 -54 -50 -112 -46 -97
-52 -105 -69 -94 -15 9 -32 9 -75 -2 -49 -11 -58 -11 -80 4 -32 21 -54 53 -62
92 -4 24 0 37 19 60 23 27 30 29 89 27 34 -1 72 -3 83 -5 32 -5 31 35 -1 61
-32 25 -129 29 -172 7 -35 -18 -75 -62 -97 -104 -15 -32 -15 -37 2 -84 10 -28
35 -68 55 -89 37 -38 40 -39 105 -39 54 0 77 5 111 25 32 18 42 20 42 9 0 -22
62 -18 77 5 7 11 28 21 55 24 24 3 52 7 63 9 14 2 21 -3 23 -20 5 -33 60 -53
91 -33 11 7 3 28 -38 107 -28 53 -58 120 -66 147 -25 85 -52 99 -85 45z m55
-159 c5 -22 2 -27 -17 -33 -53 -14 -61 0 -31 53 20 34 37 27 48 -20z"/>
<path d="M1778 4420 c-60 -40 -81 -65 -74 -87 9 -27 60 -79 103 -106 21 -13
44 -32 52 -41 11 -13 11 -17 -3 -22 -17 -7 -68 -1 -96 10 -26 11 -54 -17 -47
-46 7 -28 19 -33 104 -44 52 -6 54 -6 93 34 47 47 52 82 18 132 -17 24 -38 38
-77 51 -74 24 -89 51 -41 76 16 8 30 8 41 2 55 -29 105 16 59 53 -33 27 -80
22 -132 -12z"/>
<path d="M1305 4430 c-1 -3 1 -36 5 -75 5 -38 7 -72 5 -75 -2 -3 -5 -42 -6
-85 -2 -79 -2 -80 23 -83 30 -4 58 28 58 65 0 34 25 28 62 -13 55 -62 82 -84
100 -84 28 0 22 38 -12 77 -34 39 -38 68 -11 82 32 18 42 64 25 115 -9 25 -23
51 -31 58 -15 13 -212 29 -218 18z m184 -79 c8 -5 11 -16 8 -24 -9 -23 -74
-69 -93 -65 -23 4 -39 64 -23 84 13 16 86 19 108 5z"/>
<path d="M1987 4285 c3 -82 10 -158 15 -167 7 -15 22 -18 79 -18 91 0 128 19
129 64 0 17 -6 18 -70 12 -58 -5 -72 -3 -76 9 -11 28 15 44 79 47 59 3 62 4
59 27 -3 33 -3 33 -74 40 -56 5 -63 9 -66 28 -4 27 22 40 104 49 57 7 80 23
70 49 -5 13 -25 15 -130 13 l-124 -3 5 -150z"/>
<path d="M3002 4433 c-24 -5 -108 -82 -136 -126 -50 -75 61 -207 174 -207 57
0 100 24 100 55 0 28 -20 32 -79 15 -58 -16 -121 30 -121 91 0 64 25 83 117
89 69 4 78 7 81 26 2 11 -5 28 -15 37 -20 17 -83 28 -121 20z"/>
<path d="M3404 4433 c-7 -5 -11 -33 -10 -68 l1 -60 -74 -3 -74 -3 6 66 6 65
-39 0 -40 0 1 -92 c1 -51 4 -124 8 -163 l6 -70 39 -3 c34 -3 38 -1 31 15 -16
41 -18 85 -4 94 21 13 127 11 135 -3 4 -7 7 -34 7 -60 -1 -48 -1 -48 33 -48
31 0 33 2 39 43 3 23 5 98 3 167 l-3 125 -30 3 c-16 1 -35 -1 -41 -5z"/>
<path d="M2586 4422 c-2 -4 0 -27 4 -52 5 -25 9 -95 10 -156 0 -95 3 -113 17
-118 24 -10 36 8 43 61 3 29 11 50 23 57 20 12 34 -1 80 -74 25 -38 61 -51 71
-25 6 17 -16 69 -34 80 -17 10 -11 42 14 80 14 20 23 42 21 48 -2 7 -6 24 -9
39 -12 55 -40 68 -142 68 -51 0 -95 -3 -98 -8z m175 -68 c11 -14 9 -20 -15
-41 -50 -43 -104 -15 -82 43 8 20 80 19 97 -2z"/>
<path d="M4160 4268 c0 -11 18 -22 56 -33 73 -21 140 -66 186 -125 47 -60 58
-88 58 -154 0 -63 -58 -191 -114 -254 -69 -76 -215 -111 -282 -67 -15 9 -54
32 -87 49 -49 25 -66 41 -88 81 -15 28 -28 57 -28 66 -1 8 -8 24 -16 35 -12
16 -16 17 -24 5 -5 -8 -6 -24 -1 -35 4 -12 4 -49 0 -83 -10 -82 -1 -123 32
-142 108 -64 246 -141 252 -141 3 0 19 -14 34 -31 l28 -32 40 18 c62 27 77 33
116 45 64 19 258 194 258 232 0 9 11 30 25 46 14 17 25 37 25 45 0 8 7 20 15
27 8 7 15 17 15 22 0 21 42 68 61 68 29 0 23 15 -24 57 -27 23 -58 67 -81 113
-36 73 -111 180 -126 180 -5 0 -3 -16 3 -35 9 -30 8 -39 -9 -62 -36 -48 -45
-48 -99 2 -52 47 -141 95 -179 95 -12 0 -27 5 -34 12 -9 9 -12 8 -12 -4z"/>
<path d="M3890 4189 c-52 -62 -70 -91 -70 -119 l0 -24 17 24 c28 40 55 70 103
117 l45 43 -30 0 c-23 0 -38 -10 -65 -41z"/>
<path d="M4090 4029 c-35 -14 -9 -29 51 -29 63 0 113 -34 117 -79 5 -45 -20
-78 -68 -91 -60 -16 -111 1 -154 52 -38 44 -46 35 -22 -23 21 -50 49 -71 103
-76 87 -8 183 52 183 113 0 85 -59 145 -141 143 -24 0 -55 -5 -69 -10z"/>
<path d="M3800 4016 c0 -9 5 -16 10 -16 6 0 10 4 10 9 0 6 -4 13 -10 16 -5 3
-10 -1 -10 -9z"/>
<path d="M967 3973 c-4 -3 -7 -13 -7 -21 0 -19 107 -242 127 -264 39 -43 72
-6 129 142 14 36 33 80 42 98 14 27 15 34 3 41 -37 23 -88 -34 -115 -129 -24
-80 -32 -90 -47 -54 -66 161 -104 215 -132 187z"/>
<path d="M1718 3975 c-4 -4 -92 -7 -196 -6 -200 2 -230 -2 -211 -25 6 -8 15
-69 20 -136 5 -67 12 -124 15 -127 6 -7 237 -2 243 5 3 2 7 56 9 119 5 121 13
142 52 130 18 -6 20 -15 20 -84 0 -43 3 -99 6 -125 l7 -46 73 0 c53 0 77 4 88
16 26 25 19 34 -26 34 -64 0 -72 9 -75 87 -1 37 1 73 5 79 8 12 120 36 133 28
5 -3 9 -50 9 -105 0 -55 4 -108 10 -118 6 -13 26 -20 67 -25 75 -8 117 3 121
33 3 22 3 22 -27 7 -16 -9 -43 -16 -60 -16 -32 0 -42 16 -37 60 2 14 4 50 5
80 1 30 5 61 10 68 5 8 35 16 70 19 l61 6 -3 -93 c-2 -82 0 -94 15 -98 12 -3
18 -14 18 -32 0 -23 5 -28 28 -32 16 -2 33 -3 39 -1 6 2 8 49 5 128 l-5 125
34 0 c19 0 51 -3 72 -6 l37 -7 0 -107 c0 -60 3 -115 6 -124 4 -10 18 -16 35
-16 l29 0 0 130 c0 126 1 131 23 141 15 7 31 7 49 0 25 -9 26 -13 33 -125 8
-119 19 -154 49 -143 14 5 16 25 16 130 l0 124 37 6 c20 4 40 4 44 2 4 -3 11
-55 14 -115 4 -61 13 -114 19 -118 22 -18 63 -22 81 -8 18 13 18 14 -3 20 -12
4 -26 15 -32 25 -14 27 -23 144 -12 160 6 7 32 19 58 26 29 7 49 18 49 26 0
12 -81 14 -500 16 -275 1 -527 5 -560 8 -33 4 -63 4 -67 0z m-190 -142 c2 -51
-2 -81 -13 -103 -14 -26 -21 -30 -59 -30 -53 0 -56 6 -56 105 0 104 2 106 69
103 l56 -3 3 -72z"/>
<path d="M1435 3720 c-3 -5 1 -10 10 -10 9 0 13 5 10 10 -3 6 -8 10 -10 10 -2
0 -7 -4 -10 -10z"/>
<path d="M723 3897 c-54 -67 -78 -124 -68 -158 16 -49 111 -75 165 -44 18 10
42 12 84 8 l59 -6 -7 34 c-12 63 -46 164 -66 197 -18 29 -24 32 -68 32 -47 0
-49 -1 -99 -63z m130 -53 l22 -46 -24 -19 c-25 -20 -95 -26 -106 -9 -18 30 34
120 70 120 8 0 25 -21 38 -46z"/>
<path d="M3811 3914 c0 -11 3 -14 6 -6 3 7 2 16 -1 19 -3 4 -6 -2 -5 -13z"/>
<path d="M3190 3325 c-36 -19 -85 -42 -110 -52 -122 -49 -269 -182 -320 -290
-46 -98 -74 -198 -76 -273 -2 -77 -9 -89 -43 -70 -34 18 -36 -26 -6 -116 39
-117 80 -186 149 -252 76 -72 231 -169 311 -194 78 -23 277 -25 353 -3 105 31
272 139 272 175 0 36 -129 170 -164 170 -12 0 -33 -11 -46 -25 -13 -14 -31
-25 -41 -25 -9 0 -19 -4 -21 -8 -1 -4 -20 -18 -41 -30 -45 -26 -92 -29 -101
-6 -9 23 -8 24 20 34 18 7 24 15 20 26 -3 9 -6 20 -6 25 0 5 -7 9 -15 9 -10 0
-15 -10 -15 -30 0 -21 -5 -30 -16 -30 -8 0 -12 -4 -9 -10 3 -5 2 -10 -3 -10
-5 0 -8 19 -8 43 1 39 -1 42 -26 45 -25 3 -28 7 -28 43 0 24 4 38 10 34 6 -3
10 -1 10 4 0 6 -7 11 -15 11 -10 0 -15 10 -15 29 0 24 -5 31 -29 36 -16 3 -43
22 -60 41 -28 30 -30 36 -17 49 19 19 24 19 29 -2 4 -17 5 -17 6 0 0 9 6 17
12 17 5 0 7 5 4 10 -4 6 12 10 40 10 28 0 44 -4 40 -10 -3 -5 1 -10 11 -10 14
0 14 2 3 16 -10 13 -26 15 -74 10 -33 -3 -95 -8 -138 -12 -49 -4 -74 -10 -65
-15 8 -5 -9 -9 -43 -9 -65 0 -69 5 -69 78 0 66 23 153 52 203 43 72 145 163
207 184 78 26 216 17 294 -18 119 -54 202 -128 248 -222 25 -52 29 -71 29
-145 -1 -55 -6 -94 -15 -110 -8 -14 -14 -34 -15 -45 0 -37 168 -178 183 -154
23 37 70 156 77 195 24 134 -55 357 -178 498 -107 123 -187 174 -315 200 -116
24 -161 21 -237 -19z m68 -978 c2 -11 -3 -17 -17 -17 -23 0 -35 15 -26 31 10
15 39 6 43 -14z"/>
<path d="M1005 3220 c-8 -113 -4 -107 -100 -112 -39 -2 -50 -7 -53 -21 -8 -43
4 -48 60 -22 70 32 78 25 78 -79 0 -98 7 -126 30 -126 30 0 40 24 47 119 l6
91 79 -1 c81 -1 105 7 95 35 -5 13 -22 16 -80 16 -95 0 -111 11 -109 76 1 27
4 66 8 87 6 36 5 37 -24 37 l-30 0 -7 -100z"/>
<path d="M4079 3029 c-15 -28 -6 -101 16 -135 14 -21 22 -25 48 -21 45 7 67
-8 67 -43 0 -23 7 -33 31 -45 19 -10 37 -32 49 -59 19 -45 34 -56 76 -56 38 0
71 41 94 119 21 68 21 72 5 120 -18 55 -55 93 -107 110 -25 8 -217 31 -260 31
-4 0 -12 -10 -19 -21z"/>
<path d="M3160 2669 c0 -5 5 -7 10 -4 6 3 10 8 10 11 0 2 -4 4 -10 4 -5 0 -10
-5 -10 -11z"/>
<path d="M3380 2410 c0 -5 4 -10 9 -10 6 0 13 5 16 10 3 6 -1 10 -9 10 -9 0
-16 -4 -16 -10z"/>
<path d="M1680 2300 l-235 -7 -115 -56 c-63 -32 -129 -70 -145 -85 -17 -15
-26 -24 -21 -19 6 4 21 7 35 7 25 0 24 -2 -15 -38 -57 -51 -83 -93 -90 -144
-10 -74 -32 -71 494 -75 257 -1 598 -6 758 -9 l291 -6 35 -52 c63 -94 197
-138 309 -101 60 20 114 52 142 83 17 19 17 22 2 70 -10 28 -31 65 -47 83 -38
40 -225 130 -281 135 -23 2 -50 7 -60 10 -10 3 -32 0 -48 -6 -22 -10 -48 -10
-111 -1 -135 19 -349 64 -337 72 6 3 -15 8 -46 11 -31 3 -60 10 -65 17 -6 10
-12 10 -29 2 -23 -13 -87 -5 -98 12 -3 5 0 15 8 21 8 6 14 22 14 36 -1 14 6
28 15 32 9 4 1 7 -20 7 -19 1 -51 3 -70 5 -19 2 -141 0 -270 -4z m1188 -305
c55 -25 64 -45 39 -79 -28 -38 -164 -29 -208 15 -69 69 56 117 169 64z"/>
<path d="M2075 2279 c-35 -5 -33 -6 23 -8 34 0 62 1 62 3 0 8 -47 11 -85 5z"/>
<path d="M2070 2225 c-10 -12 -10 -15 4 -15 9 0 16 7 16 15 0 8 -2 15 -4 15
-2 0 -9 -7 -16 -15z"/>
<path d="M5008 2013 c7 -3 16 -2 19 1 4 3 -2 6 -13 5 -11 0 -14 -3 -6 -6z"/>
<path d="M4189 1994 c-7 -9 -13 -37 -14 -62 l0 -47 -38 0 -37 0 -1 -120 c-1
-66 -1 -165 1 -219 2 -92 1 -100 -19 -116 -20 -14 -21 -19 -11 -45 7 -17 14
-78 17 -137 l6 -107 -32 9 c-17 5 -66 10 -109 11 -82 2 -102 6 -102 20 0 5 21
9 46 9 49 0 47 -5 28 61 -17 59 -103 151 -144 154 -9 0 -41 28 -70 61 -54 59
-66 68 -130 101 -19 10 -36 21 -38 26 -2 4 -14 7 -27 7 -24 0 -53 26 -41 37 7
7 -78 53 -99 53 -8 0 -18 -7 -23 -17 -7 -11 -27 -18 -66 -21 -31 -2 -59 -8
-62 -13 -3 -5 -13 -9 -24 -9 -28 0 -130 -54 -196 -104 -112 -84 -154 -136
-186 -227 -15 -45 -28 -88 -28 -95 0 -7 -5 -25 -10 -39 -9 -23 -13 -25 -26
-14 -9 7 -13 21 -10 35 8 30 -11 34 -169 34 -71 0 -220 5 -330 10 -110 5 -207
7 -216 5 -11 -4 -15 -13 -12 -25 5 -19 15 -20 217 -21 116 0 220 -4 231 -8 37
-16 -62 -22 -285 -19 l-214 3 -3 34 c-4 42 -11 51 -24 28 -12 -21 -31 -23 -23
-2 6 15 -27 17 -251 20 -54 0 -61 6 -86 75 -15 43 -35 72 -73 107 -167 158
-332 219 -496 184 -92 -20 -217 -88 -285 -156 -61 -60 -115 -154 -115 -198 0
-45 -19 -57 -77 -46 -29 5 -86 9 -125 7 l-73 -3 3 -35 c6 -59 32 -123 64 -157
40 -41 100 -56 198 -47 88 7 95 3 135 -76 35 -69 73 -110 122 -132 24 -10 43
-26 43 -34 0 -13 -34 -15 -255 -12 -187 2 -255 0 -255 -8 0 -7 25 -35 55 -62
45 -42 70 -56 138 -76 45 -14 93 -28 107 -30 14 -3 44 -21 67 -41 23 -19 48
-35 56 -35 9 0 19 -4 22 -10 10 -15 28 -12 22 4 -3 8 1 17 10 20 28 11 27 -3
-1 -33 -19 -20 -24 -31 -16 -36 7 -4 15 -3 19 2 12 20 51 25 67 8 13 -13 19
-13 31 -3 13 10 18 9 32 -7 9 -11 24 -26 34 -34 15 -12 17 -11 17 3 0 9 -7 16
-15 16 -18 0 -20 20 -2 20 7 1 5 6 -6 14 -12 10 -15 16 -7 21 6 4 14 4 17 1 3
-3 13 0 20 6 12 9 14 9 13 -3 -5 -31 0 -59 11 -59 6 0 8 8 4 19 -7 23 10 37
22 18 14 -23 42 -28 52 -9 6 10 11 12 11 4 0 -8 12 -11 32 -10 18 2 33 -3 36
-10 3 -10 7 -10 18 -1 11 9 14 8 14 -2 1 -23 28 -52 41 -43 9 5 7 10 -6 20
-15 11 -16 16 -4 43 15 33 32 36 37 8 2 -10 -3 -17 -12 -17 -9 0 -16 -4 -16
-9 0 -6 16 -7 35 -4 28 4 39 2 49 -13 12 -15 16 -16 29 -5 12 9 21 10 36 2 27
-15 63 -1 51 19 -9 13 -11 13 -20 0 -6 -9 -10 -10 -10 -3 0 6 5 15 11 18 5 4
14 18 20 32 9 25 29 27 37 5 2 -7 -4 -12 -13 -12 -9 0 -15 -5 -13 -11 2 -6 7
-10 12 -9 5 1 18 -12 29 -30 20 -32 35 -34 22 -3 -5 10 -9 20 -9 23 -1 3 -5
10 -9 16 -10 17 19 38 40 29 34 -15 44 -13 53 8 8 21 9 21 9 2 1 -21 18 -45
33 -45 4 0 7 8 5 18 -1 9 3 17 8 17 6 0 9 -10 7 -23 -1 -12 2 -22 8 -22 5 0
10 5 10 10 0 18 18 10 23 -10 7 -26 27 -26 27 1 0 12 -8 23 -20 26 -23 6 -27
33 -6 33 8 0 17 6 20 13 3 6 3 0 0 -15 -7 -30 4 -36 24 -16 10 10 14 8 18 -9
4 -14 12 -19 24 -16 10 3 23 -4 32 -16 16 -23 68 -46 68 -31 0 6 -7 10 -15 10
-14 0 -42 40 -28 40 4 0 2 4 -6 9 -12 8 -12 12 1 25 14 13 18 13 27 2 8 -10 9
-16 1 -21 -19 -12 -11 -35 13 -35 28 0 47 -17 40 -36 -3 -9 2 -14 12 -14 13 0
16 6 11 24 -4 18 -1 28 11 35 10 6 12 11 6 11 -15 0 -18 30 -3 30 6 0 10 -4
10 -10 0 -5 7 -10 15 -10 8 0 15 5 15 10 0 23 18 8 23 -20 8 -36 27 -40 27 -5
0 29 25 25 33 -6 5 -19 37 -27 37 -9 0 6 5 10 11 10 6 0 17 6 24 13 47 41 47
41 61 22 11 -15 16 -16 28 -6 23 20 41 3 20 -20 -18 -20 -13 -69 7 -69 8 0 7
5 -1 16 -11 13 -10 19 8 36 17 18 23 19 36 8 13 -10 16 -10 16 2 0 8 -5 19
-12 26 -8 8 -9 12 -1 12 6 0 13 -5 15 -12 3 -7 12 -9 23 -4 16 6 17 9 5 16 -8
5 -11 12 -7 16 4 4 15 1 23 -8 22 -22 10 -53 -29 -72 -29 -14 -30 -16 -9 -17
50 -5 57 -3 58 11 4 57 2 55 29 30 14 -13 25 -29 25 -36 0 -6 7 -15 16 -18 9
-3 14 -3 12 1 -2 5 -10 22 -18 38 -8 17 -21 34 -28 38 -11 7 -11 11 0 24 7 9
12 19 10 22 -2 3 1 7 6 9 5 1 7 -12 4 -29 -4 -27 -2 -31 12 -26 18 7 51 -6 75
-30 8 -8 17 -11 20 -6 8 11 72 11 88 0 7 -4 10 -14 6 -22 -3 -9 1 -15 11 -15
13 0 15 8 9 45 -6 49 3 57 31 26 10 -11 24 -17 31 -15 7 3 15 -3 19 -13 6 -14
9 -15 15 -4 10 16 31 6 31 -15 0 -8 4 -14 10 -14 5 0 7 7 4 15 -4 10 0 15 15
15 16 0 25 -9 33 -31 9 -27 12 -29 20 -14 7 11 6 21 -1 28 -14 14 -14 27 1 27
6 0 20 7 30 17 10 9 21 13 25 10 4 -4 -1 -13 -10 -20 -12 -8 -14 -16 -7 -27 8
-12 12 -11 31 8 20 23 22 23 41 5 16 -14 22 -15 26 -5 3 10 8 7 19 -7 14 -21
40 -31 28 -11 -10 17 5 50 24 50 9 0 23 6 30 13 11 10 13 9 9 -3 -5 -17 47
-64 62 -55 6 3 13 -1 16 -10 4 -8 16 -21 27 -27 21 -11 21 -11 4 15 -22 34
-21 40 2 32 16 -5 18 -2 14 15 -3 11 0 20 6 20 6 0 11 -4 11 -10 0 -5 8 -10
18 -10 14 0 15 -2 2 -10 -8 -5 -12 -11 -9 -15 3 -3 18 5 34 17 l27 21 -6 -21
c-5 -13 -3 -22 3 -22 6 0 11 6 11 13 0 17 72 16 86 -2 9 -12 12 -11 17 4 6 13
14 16 41 11 24 -5 37 -2 46 9 7 9 19 14 27 11 7 -3 13 -1 13 4 0 6 6 10 14 10
9 0 12 7 9 20 -3 11 0 20 6 20 6 0 11 -9 11 -19 0 -15 7 -19 29 -19 36 1 51
-8 51 -33 0 -16 7 -19 43 -19 23 0 48 4 56 9 10 7 19 4 28 -7 10 -14 12 -15
13 -2 0 8 -9 21 -20 28 -25 15 -26 32 -2 32 24 -1 50 -22 45 -37 -3 -9 5 -13
23 -13 22 0 25 3 16 12 -16 16 -15 38 2 38 8 0 16 6 19 13 2 7 8 8 13 3 5 -5
4 -11 -3 -13 -24 -9 -13 -23 12 -17 15 4 25 2 25 -5 0 -19 41 -12 59 10 20 25
56 19 66 -11 7 -23 35 -35 35 -15 0 17 35 55 50 55 6 0 11 12 11 28 2 27 2 27
6 2 6 -33 21 -50 39 -43 8 3 23 -4 33 -16 25 -29 32 -26 25 8 -6 27 -4 29 15
24 14 -3 20 -11 17 -19 -6 -15 19 -20 28 -5 7 10 54 2 62 -10 7 -12 34 -11 34
1 0 6 -7 10 -15 10 -8 0 -15 5 -15 10 0 18 26 11 49 -14 15 -16 29 -22 46 -18
29 5 30 8 10 29 -12 12 -13 18 -4 29 14 17 29 9 29 -15 0 -25 28 -47 41 -34 8
8 8 13 0 17 -11 7 -4 36 10 36 5 0 9 -7 9 -16 0 -10 7 -14 22 -12 31 4 32 20
3 62 -14 21 -23 41 -20 44 3 4 9 1 13 -5 4 -6 20 -15 35 -18 25 -7 27 -11 22
-35 -4 -17 -1 -31 6 -36 9 -5 11 -1 7 14 -4 15 -2 22 8 22 17 0 18 22 3 37
-13 13 -4 33 17 33 8 0 14 5 14 10 0 13 -2 13 -36 -5 -16 -8 -35 -15 -42 -15
-21 0 -3 19 32 34 37 15 116 93 116 114 0 7 5 10 10 7 6 -4 10 8 10 29 0 44
-17 56 -30 21 -10 -26 -30 -26 -30 0 0 23 48 51 63 36 16 -16 35 -14 41 7 3 9
5 19 3 22 -1 3 7 17 19 32 19 25 21 38 18 168 -3 189 -6 200 -50 200 -22 0
-37 -6 -40 -15 -4 -8 -10 -15 -15 -15 -5 0 -26 -16 -46 -35 -21 -20 -68 -54
-105 -76 -63 -37 -68 -42 -68 -75 0 -21 -4 -33 -10 -29 -21 13 -8 117 14 109
6 -2 30 32 55 82 24 47 51 94 60 103 10 10 20 24 23 32 3 8 40 32 82 54 52 27
76 45 76 57 0 21 11 23 28 6 9 -9 12 -9 12 0 0 7 -4 12 -8 12 -8 0 -36 60 -33
73 3 20 -18 4 -23 -18 -3 -13 -20 -32 -36 -40 -17 -9 -30 -20 -30 -25 0 -6
-18 -10 -41 -10 -22 0 -38 -4 -34 -9 3 -5 -3 -12 -14 -16 -22 -7 -52 -38 -55
-57 -1 -7 -7 -22 -13 -33 -5 -11 -8 -25 -6 -31 2 -6 -5 -14 -15 -16 -13 -4
-21 -19 -27 -49 l-8 -44 -9 40 c-5 22 -7 92 -3 156 4 75 2 118 -4 120 -16 6
-31 124 -31 244 0 61 -3 134 -6 162 l-7 53 -23 -28 c-13 -15 -24 -35 -24 -44
0 -16 -14 -18 -151 -18 -97 0 -148 4 -144 10 3 6 23 10 45 10 33 0 37 2 33 20
-3 12 2 29 13 42 19 21 19 21 -11 15 -19 -3 -44 1 -70 13 -49 24 -50 24 -66 4z
m-784 -535 c99 -50 182 -154 201 -253 9 -53 -9 -40 -32 22 -17 44 -44 94 -44
80 0 -4 -28 22 -62 57 -73 73 -108 85 -199 66 -112 -23 -226 -107 -269 -199
-14 -28 -29 -52 -33 -52 -13 0 4 92 25 135 38 76 120 147 193 166 57 15 168 4
220 -22z m-2211 0 c75 -35 65 -44 -48 -44 -119 0 -167 -18 -240 -91 -54 -55
-77 -102 -85 -173 -5 -48 -8 -52 -20 -38 -20 25 -25 100 -10 154 18 64 123
173 189 196 66 23 161 21 214 -4z m3187 -378 c7 -209 14 -254 41 -272 6 -4 10
-22 11 -40 l2 -34 -50 1 c-27 0 -61 1 -75 2 -35 3 -150 -5 -250 -17 -87 -10
-540 -3 -539 8 0 3 21 20 47 36 30 19 64 55 94 100 l47 70 114 0 c121 0 118
-1 211 70 10 8 27 38 37 67 l18 53 1 -86 c0 -47 3 -107 6 -133 6 -43 9 -46 36
-46 16 0 42 -7 59 -15 38 -20 114 -34 130 -24 15 9 27 165 28 364 1 107 4 136
13 127 8 -8 14 -85 19 -231z m-2704 123 c2 -6 -8 -14 -22 -16 -28 -6 -27 -6
-19 17 7 17 35 17 41 -1z m1705 -47 c50 -38 59 -68 26 -91 -32 -23 -71 -20
-128 9 -57 29 -66 59 -28 95 33 30 79 26 130 -13z m-2185 -3 c66 -50 28 -134
-61 -134 -38 0 -48 5 -71 32 -22 26 -26 38 -21 67 3 20 13 42 23 48 29 22 93
16 130 -13z m1772 -306 c40 -39 88 -76 106 -84 38 -16 50 -30 34 -40 -18 -10
-1789 -15 -1789 -4 0 5 20 22 43 39 50 34 99 87 122 131 l15 30 498 2 c273 2
587 1 697 -1 l200 -4 74 -69z m1681 -52 c0 -51 -2 -57 -15 -46 -16 13 -19 48
-9 100 10 48 24 17 24 -54z m-77 -243 c-7 -2 -19 -2 -25 0 -7 3 -2 5 12 5 14
0 19 -2 13 -5z m-2465 -10 c-21 -2 -57 -2 -80 0 -24 2 -7 4 37 4 44 0 63 -2
43 -4z m231 3 c-12 -10 -59 -15 -59 -6 0 5 14 10 32 10 17 0 29 -2 27 -4z m46
-6 c3 -5 1 -10 -4 -10 -6 0 -11 5 -11 10 0 6 2 10 4 10 3 0 8 -4 11 -10z
m1795 -10 c0 -5 -4 -10 -10 -10 -5 0 -10 5 -10 10 0 6 5 10 10 10 6 0 10 -4
10 -10z m27 -12 c-3 -8 -6 -5 -6 6 -1 11 2 17 5 13 3 -3 4 -12 1 -19z m-1870
-20 c-3 -8 -6 -5 -6 6 -1 11 2 17 5 13 3 -3 4 -12 1 -19z m2003 12 c0 -5 -7
-10 -15 -10 -8 0 -15 5 -15 10 0 6 7 10 15 10 8 0 15 -4 15 -10z m60 0 c0 -5
-4 -10 -10 -10 -5 0 -10 5 -10 10 0 6 5 10 10 10 6 0 10 -4 10 -10z m-2340
-21 c0 -5 -4 -9 -10 -9 -5 0 -10 7 -10 16 0 8 5 12 10 9 6 -3 10 -10 10 -16z
m570 -8 c19 -16 32 -32 28 -36 -9 -9 -48 17 -48 32 0 7 -9 13 -20 13 -11 0
-20 5 -20 10 0 18 25 10 60 -19z m1142 7 c-12 -12 -35 -1 -27 12 3 5 13 6 21
3 10 -4 12 -9 6 -15z m84 9 c18 7 18 6 2 -11 -16 -15 -20 -16 -33 -3 -8 8 -11
17 -8 21 4 3 10 2 13 -4 4 -6 15 -7 26 -3z m79 3 c3 -5 1 -10 -4 -10 -6 0 -11
5 -11 10 0 6 2 10 4 10 3 0 8 -4 11 -10z m-2975 -21 c0 -5 -4 -9 -10 -9 -5 0
-10 7 -10 16 0 8 5 12 10 9 6 -3 10 -10 10 -16z m192 13 c-8 -5 -10 -16 -5
-28 6 -17 5 -17 -10 -5 -13 10 -15 17 -6 27 6 8 17 14 23 14 7 0 6 -3 -2 -8z
m68 -2 c0 -5 -2 -10 -4 -10 -3 0 -8 5 -11 10 -3 6 -1 10 4 10 6 0 11 -4 11
-10z m272 -12 c-9 -36 -25 -48 -38 -29 -10 13 -7 19 14 33 15 9 28 17 29 17 0
1 -1 -9 -5 -21z m1368 -20 c0 -5 -3 -8 -7 -8 -10 0 -43 32 -43 42 0 11 49 -24
50 -34z m647 36 c-3 -3 -12 -4 -19 -1 -8 3 -5 6 6 6 11 1 17 -2 13 -5z m653
-4 c0 -5 -2 -10 -4 -10 -3 0 -8 5 -11 10 -3 6 -1 10 4 10 6 0 11 -4 11 -10z
m-3160 -15 c0 -8 -7 -15 -15 -15 -13 0 -14 3 -3 15 16 18 18 18 18 0z m1206
-12 c-10 -10 -19 5 -10 18 6 11 8 11 12 0 2 -7 1 -15 -2 -18z m1214 2 c-7 -9
-15 -13 -18 -10 -3 2 1 11 8 20 7 9 15 13 18 10 3 -2 -1 -11 -8 -20z m645 15
c3 -5 1 -10 -4 -10 -6 0 -11 5 -11 10 0 6 2 10 4 10 3 0 8 -4 11 -10z m-445
-4 c0 -3 -4 -8 -10 -11 -5 -3 -10 -1 -10 4 0 6 5 11 10 11 6 0 10 -2 10 -4z
m-2700 -16 c0 -5 -2 -10 -4 -10 -3 0 -8 5 -11 10 -3 6 -1 10 4 10 6 0 11 -4
11 -10z m286 -17 c-7 -7 -26 7 -26 19 0 6 6 6 15 -2 9 -7 13 -15 11 -17z m92
16 c-2 -6 -8 -10 -13 -10 -5 0 -11 4 -13 10 -2 6 4 11 13 11 9 0 15 -5 13 -11z
m92 -5 c0 -8 -4 -12 -10 -9 -5 3 -10 10 -10 16 0 5 5 9 10 9 6 0 10 -7 10 -16z
m590 6 c0 -5 -4 -10 -10 -10 -5 0 -10 5 -10 10 0 6 5 10 10 10 6 0 10 -4 10
-10z m190 0 c0 -5 -4 -10 -10 -10 -5 0 -10 5 -10 10 0 6 5 10 10 10 6 0 10 -4
10 -10z m535 0 c3 -5 -1 -10 -9 -10 -8 0 -18 5 -21 10 -3 6 1 10 9 10 8 0 18
-4 21 -10z m204 -4 c10 -12 8 -13 -8 -9 -12 3 -21 9 -21 14 0 14 16 11 29 -5z
m46 4 c-3 -5 -10 -10 -16 -10 -5 0 -9 5 -9 10 0 6 7 10 16 10 8 0 12 -4 9 -10z
m105 0 c0 -5 -4 -10 -10 -10 -5 0 -10 5 -10 10 0 6 5 10 10 10 6 0 10 -4 10
-10z m46 -17 c-7 -7 -26 7 -26 19 0 6 6 6 15 -2 9 -7 13 -15 11 -17z m174 5
c0 -13 -23 -5 -28 10 -2 7 2 10 12 6 9 -3 16 -11 16 -16z m540 7 c7 -9 11 -18
8 -21 -9 -9 -59 16 -53 26 9 15 31 12 45 -5z m360 5 c0 -5 -2 -10 -4 -10 -3 0
-8 5 -11 10 -3 6 -1 10 4 10 6 0 11 -4 11 -10z m-710 -20 c0 -5 -4 -10 -9 -10
-6 0 -13 5 -16 10 -3 6 1 10 9 10 9 0 16 -4 16 -10z m-2034 -26 c-15 -14 -36
-19 -36 -8 0 11 34 33 42 27 5 -2 2 -11 -6 -19z"/>
<path d="M1960 1747 c0 -21 26 -46 53 -51 12 -3 61 -7 110 -10 l87 -6 0 29 c0
36 -4 38 -142 46 -93 6 -108 5 -108 -8z"/>
<path d="M3193 1743 c9 -2 25 -2 35 0 9 3 1 5 -18 5 -19 0 -27 -2 -17 -5z"/>
<path d="M4965 1729 c-10 -15 3 -25 16 -12 7 7 7 13 1 17 -6 3 -14 1 -17 -5z"/>
<path d="M3871 1487 c58 -49 70 -57 84 -57 24 0 17 14 -14 28 -16 7 -39 22
-51 32 -13 11 -28 20 -34 20 -6 0 1 -11 15 -23z"/>
<path d="M4650 1499 c0 -5 5 -7 10 -4 6 3 10 8 10 11 0 2 -4 4 -10 4 -5 0 -10
-5 -10 -11z"/>
<path d="M5021 1464 c0 -11 3 -14 6 -6 3 7 2 16 -1 19 -3 4 -6 -2 -5 -13z"/>
<path d="M3988 1423 c7 -3 16 -2 19 1 4 3 -2 6 -13 5 -11 0 -14 -3 -6 -6z"/>
<path d="M4870 1280 c0 -5 5 -10 10 -10 6 0 10 5 10 10 0 6 -4 10 -10 10 -5 0
-10 -4 -10 -10z"/>
<path d="M4930 710 c0 -5 5 -10 10 -10 6 0 10 5 10 10 0 6 -4 10 -10 10 -5 0
-10 -4 -10 -10z"/>
<path d="M4978 693 c7 -3 16 -2 19 1 4 3 -2 6 -13 5 -11 0 -14 -3 -6 -6z"/>
<path d="M4885 680 c-3 -5 -14 -10 -23 -10 -9 0 -25 -7 -36 -15 -17 -13 -17
-14 3 -36 26 -28 17 -43 -22 -35 -30 6 -30 6 -12 -14 13 -15 15 -23 6 -33 -6
-8 -8 -17 -4 -20 3 -4 0 -13 -6 -21 -9 -11 -9 -16 0 -21 13 -9 29 12 29 37 0
9 12 31 27 48 18 22 23 34 15 39 -6 4 -13 17 -14 30 -2 19 4 26 31 36 21 6 30
14 24 18 -7 4 -14 3 -18 -3z"/>
<path d="M4950 635 c7 -9 15 -13 17 -11 7 7 -7 26 -19 26 -6 0 -6 -6 2 -15z"/>
<path d="M4905 630 c-3 -5 -1 -10 4 -10 6 0 11 5 11 10 0 6 -2 10 -4 10 -3 0
-8 -4 -11 -10z"/>
<path d="M4875 610 c3 -5 11 -10 16 -10 6 0 7 5 4 10 -3 6 -11 10 -16 10 -6 0
-7 -4 -4 -10z"/>
<path d="M4910 566 c0 -8 5 -18 10 -21 6 -3 10 1 10 9 0 8 -4 18 -10 21 -5 3
-10 -1 -10 -9z"/>
<path d="M4871 534 c0 -11 3 -14 6 -6 3 7 2 16 -1 19 -3 4 -6 -2 -5 -13z"/>
<path d="M4830 502 c0 -5 7 -15 15 -22 12 -10 19 -10 27 -2 14 14 11 17 -19
26 -13 4 -23 3 -23 -2z"/>
<path d="M4237 463 c-4 -3 -7 -12 -7 -20 0 -11 4 -11 20 -1 11 7 20 16 20 20
0 10 -24 10 -33 1z"/>
<path d="M4710 461 c0 -10 30 -24 37 -17 3 3 2 9 -2 15 -8 13 -35 15 -35 2z"/>
<path d="M4890 460 c0 -5 5 -10 10 -10 6 0 10 5 10 10 0 6 -4 10 -10 10 -5 0
-10 -4 -10 -10z"/>
<path d="M4123 433 c9 -9 20 -13 24 -9 4 4 1 11 -7 16 -25 16 -35 11 -17 -7z"/>
<path d="M4291 433 c-10 -11 -10 -18 -2 -26 15 -15 31 3 22 24 -5 15 -8 15
-20 2z"/>
<path d="M4420 439 c0 -5 4 -7 10 -4 5 3 17 -3 27 -14 21 -25 37 -17 20 9 -12
21 -57 28 -57 9z"/>
<path d="M2230 431 c0 -5 6 -16 13 -23 8 -7 16 -20 19 -28 3 -8 5 2 5 23 -1
29 -5 37 -19 37 -10 0 -18 -4 -18 -9z"/>
<path d="M3145 431 c-6 -11 9 -23 19 -14 9 9 7 23 -3 23 -6 0 -12 -4 -16 -9z"/>
<path d="M3680 430 c0 -5 7 -10 16 -10 8 0 12 5 9 10 -3 6 -10 10 -16 10 -5 0
-9 -4 -9 -10z"/>
<path d="M4520 430 c0 -5 5 -10 11 -10 5 0 7 5 4 10 -3 6 -8 10 -11 10 -2 0
-4 -4 -4 -10z"/>
<path d="M4785 430 c-3 -5 -1 -10 4 -10 6 0 11 5 11 10 0 6 -2 10 -4 10 -3 0
-8 -4 -11 -10z"/>
<path d="M1655 417 c-4 -10 -5 -21 -1 -24 10 -10 18 4 13 24 -4 17 -4 17 -12
0z"/>
<path d="M4010 416 c0 -8 -6 -16 -12 -19 -10 -4 -10 -7 0 -18 10 -11 12 -10
12 4 0 14 6 16 28 11 27 -7 27 -7 8 15 -22 24 -36 27 -36 7z"/>
<path d="M4086 422 c-3 -6 -1 -14 5 -17 15 -10 25 3 12 16 -7 7 -13 7 -17 1z"/>
<path d="M910 405 c7 -9 15 -13 17 -11 7 7 -7 26 -19 26 -6 0 -6 -6 2 -15z"/>
<path d="M1851 406 c-8 -9 -12 -17 -10 -19 46 -26 52 -28 62 -18 8 8 5 11 -10
11 -14 0 -23 7 -25 22 -3 20 -4 20 -17 4z"/>
<path d="M2040 406 c0 -8 -6 -16 -12 -19 -8 -2 -9 -8 -4 -13 5 -5 11 -4 13 4
3 6 11 12 19 12 8 0 14 7 14 15 0 8 -7 15 -15 15 -8 0 -15 -6 -15 -14z"/>
<path d="M3627 413 c-13 -13 -7 -21 13 -16 11 3 20 9 20 14 0 10 -24 12 -33 2z"/>
<path d="M3714 410 c-12 -5 -25 -14 -29 -20 -10 -16 34 -2 53 16 15 16 7 17
-24 4z"/>
<path d="M4396 411 c-8 -13 4 -42 15 -35 12 7 12 44 0 44 -6 0 -12 -4 -15 -9z"/>
<path d="M2125 400 c-3 -5 -1 -10 4 -10 6 0 11 5 11 10 0 6 -2 10 -4 10 -3 0
-8 -4 -11 -10z"/>
<path d="M2190 400 c0 -5 5 -10 11 -10 5 0 7 5 4 10 -3 6 -8 10 -11 10 -2 0
-4 -4 -4 -10z"/>
<path d="M4330 400 c0 -5 7 -10 16 -10 8 0 12 5 9 10 -3 6 -10 10 -16 10 -5 0
-9 -4 -9 -10z"/>
<path d="M1343 385 c-3 -9 -3 -19 1 -22 3 -4 6 1 6 10 0 8 6 18 13 20 9 4 9 6
-1 6 -7 1 -15 -6 -19 -14z"/>
<path d="M1810 385 c0 -8 4 -15 10 -15 5 0 7 7 4 15 -4 8 -8 15 -10 15 -2 0
-4 -7 -4 -15z"/>
<path d="M3035 390 c3 -5 8 -10 11 -10 2 0 4 5 4 10 0 6 -5 10 -11 10 -5 0 -7
-4 -4 -10z"/>
<path d="M3175 390 c-4 -6 -2 -17 4 -23 15 -15 25 -2 13 19 -7 12 -11 13 -17
4z"/>
<path d="M3923 393 c9 -2 23 -2 30 0 6 3 -1 5 -18 5 -16 0 -22 -2 -12 -5z"/>
<path d="M1220 380 c0 -5 5 -10 10 -10 6 0 10 5 10 10 0 6 -4 10 -10 10 -5 0
-10 -4 -10 -10z"/>
<path d="M1700 379 c0 -5 5 -7 10 -4 6 3 10 8 10 11 0 2 -4 4 -10 4 -5 0 -10
-5 -10 -11z"/>
<path d="M2090 380 c0 -5 5 -10 10 -10 6 0 10 5 10 10 0 6 -4 10 -10 10 -5 0
-10 -4 -10 -10z"/>
<path d="M2223 374 c-15 -16 -16 -24 -4 -24 8 0 24 30 19 35 -2 2 -9 -3 -15
-11z"/>
<path d="M3210 380 c0 -5 5 -10 11 -10 5 0 7 5 4 10 -3 6 -8 10 -11 10 -2 0
-4 -4 -4 -10z"/>
<path d="M3380 374 c0 -8 5 -12 10 -9 6 3 10 10 10 16 0 5 -4 9 -10 9 -5 0
-10 -7 -10 -16z"/>
<path d="M3440 375 c-7 -9 -11 -18 -8 -20 3 -3 11 1 18 10 7 9 11 18 8 20 -3
3 -11 -1 -18 -10z"/>
<path d="M3875 381 c-3 -5 -1 -12 5 -16 5 -3 10 1 10 9 0 18 -6 21 -15 7z"/>
<path d="M1626 371 c-4 -7 -5 -15 -2 -18 9 -9 19 4 14 18 -4 11 -6 11 -12 0z"/>
<path d="M3340 370 c0 -5 5 -10 11 -10 5 0 7 5 4 10 -3 6 -8 10 -11 10 -2 0
-4 -4 -4 -10z"/>
<path d="M4220 370 c0 -6 7 -10 15 -10 8 0 15 2 15 4 0 2 -7 6 -15 10 -8 3
-15 1 -15 -4z"/>
<path d="M1385 360 c4 -6 11 -8 16 -5 14 9 11 15 -7 15 -8 0 -12 -5 -9 -10z"/>
<path d="M1531 361 c-10 -6 -10 -10 -1 -16 13 -8 24 -1 19 14 -3 6 -10 7 -18
2z"/>
<path d="M2825 360 c3 -5 10 -10 16 -10 5 0 9 5 9 10 0 6 -7 10 -16 10 -8 0
-12 -4 -9 -10z"/>
<path d="M4315 360 c3 -5 8 -10 11 -10 2 0 4 5 4 10 0 6 -5 10 -11 10 -5 0 -7
-4 -4 -10z"/>
<path d="M4445 360 c-3 -5 -1 -10 4 -10 6 0 11 5 11 10 0 6 -2 10 -4 10 -3 0
-8 -4 -11 -10z"/>
<path d="M2650 350 c0 -5 5 -10 11 -10 5 0 7 5 4 10 -3 6 -8 10 -11 10 -2 0
-4 -4 -4 -10z"/>
<path d="M3245 350 c3 -5 8 -10 11 -10 2 0 4 5 4 10 0 6 -5 10 -11 10 -5 0 -7
-4 -4 -10z"/>
<path d="M1195 340 c3 -5 11 -10 16 -10 6 0 7 5 4 10 -3 6 -11 10 -16 10 -6 0
-7 -4 -4 -10z"/>
<path d="M1910 340 c0 -5 7 -10 15 -10 8 0 15 5 15 10 0 6 -7 10 -15 10 -8 0
-15 -4 -15 -10z"/>
<path d="M1965 340 c-3 -5 1 -10 10 -10 9 0 13 5 10 10 -3 6 -8 10 -10 10 -2
0 -7 -4 -10 -10z"/>
<path d="M1490 320 c0 -5 5 -10 10 -10 6 0 10 5 10 10 0 6 -4 10 -10 10 -5 0
-10 -4 -10 -10z"/>
<path d="M2160 319 c0 -5 5 -7 10 -4 6 3 10 8 10 11 0 2 -4 4 -10 4 -5 0 -10
-5 -10 -11z"/>
</g>
</svg>
