<?xml version="1.0" standalone="no"?>
<!DOCTYPE svg PUBLIC "-//W3C//DTD SVG 20010904//EN"
 "http://www.w3.org/TR/2001/REC-SVG-20010904/DTD/svg10.dtd">
<svg version="1.0" xmlns="http://www.w3.org/2000/svg"
 width="524.000000pt" height="546.000000pt" viewBox="0 0 524.000000 546.000000"
 preserveAspectRatio="xMidYMid meet">

<g transform="translate(0.000000,546.000000) scale(0.100000,-0.100000)"
fill="#000000" stroke="none">
<path d="M1328 4326 c-47 -13 -117 -41 -155 -61 -79 -45 -179 -137 -224 -206
-17 -27 -35 -46 -40 -44 -13 9 -47 -73 -57 -139 -22 -142 70 -405 182 -520 42
-43 133 -106 154 -106 7 0 12 -4 12 -9 0 -5 21 -12 46 -16 37 -5 54 -2 92 18
26 13 61 27 77 31 40 9 53 -13 61 -103 6 -64 5 -69 -15 -76 -22 -7 -29 -25
-10 -25 5 0 7 -5 4 -10 -4 -6 -14 -10 -23 -8 -10 1 -23 -1 -30 -6 -16 -10 -42
11 -42 34 0 32 -37 54 -88 51 -27 -1 -68 5 -93 13 -24 9 -51 16 -59 16 -9 0
-33 9 -55 20 -38 19 -95 27 -95 13 0 -3 25 -30 55 -59 38 -37 73 -60 115 -75
33 -12 63 -26 66 -30 3 -5 12 -9 20 -9 29 0 154 -91 180 -130 15 -23 35 -40
45 -40 11 0 19 -6 19 -14 0 -19 61 -27 80 -11 11 10 20 11 34 3 13 -7 20 -7
26 2 6 9 10 9 16 -2 5 -9 19 -19 32 -22 21 -7 22 -5 16 18 -7 30 2 33 26 11
16 -14 18 -14 23 0 4 8 2 15 -3 15 -6 0 -10 8 -10 17 0 15 1 15 13 -1 12 -17
14 -17 20 -2 8 21 36 21 53 -1 7 -10 16 -14 20 -10 5 4 4 11 -2 15 -5 4 -7 20
-3 37 4 19 7 23 8 10 2 -35 17 -51 34 -36 13 10 17 9 26 -6 10 -17 10 -17 11
2 0 12 -5 26 -12 33 -7 7 -9 12 -5 12 10 0 64 -55 70 -72 3 -9 7 -8 12 6 6 14
2 24 -17 38 -18 12 -24 25 -21 38 6 23 23 27 23 5 0 -19 11 -19 35 -2 14 11
17 23 12 58 -3 24 -3 36 0 27 6 -23 12 -22 43 2 14 11 33 20 42 20 9 0 19 6
21 13 4 9 8 9 15 -1 7 -11 11 -7 16 13 5 21 12 26 26 22 21 -5 27 7 9 19 -6 3
-16 1 -22 -5 -18 -18 -27 -13 -27 15 0 22 2 25 15 14 12 -10 15 -10 16 1 3 29
4 34 12 37 19 6 24 0 19 -23 -6 -33 16 -33 24 1 6 22 11 25 33 19 14 -3 21 -2
15 2 -19 14 -36 53 -23 53 8 0 10 13 6 40 l-5 39 24 -16 c23 -14 24 -14 24 6
0 11 -6 20 -12 18 -7 -1 -14 8 -16 21 -2 16 2 22 15 22 21 1 54 24 52 36 -1 5
2 19 6 32 8 25 35 30 35 7 0 -8 5 -15 10 -15 19 0 10 27 -15 40 -19 10 -22 17
-15 31 6 10 10 30 10 44 0 36 21 27 35 -16 l12 -34 5 28 c4 20 0 34 -13 46
-12 11 -15 21 -9 31 5 9 5 19 -2 27 -8 10 -6 13 6 13 17 0 21 11 8 26 -5 5
-14 41 -21 79 -14 79 -39 145 -56 145 -6 0 -17 12 -24 28 -8 15 -18 36 -24 47
-6 11 -21 40 -34 65 -13 25 -33 52 -44 62 -10 9 -19 21 -19 26 0 16 -129 150
-151 157 -11 4 -22 5 -24 3 -3 -2 13 -30 35 -61 51 -76 85 -186 95 -312 6 -64
8 -61 -62 -125 -45 -40 -58 -20 -73 108 -15 137 -40 191 -129 282 -115 117
-242 183 -376 194 -45 4 -82 0 -147 -18z m243 -129 c127 -39 244 -130 296
-230 24 -45 28 -67 31 -164 5 -125 -7 -174 -59 -259 -28 -46 -28 -47 -3 -19
14 17 46 61 72 100 25 38 48 63 50 57 3 -9 8 -10 17 -2 9 7 16 6 25 -5 20 -24
5 -94 -41 -184 -31 -62 -38 -85 -30 -95 8 -9 8 -22 1 -40 -11 -29 -21 -32 -50
-14 -16 10 -24 9 -47 -10 -82 -65 -276 -168 -294 -156 -17 10 -32 87 -20 106
9 15 7 20 -12 27 -12 5 -29 16 -36 25 -17 20 -55 21 -70 2 -47 -56 -186 -2
-287 111 -99 110 -119 170 -112 322 4 87 9 108 40 173 63 130 133 188 299 247
64 23 168 26 230 8z m719 -772 c0 -8 -4 -15 -10 -15 -5 0 -10 7 -10 15 0 8 5
15 10 15 6 0 10 -7 10 -15z m-10 -39 c0 -11 -19 -15 -25 -6 -3 5 1 10 9 10 9
0 16 -2 16 -4z m-110 -126 c0 -5 -2 -10 -4 -10 -3 0 -8 5 -11 10 -3 6 -1 10 4
10 6 0 11 -4 11 -10z m17 -72 c-3 -7 -5 -2 -5 12 0 14 2 19 5 13 2 -7 2 -19 0
-25z m-87 -108 c0 -5 -4 -10 -10 -10 -5 0 -10 5 -10 10 0 6 5 10 10 10 6 0 10
-4 10 -10z m-32 -25 c-3 -3 -9 2 -12 12 -6 14 -5 15 5 6 7 -7 10 -15 7 -18z
m-99 -98 c0 -21 -1 -21 -9 -2 -12 28 -12 37 0 30 6 -3 10 -16 9 -28z"/>
<path d="M1507 3886 c-3 -8 -18 -14 -34 -14 -41 1 -66 -15 -110 -69 -21 -27
-46 -54 -56 -62 -18 -13 -18 -14 1 -35 10 -11 22 -26 26 -33 9 -17 -4 -43 -22
-43 -13 0 -11 -6 9 -26 31 -30 132 -51 194 -40 48 9 121 76 111 103 -4 9 -3
37 1 62 l8 46 6 -50 6 -50 1 61 c2 49 -2 64 -18 79 -11 10 -20 13 -20 7 0 -7
-4 -12 -10 -12 -5 0 -10 6 -10 13 0 17 -53 77 -67 77 -6 0 -13 -6 -16 -14z
m-49 -198 c-4 -29 -54 -46 -74 -26 -25 25 -7 48 38 48 35 0 39 -3 36 -22z"/>
<path d="M1736 3419 c-31 -32 -130 -109 -156 -121 -10 -4 -11 -7 -2 -7 14 -1
95 48 100 60 2 5 10 9 18 9 14 0 57 43 77 76 14 25 -7 15 -37 -17z"/>
<path d="M4910 4220 c0 -5 5 -10 10 -10 6 0 10 5 10 10 0 6 -4 10 -10 10 -5 0
-10 -4 -10 -10z"/>
<path d="M4965 4180 c3 -5 10 -10 16 -10 5 0 9 5 9 10 0 6 -7 10 -16 10 -8 0
-12 -4 -9 -10z"/>
<path d="M4910 4160 c0 -5 5 -10 10 -10 6 0 10 5 10 10 0 6 -4 10 -10 10 -5 0
-10 -4 -10 -10z"/>
<path d="M4905 4111 c-3 -5 -1 -12 5 -16 5 -3 10 1 10 9 0 18 -6 21 -15 7z"/>
<path d="M5008 4113 c7 -3 16 -2 19 1 4 3 -2 6 -13 5 -11 0 -14 -3 -6 -6z"/>
<path d="M4254 4073 c-14 -83 -20 -98 -40 -95 -10 2 -99 3 -198 4 -157 0 -181
3 -196 18 -30 30 -87 43 -167 38 -91 -6 -125 -28 -42 -28 29 0 84 -3 121 -6
60 -6 66 -9 58 -24 -13 -24 -62 -40 -125 -40 -72 0 -158 -17 -243 -48 -65 -24
-70 -28 -45 -32 35 -6 38 -34 3 -38 -165 -17 -302 -86 -336 -169 -8 -18 -14
-61 -14 -96 0 -51 5 -69 24 -96 50 -68 119 -101 206 -100 42 0 48 4 93 57 27
32 52 64 57 71 6 11 37 14 140 12 168 -3 185 -10 232 -98 15 -27 15 -33 2 -43
-12 -11 -12 -14 3 -25 9 -7 25 -10 36 -7 13 3 18 1 14 -5 -7 -11 15 -35 29
-32 5 1 16 1 24 0 12 -1 10 -5 -5 -17 -17 -13 -18 -16 -5 -24 10 -7 11 -10 3
-10 -7 0 -13 -7 -13 -15 0 -21 -9 -19 -31 8 l-18 22 -1 -21 c0 -32 -22 -45
-85 -51 -40 -4 -60 -11 -68 -24 -7 -11 -16 -19 -21 -19 -5 0 -17 -6 -25 -14
-9 -8 -22 -16 -30 -18 -17 -4 -87 -73 -101 -99 -7 -11 -16 -16 -27 -12 -11 4
-14 3 -9 -6 10 -16 -64 -13 -163 6 -40 8 -76 12 -79 9 -6 -7 60 -66 68 -61 4
2 13 -11 20 -30 8 -19 16 -35 20 -35 3 0 30 -15 59 -34 29 -19 59 -32 67 -29
8 3 14 0 14 -7 0 -7 8 -9 20 -5 21 7 29 -10 8 -18 -7 -2 -10 -8 -6 -12 11 -11
28 4 28 26 0 10 5 19 11 19 8 0 9 -11 5 -32 -4 -21 -3 -28 3 -19 12 18 45 6
37 -14 -3 -9 1 -15 10 -15 11 0 14 6 10 16 -4 11 -1 14 12 12 9 -2 16 -10 15
-16 -2 -7 2 -12 7 -12 6 0 10 5 10 12 0 17 17 -3 23 -27 5 -19 5 -19 12 2 4
13 12 19 21 16 8 -3 14 1 14 11 0 9 -5 16 -11 16 -5 0 -8 4 -5 9 3 5 22 9 42
9 28 0 37 -5 45 -25 7 -19 13 -23 32 -17 12 3 24 11 25 15 2 5 10 9 17 9 7 0
16 6 18 13 4 8 12 4 26 -13 11 -14 21 -19 21 -12 0 6 9 12 20 12 11 0 19 -5
17 -12 -1 -6 7 -13 18 -15 11 -3 16 -1 10 4 -6 4 -16 21 -23 37 l-13 29 24
-23 c26 -25 94 -43 70 -19 -18 18 -16 30 2 23 11 -5 15 1 15 25 0 17 5 31 11
31 7 0 9 -11 6 -29 -4 -20 -2 -31 8 -35 7 -2 16 0 18 7 3 9 7 9 18 0 19 -15
69 -12 69 5 0 8 6 12 13 9 6 -2 10 -13 9 -23 -3 -14 -1 -16 8 -8 6 7 21 9 32
6 15 -4 17 -7 6 -14 -10 -7 -8 -8 7 -7 11 1 27 1 35 0 13 -1 13 -2 0 -11 -20
-12 -9 -21 18 -13 14 3 22 12 20 22 -2 9 8 28 20 41 13 14 29 36 37 50 30 59
28 64 -33 142 -53 66 -58 76 -43 87 14 10 13 11 -6 7 -13 -2 -23 0 -23 5 0 5
14 9 30 9 20 0 30 5 30 15 0 9 -6 12 -17 8 -13 -5 -15 -2 -10 11 4 10 7 22 7
27 0 14 27 11 34 -3 3 -7 4 4 1 25 -4 22 -2 37 5 37 5 0 10 6 10 14 0 8 10 16
23 18 12 2 22 8 22 15 0 6 3 15 8 19 4 4 7 18 7 30 0 13 5 26 10 29 7 4 7 13
0 26 -6 11 -8 23 -5 28 6 11 45 2 45 -10 0 -5 4 -9 10 -9 6 0 6 9 0 26 -15 40
-12 54 13 54 16 0 18 3 8 9 -9 6 -11 18 -7 34 4 16 1 29 -9 37 -8 7 -15 20
-16 29 0 10 -2 11 -6 4 -7 -18 -23 -16 -23 2 0 8 5 15 10 15 6 0 10 7 10 16 0
13 -3 14 -14 5 -10 -8 -16 -9 -21 -1 -3 5 -1 10 4 10 6 0 11 9 11 20 0 11 -6
20 -12 20 -9 0 -13 17 -12 55 0 43 -3 55 -13 51 -15 -6 -18 10 -4 19 11 6 3
75 -10 90 -5 5 -9 21 -9 36 0 14 -8 37 -18 50 -10 13 -23 37 -30 52 -14 32
-63 97 -74 97 -4 0 -10 -17 -14 -37z m-298 -220 c10 -10 26 -27 34 -37 14 -18
14 -18 -5 -8 -26 15 -65 49 -65 56 0 11 17 6 36 -11z m114 -129 c0 -14 -3 -14
-15 -4 -8 7 -15 14 -15 16 0 2 7 4 15 4 8 0 15 -7 15 -16z m406 -212 c-4 -3
-14 2 -24 12 -16 18 -16 18 6 6 13 -6 21 -14 18 -18z m-6 -32 c0 -5 -4 -10
-10 -10 -5 0 -10 5 -10 10 0 6 5 10 10 10 6 0 10 -4 10 -10z m-70 -200 c0 -5
-7 -10 -16 -10 -8 0 -12 5 -9 10 3 6 10 10 16 10 5 0 9 -4 9 -10z m-100 -99
c-1 -13 -3 -13 -15 3 -19 26 -19 42 0 26 8 -7 15 -20 15 -29z m-442 -361 c7
-11 10 -20 6 -20 -7 0 -34 27 -34 34 0 13 16 5 28 -14z m55 -10 c3 -11 1 -23
-4 -26 -5 -3 -9 6 -9 20 0 31 6 34 13 6z m231 -1 c-8 -14 -24 -10 -24 6 0 9 6
12 15 9 8 -4 12 -10 9 -15z m-384 7 c0 -3 -4 -8 -10 -11 -5 -3 -10 -1 -10 4 0
6 5 11 10 11 6 0 10 -2 10 -4z m40 -26 c0 -5 -4 -10 -10 -10 -5 0 -10 5 -10
10 0 6 5 10 10 10 6 0 10 -4 10 -10z"/>
<path d="M4917 4063 c-4 -3 -7 -11 -7 -17 0 -6 5 -5 12 2 6 6 9 14 7 17 -3 3
-9 2 -12 -2z"/>
<path d="M4910 3960 c0 -5 5 -10 11 -10 5 0 7 5 4 10 -3 6 -8 10 -11 10 -2 0
-4 -4 -4 -10z"/>
<path d="M4976 3956 c10 -8 21 -12 24 -10 5 6 -21 24 -34 24 -6 0 -1 -6 10
-14z"/>
<path d="M4910 3865 c0 -16 16 -20 24 -6 3 5 -1 11 -9 15 -9 3 -15 0 -15 -9z"/>
<path d="M4900 3795 c0 -9 5 -15 11 -13 6 2 11 8 11 13 0 5 -5 11 -11 13 -6 2
-11 -4 -11 -13z"/>
<path d="M4906 3718 c2 -54 1 -53 19 -38 11 9 12 16 5 26 -6 7 -10 20 -8 30 2
9 -2 19 -8 21 -6 2 -10 -13 -8 -39z"/>
<path d="M4950 3705 c0 -8 4 -15 9 -15 5 0 18 -3 28 -7 17 -6 17 -5 -1 15 -22
26 -36 28 -36 7z"/>
<path d="M4900 3650 c0 -5 12 -10 28 -10 21 0 24 2 12 10 -20 13 -40 13 -40 0z"/>
<path d="M4480 3640 c0 -5 5 -10 10 -10 6 0 10 5 10 10 0 6 -4 10 -10 10 -5 0
-10 -4 -10 -10z"/>
<path d="M4991 3614 c0 -11 3 -14 6 -6 3 7 2 16 -1 19 -3 4 -6 -2 -5 -13z"/>
<path d="M4910 3558 c0 -11 12 -10 30 2 12 7 10 9 -8 7 -12 0 -22 -5 -22 -9z"/>
<path d="M4907 3500 c-3 -11 -1 -23 4 -26 5 -3 9 -1 9 5 0 5 3 16 6 25 3 9 2
16 -4 16 -5 0 -12 -9 -15 -20z"/>
<path d="M2360 3459 c0 -5 5 -7 10 -4 6 3 10 8 10 11 0 2 -4 4 -10 4 -5 0 -10
-5 -10 -11z"/>
<path d="M4910 3424 c0 -8 5 -12 10 -9 6 3 10 10 10 16 0 5 -4 9 -10 9 -5 0
-10 -7 -10 -16z"/>
<path d="M4980 3390 c20 -13 33 -13 25 0 -3 6 -14 10 -23 10 -15 0 -15 -2 -2
-10z"/>
<path d="M4902 3376 c1 -10 8 -17 13 -17 15 1 12 24 -3 29 -9 3 -13 -2 -10
-12z"/>
<path d="M4905 3310 c-3 -5 -2 -10 4 -10 5 0 13 5 16 10 3 6 2 10 -4 10 -5 0
-13 -4 -16 -10z"/>
<path d="M4970 3300 c0 -5 5 -10 11 -10 5 0 7 5 4 10 -3 6 -8 10 -11 10 -2 0
-4 -4 -4 -10z"/>
<path d="M4910 3280 c0 -5 5 -10 11 -10 5 0 7 5 4 10 -3 6 -8 10 -11 10 -2 0
-4 -4 -4 -10z"/>
<path d="M4905 3250 c-3 -5 -1 -10 4 -10 6 0 11 5 11 10 0 6 -2 10 -4 10 -3 0
-8 -4 -11 -10z"/>
<path d="M4932 3248 c5 -15 28 -23 28 -10 0 5 -7 13 -16 16 -10 4 -14 1 -12
-6z"/>
<path d="M2255 3220 c-3 -5 -1 -10 4 -10 6 0 11 5 11 10 0 6 -2 10 -4 10 -3 0
-8 -4 -11 -10z"/>
<path d="M4377 3210 c-3 -11 -2 -20 3 -20 12 0 31 26 23 33 -11 12 -21 7 -26
-13z"/>
<path d="M4905 3210 c-8 -13 15 -24 27 -12 6 6 4 11 -6 15 -8 3 -18 2 -21 -3z"/>
<path d="M4970 3194 c0 -8 5 -12 10 -9 6 4 8 11 5 16 -9 14 -15 11 -15 -7z"/>
<path d="M4910 3151 c0 -25 6 -27 13 -6 4 8 2 17 -3 20 -6 4 -10 -3 -10 -14z"/>
<path d="M4980 3125 c7 -9 15 -13 17 -11 7 7 -7 26 -19 26 -6 0 -6 -6 2 -15z"/>
<path d="M4910 3094 c0 -8 5 -12 10 -9 6 3 10 10 10 16 0 5 -4 9 -10 9 -5 0
-10 -7 -10 -16z"/>
<path d="M5030 3089 c0 -5 5 -7 10 -4 6 3 10 8 10 11 0 2 -4 4 -10 4 -5 0 -10
-5 -10 -11z"/>
<path d="M2167 3053 c-4 -3 -7 -13 -7 -20 0 -12 3 -12 15 1 8 8 15 17 15 20 0
8 -15 7 -23 -1z"/>
<path d="M4948 3015 c-3 -14 -1 -25 3 -25 5 0 9 11 9 25 0 14 -2 25 -4 25 -2
0 -6 -11 -8 -25z"/>
<path d="M4990 3025 c0 -9 6 -12 15 -9 8 4 15 7 15 9 0 2 -7 5 -15 9 -9 3 -15
0 -15 -9z"/>
<path d="M2060 3010 c0 -13 11 -13 30 0 12 8 11 10 -7 10 -13 0 -23 -4 -23
-10z"/>
<path d="M2141 2994 c0 -11 3 -14 6 -6 3 7 2 16 -1 19 -3 4 -6 -2 -5 -13z"/>
<path d="M2025 2990 c3 -5 8 -10 11 -10 2 0 4 5 4 10 0 6 -5 10 -11 10 -5 0
-7 -4 -4 -10z"/>
<path d="M4903 2947 c-3 -5 -3 -10 -1 -12 7 -7 48 7 48 16 0 10 -40 7 -47 -4z"/>
<path d="M4970 2930 c0 -5 5 -10 11 -10 5 0 7 5 4 10 -3 6 -8 10 -11 10 -2 0
-4 -4 -4 -10z"/>
<path d="M1980 2905 c0 -9 6 -12 15 -9 8 4 15 10 15 15 0 5 -7 9 -15 9 -8 0
-15 -7 -15 -15z"/>
<path d="M4910 2889 c0 -12 6 -16 20 -12 11 3 20 11 20 17 0 6 -9 12 -20 12
-12 0 -20 -7 -20 -17z"/>
<path d="M1751 2856 c-11 -13 -11 -20 -3 -28 8 -8 13 -7 18 5 10 27 0 41 -15
23z"/>
<path d="M4923 2852 c-13 -2 -23 -8 -23 -13 0 -15 30 -23 42 -11 15 15 6 27
-19 24z"/>
<path d="M1715 2790 c3 -5 8 -10 11 -10 2 0 4 5 4 10 0 6 -5 10 -11 10 -5 0
-7 -4 -4 -10z"/>
<path d="M4910 2780 c0 -5 5 -10 10 -10 6 0 10 5 10 10 0 6 -4 10 -10 10 -5 0
-10 -4 -10 -10z"/>
<path d="M3860 2755 c-10 -12 -10 -15 4 -15 9 0 16 7 16 15 0 8 -2 15 -4 15
-2 0 -9 -7 -16 -15z"/>
<path d="M4000 2730 c0 -5 5 -10 11 -10 5 0 7 5 4 10 -3 6 -8 10 -11 10 -2 0
-4 -4 -4 -10z"/>
<path d="M4945 2710 c3 -5 8 -10 11 -10 2 0 4 5 4 10 0 6 -5 10 -11 10 -5 0
-7 -4 -4 -10z"/>
<path d="M4915 2660 c-3 -5 -1 -10 4 -10 6 0 11 5 11 10 0 6 -2 10 -4 10 -3 0
-8 -4 -11 -10z"/>
<path d="M2178 2479 c-10 -7 -6 -86 9 -163 l6 -29 -94 7 c-173 12 -222 18
-208 27 8 5 37 9 64 9 70 0 80 9 81 72 1 75 -12 82 -129 73 -86 -6 -197 -35
-224 -57 -7 -5 -21 -7 -33 -3 -11 4 -20 2 -20 -4 0 -6 5 -11 11 -11 6 0 4 -7
-5 -15 -8 -8 -17 -15 -20 -15 -4 0 -48 -31 -100 -69 -76 -57 -98 -79 -120
-122 -31 -62 -34 -115 -8 -123 9 -2 226 -8 482 -11 265 -4 543 -13 645 -22 99
-8 249 -17 333 -20 84 -3 155 -10 158 -14 6 -11 2 -11 -187 -9 -102 1 -164 -3
-205 -14 -44 -11 -99 -14 -222 -12 -89 2 -165 0 -168 -5 -7 -12 -515 -11 -765
1 -112 6 -252 18 -312 26 -101 15 -210 14 -273 -2 -25 -6 -25 -6 -5 -25 23
-22 36 -77 26 -109 -11 -36 -69 -54 -177 -54 -95 -1 -98 -2 -98 -24 0 -13 7
-37 16 -54 19 -37 13 -115 -19 -228 -30 -110 -33 -179 -9 -232 47 -106 113
-148 244 -156 83 -4 87 -6 96 -31 15 -43 96 -135 156 -176 31 -21 56 -42 56
-46 0 -17 -72 -21 -274 -14 -265 9 -566 -1 -566 -20 0 -7 6 -17 12 -23 9 -7
367 -12 1066 -16 580 -3 1059 -9 1064 -12 6 -4 143 -7 305 -8 187 -1 296 -5
301 -11 4 -6 19 -16 33 -22 19 -8 28 -22 33 -47 4 -22 13 -36 22 -36 11 0 10
-5 -6 -22 -11 -12 -20 -28 -20 -35 0 -7 -4 -13 -10 -13 -5 0 -10 5 -10 10 0 7
-6 7 -18 1 -62 -33 -108 -40 -230 -35 -86 4 -131 10 -147 20 -23 15 -67 11
-92 -8 -20 -16 -72 -27 -75 -16 -3 7 -27 6 -77 -2 -71 -13 -73 -14 -67 -40 3
-15 0 -32 -6 -38 -8 -8 -8 -16 2 -27 12 -15 14 -15 22 -1 5 9 7 20 3 25 -3 5
7 11 22 13 23 2 27 7 25 26 -4 29 12 28 32 -3 18 -28 36 -33 36 -10 0 8 5 15
10 15 6 0 10 -7 10 -16 0 -14 2 -14 16 -3 14 12 14 14 -2 26 -17 12 -17 13 3
13 33 0 40 -51 9 -72 -6 -4 -7 -10 -3 -15 5 -4 12 -1 17 7 8 12 13 13 30 3 24
-16 30 -16 30 -3 0 6 -9 14 -20 18 -20 8 -20 8 6 32 25 24 26 24 20 4 -7 -23
10 -36 52 -39 15 -1 22 5 22 17 0 21 16 24 23 4 8 -21 47 -8 47 15 0 11 5 19
11 19 8 0 10 -16 6 -51 -5 -37 -3 -49 6 -46 7 2 11 16 9 30 -3 21 1 27 16 27
11 0 27 10 35 22 l16 23 0 -23 c1 -16 -6 -26 -19 -29 -22 -6 -26 -18 -10 -28
5 -3 25 5 42 18 18 14 39 22 46 20 7 -3 12 5 12 21 0 18 4 24 15 20 22 -9 18
-41 -6 -54 -17 -10 -18 -14 -8 -27 12 -13 14 -13 26 3 12 16 14 16 31 1 20
-18 52 -23 52 -8 0 5 -14 14 -31 20 -17 6 -28 15 -24 21 7 11 53 3 73 -13 10
-8 16 -7 23 4 13 20 11 29 -6 29 -8 0 -15 7 -15 15 0 21 16 19 40 -5 24 -24
26 -50 4 -50 -18 0 -15 -31 4 -38 7 -2 10 2 6 12 -4 11 -1 16 11 16 9 0 13 5
9 11 -8 14 14 29 33 22 18 -7 16 -20 -8 -44 -14 -14 -18 -24 -11 -31 6 -6 16
4 28 30 15 31 26 41 49 45 30 4 64 -22 65 -51 0 -9 11 -13 36 -10 30 2 40 -2
60 -27 13 -16 27 -26 31 -21 4 4 -2 15 -14 23 -26 17 -31 38 -8 29 8 -3 15 -2
15 2 0 17 -25 32 -53 32 -19 0 -27 4 -24 13 2 6 14 11 26 9 12 -2 29 2 37 8
11 10 14 9 14 -3 0 -8 8 -21 17 -28 15 -12 16 -12 10 4 -5 13 -1 17 14 17 12
0 17 -4 14 -11 -8 -12 23 -49 42 -49 7 0 13 -4 13 -10 0 -5 9 -10 20 -10 11 0
20 6 20 14 0 8 9 17 19 21 11 3 26 19 33 35 15 35 28 38 35 10 3 -11 12 -20
20 -20 8 0 11 5 8 10 -3 6 1 10 9 10 9 0 16 6 16 14 0 10 7 12 22 8 13 -3 17
-7 10 -10 -21 -7 -35 -54 -20 -64 21 -13 26 -9 21 12 -6 24 4 26 28 4 17 -15
19 -15 35 1 9 9 28 23 41 32 22 15 25 14 37 -2 7 -10 18 -15 24 -11 16 9 26
-32 12 -49 -17 -21 6 -20 27 0 14 14 18 14 39 0 29 -19 54 -19 54 -1 0 7 7 19
15 26 9 7 13 20 11 27 -4 11 0 13 14 8 15 -5 22 -1 28 16 7 17 11 19 17 9 5
-8 2 -18 -8 -25 -10 -7 -17 -17 -17 -24 0 -6 -4 -11 -10 -11 -5 0 -10 -12 -10
-26 0 -14 4 -23 10 -19 5 3 18 0 29 -7 16 -10 23 -10 33 0 9 9 6 12 -15 12
-29 0 -38 24 -12 34 8 3 15 9 14 13 -4 23 4 33 26 33 28 0 49 -31 40 -59 -4
-13 0 -20 15 -24 14 -4 20 0 20 13 0 10 6 23 14 29 7 6 13 23 14 36 0 20 -6
25 -24 25 -29 0 -32 -16 -4 -25 19 -6 29 -25 13 -25 -13 1 -39 24 -45 41 -5
13 14 17 130 28 156 15 209 29 284 76 29 18 56 31 60 29 5 -3 8 0 8 6 0 7 8 9
20 5 11 -4 20 -2 20 4 0 6 -7 11 -17 11 -14 0 -14 2 2 20 10 11 21 17 26 15 4
-3 23 1 41 8 26 11 29 15 15 20 -9 3 -17 2 -17 -3 0 -6 -7 -10 -15 -10 -8 0
-15 6 -15 13 0 19 20 36 36 30 8 -3 14 0 14 5 0 6 12 10 26 9 15 -1 29 4 31
11 3 8 -6 12 -26 12 -34 0 -42 17 -13 27 9 4 19 9 22 13 3 3 21 11 40 18 27 8
-73 10 -420 7 -250 -2 -488 -7 -529 -11 -68 -6 -73 -6 -69 12 2 11 33 36 75
59 91 52 123 79 159 135 16 25 33 49 39 53 5 4 51 5 100 1 55 -4 106 -2 132 5
53 15 117 77 148 146 29 62 33 154 13 292 l-12 82 -41 -1 c-93 -1 -193 40
-261 109 -45 45 -60 84 -45 110 10 18 91 41 156 44 24 1 31 3 18 6 -13 2 -23
10 -23 16 0 9 -2 9 -8 1 -9 -15 -120 -25 -128 -12 -4 6 -2 13 4 17 6 3 -22 5
-61 3 -40 -2 -121 4 -182 13 -60 9 -163 19 -228 22 -78 4 -120 10 -123 18 -3
7 -6 29 -7 49 -2 30 -9 41 -32 54 -34 20 -69 47 -104 82 -60 58 -115 84 -123
58 -3 -7 -34 3 -89 29 -108 52 -101 51 -259 58 -74 4 -142 11 -150 16 -10 6
-11 9 -2 10 6 1 17 2 22 3 6 0 14 7 19 14 5 8 19 13 32 12 30 -2 69 9 69 21 0
5 -20 7 -44 4 -40 -4 -47 -1 -70 26 -14 17 -26 34 -26 38 0 17 -88 41 -147 41
-34 0 -84 4 -110 9 -58 12 -419 20 -435 10z m1002 -316 c36 -27 67 -71 71
-103 4 -41 2 -42 -86 -39 -70 3 -88 8 -105 25 -30 30 -38 99 -15 124 27 30 88
27 135 -7z m270 -46 c11 -5 9 -6 -4 -4 -11 1 -21 9 -23 17 -3 10 -2 11 4 4 4
-6 15 -14 23 -17z m40 -37 c8 -16 8 -18 -4 -14 -17 6 -30 34 -16 34 5 0 14 -9
20 -20z m-1998 -468 c76 -34 139 -88 163 -138 27 -57 46 -186 35 -241 -24
-131 -85 -190 -240 -234 -85 -25 -116 -24 -196 5 -76 28 -106 54 -151 128 -91
150 -79 346 26 441 66 59 124 78 227 73 51 -3 88 -12 136 -34z m2354 -20 c103
-52 161 -133 183 -259 20 -106 -19 -213 -96 -266 -57 -39 -169 -78 -244 -84
-91 -8 -152 13 -211 75 -73 75 -99 147 -99 271 0 74 32 149 89 213 63 69 118
89 237 84 66 -3 92 -9 141 -34z m-1251 -537 l690 -6 15 -22 c33 -48 87 -101
142 -138 32 -22 58 -46 58 -53 0 -11 -173 -13 -960 -12 -528 1 -960 4 -960 8
0 4 26 25 58 46 48 34 128 111 181 177 10 12 23 15 50 11 20 -3 347 -8 726
-11z m485 -545 c0 -5 -5 -10 -11 -10 -5 0 -7 5 -4 10 3 6 8 10 11 10 2 0 4 -4
4 -10z m105 -10 c3 -5 -1 -10 -9 -10 -9 0 -16 5 -16 10 0 6 4 10 9 10 6 0 13
-4 16 -10z m-130 -10 c3 -5 -1 -10 -9 -10 -9 0 -16 5 -16 10 0 6 4 10 9 10 6
0 13 -4 16 -10z m190 1 c10 -17 -12 -21 -25 -6 -10 12 -10 15 3 15 9 0 18 -4
22 -9z m838 -39 c-3 -12 -12 -22 -19 -22 -19 0 -18 16 2 24 10 4 13 13 9 28
-5 18 -4 20 4 7 6 -8 7 -25 4 -37z m-221 32 c9 -8 -42 -55 -53 -49 -15 10 -10
35 6 29 9 -4 15 0 15 10 0 15 21 22 32 10z m138 -4 c0 -5 -4 -10 -10 -10 -5 0
-10 5 -10 10 0 6 5 10 10 10 6 0 10 -4 10 -10z m50 1 c0 -6 -4 -13 -10 -16 -5
-3 -10 1 -10 9 0 9 5 16 10 16 6 0 10 -4 10 -9z m-1340 -17 c0 -8 -4 -12 -10
-9 -5 3 -10 10 -10 16 0 5 5 9 10 9 6 0 10 -7 10 -16z m939 -3 c6 -1 -61 -61
-69 -61 -15 0 -42 39 -35 51 6 8 13 5 26 -12 10 -13 19 -19 19 -12 0 6 -4 15
-10 18 -27 17 10 25 69 16z m-272 -21 c17 -26 3 -32 -25 -10 -27 22 -28 30 -4
30 9 0 23 -9 29 -20z m638 0 c3 -5 1 -10 -4 -10 -6 0 -11 5 -11 10 0 6 2 10 4
10 3 0 8 -4 11 -10z"/>
<path d="M1299 1581 c-47 -9 -117 -46 -152 -79 -35 -33 -67 -104 -66 -146 0
-26 3 -22 17 25 9 30 24 65 32 76 17 23 89 53 128 53 12 0 22 5 22 10 0 6 7
10 15 10 8 0 15 -4 15 -10 0 -15 16 -12 34 5 8 8 21 15 29 15 8 0 20 -7 27
-15 7 -8 21 -15 32 -15 39 0 -1 -29 -50 -36 -66 -10 -102 -27 -138 -66 -82
-88 -70 -241 25 -305 71 -48 142 -51 232 -12 55 25 102 91 124 175 20 78 20
81 -20 167 -26 59 -43 82 -74 102 -71 48 -147 62 -232 46z m212 -280 c-17 -29
-31 -55 -31 -59 0 -13 -74 -80 -96 -86 -12 -4 -28 -4 -37 0 -25 9 -57 67 -57
103 0 41 62 87 128 96 26 3 63 12 82 19 31 11 35 10 38 -5 2 -9 -11 -40 -27
-68z"/>
<path d="M3637 1550 c-71 -18 -115 -50 -165 -119 -50 -69 -37 -70 27 -3 38 40
67 62 81 62 13 0 28 7 35 17 15 21 101 28 173 15 53 -9 64 -4 37 18 -19 16
-138 22 -188 10z"/>
<path d="M3672 1472 c-24 -4 -95 -73 -134 -132 -13 -19 -34 -37 -48 -40 -14
-3 -26 -14 -28 -23 -8 -42 99 -188 163 -223 28 -15 40 -16 86 -6 141 28 210
74 238 160 19 57 -1 146 -40 181 -50 44 -185 91 -237 83z m80 -124 c97 -29
106 -137 17 -187 -77 -44 -125 -7 -136 102 -5 47 -2 58 16 76 24 24 47 26 103
9z"/>
<path d="M4970 2194 c0 -8 5 -12 10 -9 6 4 8 11 5 16 -9 14 -15 11 -15 -7z"/>
<path d="M4904 2171 c5 -8 56 -3 56 5 0 2 -14 4 -31 4 -16 0 -28 -4 -25 -9z"/>
<path d="M4980 2121 c0 -6 5 -13 10 -16 6 -3 10 1 10 9 0 9 -4 16 -10 16 -5 0
-10 -4 -10 -9z"/>
<path d="M4930 2080 c0 -5 5 -10 10 -10 6 0 10 5 10 10 0 6 -4 10 -10 10 -5 0
-10 -4 -10 -10z"/>
<path d="M4910 2040 c0 -5 4 -10 9 -10 6 0 13 5 16 10 3 6 -1 10 -9 10 -9 0
-16 -4 -16 -10z"/>
<path d="M4912 1989 c2 -6 8 -10 13 -10 5 0 11 4 13 10 2 6 -4 11 -13 11 -9 0
-15 -5 -13 -11z"/>
<path d="M4910 1935 c0 -8 7 -15 15 -15 8 0 15 4 15 9 0 5 -7 11 -15 15 -9 3
-15 0 -15 -9z"/>
<path d="M4970 1810 c0 -19 3 -21 12 -12 9 9 9 15 0 24 -9 9 -12 7 -12 -12z"/>
<path d="M4928 1773 c7 -3 16 -2 19 1 4 3 -2 6 -13 5 -11 0 -14 -3 -6 -6z"/>
<path d="M4938 1253 c7 -3 16 -2 19 1 4 3 -2 6 -13 5 -11 0 -14 -3 -6 -6z"/>
<path d="M4915 1210 c3 -5 8 -10 11 -10 2 0 4 5 4 10 0 6 -5 10 -11 10 -5 0
-7 -4 -4 -10z"/>
<path d="M4965 1169 c-4 -6 -5 -13 -2 -16 7 -7 27 6 27 18 0 12 -17 12 -25 -2z"/>
<path d="M4903 1145 c-6 -14 -9 -25 -7 -25 11 0 42 35 38 42 -9 14 -19 9 -31
-17z"/>
<path d="M4910 919 c0 -5 5 -7 10 -4 6 3 10 8 10 11 0 2 -4 4 -10 4 -5 0 -10
-5 -10 -11z"/>
<path d="M4970 919 c0 -5 5 -7 10 -4 6 3 10 8 10 11 0 2 -4 4 -10 4 -5 0 -10
-5 -10 -11z"/>
<path d="M4906 875 c4 -8 11 -15 16 -15 6 0 5 6 -2 15 -7 8 -14 15 -16 15 -2
0 -1 -7 2 -15z"/>
<path d="M4975 870 c3 -5 8 -10 11 -10 2 0 4 5 4 10 0 6 -5 10 -11 10 -5 0 -7
-4 -4 -10z"/>
<path d="M4925 790 c-3 -5 -1 -10 4 -10 6 0 11 5 11 10 0 6 -2 10 -4 10 -3 0
-8 -4 -11 -10z"/>
<path d="M4900 610 c0 -5 5 -10 11 -10 5 0 7 5 4 10 -3 6 -8 10 -11 10 -2 0
-4 -4 -4 -10z"/>
<path d="M4670 550 c0 -5 7 -7 15 -4 8 4 15 8 15 10 0 2 -7 4 -15 4 -8 0 -15
-4 -15 -10z"/>
<path d="M4800 544 c0 -8 5 -12 10 -9 6 3 10 10 10 16 0 5 -4 9 -10 9 -5 0
-10 -7 -10 -16z"/>
<path d="M4860 545 c-7 -9 -8 -15 -2 -15 5 0 12 7 16 15 3 8 4 15 2 15 -2 0
-9 -7 -16 -15z"/>
<path d="M4624 533 c-8 -13 -7 -26 2 -48 8 -21 9 -34 2 -42 -16 -19 4 -15 30
6 24 21 29 43 10 40 -28 -3 -38 2 -38 21 0 22 10 26 27 9 8 -8 13 -8 17 0 4 6
0 11 -8 11 -9 0 -16 5 -16 10 0 16 -14 12 -26 -7z"/>
<path d="M4716 526 c3 -8 -2 -16 -11 -18 -15 -3 -15 -6 4 -26 11 -13 24 -21
30 -18 5 3 12 0 14 -6 4 -10 6 -10 6 0 1 8 -8 16 -19 19 -21 6 -27 28 -10 38
11 7 4 25 -10 25 -5 0 -7 -6 -4 -14z"/>
<path d="M2107 524 c-3 -4 -45 -6 -92 -5 -84 2 -86 2 -75 -18 12 -24 25 -28
16 -6 -4 10 1 15 14 15 11 0 20 -6 20 -14 0 -17 28 -41 37 -32 3 3 -2 15 -12
26 -18 20 -18 20 21 20 34 0 40 -3 41 -22 1 -12 -3 -26 -10 -30 -6 -4 -8 -11
-3 -15 5 -4 11 -2 13 5 3 6 11 12 19 12 8 0 14 10 14 21 0 17 3 19 14 10 11
-9 15 -9 19 1 2 7 8 9 13 5 5 -5 -3 -19 -18 -32 -32 -28 -33 -31 -12 -39 9 -3
12 -2 9 5 -10 14 26 39 47 33 11 -3 27 5 43 23 13 15 25 23 25 16 0 -6 -4 -15
-10 -18 -5 -3 -10 -16 -9 -28 0 -12 3 -16 6 -9 2 6 13 12 24 12 10 0 19 5 19
10 0 6 11 10 25 10 14 0 25 -4 25 -9 0 -5 -11 -12 -25 -15 -27 -7 -34 -26 -10
-26 8 0 15 5 15 10 0 6 7 10 16 10 12 0 15 6 10 23 -3 12 -6 28 -6 35 0 6 -7
12 -15 12 -8 0 -14 -5 -12 -11 1 -6 -4 -14 -10 -16 -7 -3 -13 2 -13 11 0 10
-9 17 -25 18 -14 0 -31 1 -37 2 -7 1 -12 -7 -10 -16 2 -10 -2 -18 -8 -18 -5 0
-10 7 -10 15 0 9 -9 15 -24 15 -13 0 -31 2 -38 5 -8 3 -17 3 -21 -1z"/>
<path d="M1132 513 c0 -5 -2 -16 -7 -26 -10 -25 1 -33 19 -14 16 15 12 47 -5
47 -5 0 -8 -3 -7 -7z"/>
<path d="M1173 501 c2 -10 0 -26 -5 -35 -7 -12 -5 -16 6 -16 10 0 13 6 10 15
-7 17 7 20 22 5 7 -7 19 -7 35 -1 29 10 59 -2 59 -24 0 -21 17 -18 33 5 8 12
21 20 28 18 8 -2 15 7 17 20 3 20 9 22 55 22 42 0 55 -4 65 -20 14 -23 8 -40
-14 -40 -8 0 -14 -4 -14 -10 0 -5 8 -10 17 -10 13 0 14 -3 5 -12 -10 -10 -16
-7 -28 10 -15 21 -44 30 -44 14 0 -5 11 -18 25 -30 26 -23 55 -29 55 -12 0 6
8 10 18 10 9 0 27 13 39 28 29 36 63 35 81 -1 7 -15 20 -27 28 -27 7 0 14 -4
14 -10 0 -5 5 -10 12 -10 6 0 4 7 -5 18 -10 10 -17 24 -17 30 0 7 -7 12 -15
12 -9 0 -12 6 -9 15 4 8 1 15 -5 15 -6 0 -11 7 -11 15 0 8 7 15 15 15 8 0 15
-7 15 -16 0 -12 6 -15 23 -10 12 3 35 -1 51 -9 35 -18 36 -18 36 0 0 8 -7 15
-16 15 -10 0 -14 6 -10 15 5 13 -21 15 -199 15 -168 0 -205 -3 -205 -14 0 -7
-7 -19 -15 -26 -12 -10 -15 -10 -15 4 0 19 -16 22 -23 4 -3 -9 -10 -6 -22 10
-9 12 -22 22 -30 22 -8 0 -11 -8 -9 -22 l5 -23 -17 23 c-20 27 -48 30 -41 3z
m411 3 c9 -3 16 -10 16 -15 0 -14 -26 -10 -40 6 -13 16 -3 20 24 9z m-30 -43
c3 -4 -6 -13 -20 -19 -23 -11 -24 -10 -14 8 11 21 25 26 34 11z"/>
<path d="M1766 505 c3 -8 15 -17 25 -20 14 -5 17 -10 10 -18 -7 -9 -2 -16 15
-24 22 -10 23 -9 18 12 -7 28 15 45 28 22 5 -9 15 -14 22 -11 8 3 19 -3 25
-14 8 -16 6 -21 -14 -32 -27 -14 -41 -50 -19 -50 8 0 14 5 14 11 0 20 26 38
41 28 8 -5 19 -9 24 -9 6 0 5 4 -2 8 -6 4 -13 19 -15 32 -6 40 -17 51 -44 44
-20 -5 -26 -2 -31 15 -4 18 -13 21 -54 21 -38 0 -47 -3 -43 -15z"/>
<path d="M1870 510 c0 -5 6 -10 14 -10 8 0 18 5 21 10 3 6 -3 10 -14 10 -12 0
-21 -4 -21 -10z"/>
<path d="M1010 504 c0 -17 15 -31 40 -37 19 -5 29 -1 39 14 7 12 9 24 6 27 -4
4 -11 -1 -16 -11 -12 -21 -27 -22 -51 0 -10 9 -18 12 -18 7z"/>
<path d="M4580 496 c0 -7 6 -19 14 -25 20 -17 31 5 12 24 -18 19 -26 19 -26 1z"/>
<path d="M4880 495 c-7 -9 -8 -15 -2 -15 5 0 12 7 16 15 3 8 4 15 2 15 -2 0
-9 -7 -16 -15z"/>
<path d="M1396 484 c-9 -23 -8 -24 14 -24 13 0 20 7 20 20 0 24 -25 27 -34 4z"/>
<path d="M1450 486 c0 -21 20 -30 33 -17 9 9 8 14 -3 21 -21 14 -30 12 -30 -4z"/>
<path d="M2040 490 c0 -5 5 -10 10 -10 6 0 10 5 10 10 0 6 -4 10 -10 10 -5 0
-10 -4 -10 -10z"/>
<path d="M2350 486 c0 -8 4 -17 9 -20 10 -7 23 19 14 28 -11 11 -23 6 -23 -8z"/>
<path d="M4449 480 c-20 -3 -55 -5 -77 -4 -35 2 -42 -1 -42 -17 0 -10 7 -19
15 -19 8 0 15 5 15 10 0 16 50 11 56 -5 9 -24 44 -39 57 -26 6 6 21 11 34 11
17 0 23 -6 24 -22 1 -21 2 -21 12 5 6 15 17 27 24 27 16 0 17 16 1 26 -6 4
-14 2 -16 -4 -5 -17 -31 -15 -38 2 -8 20 -23 23 -65 16z m26 -36 c-8 -9 -22
-13 -30 -10 -26 10 -16 26 16 26 28 0 29 -1 14 -16z"/>
<path d="M980 460 c-13 -8 -12 -10 3 -10 9 0 17 5 17 10 0 12 -1 12 -20 0z"/>
<path d="M940 449 c0 -5 5 -7 10 -4 6 3 10 8 10 11 0 2 -4 4 -10 4 -5 0 -10
-5 -10 -11z"/>
<path d="M1090 445 c0 -8 -5 -15 -11 -15 -5 0 -7 -5 -4 -11 4 -5 12 -8 18 -6
12 4 18 47 5 47 -4 0 -8 -7 -8 -15z"/>
<path d="M1697 447 c-3 -7 1 -21 9 -31 12 -17 13 -16 11 12 -2 33 -11 42 -20
19z"/>
<path d="M1955 450 c3 -5 8 -10 11 -10 2 0 4 5 4 10 0 6 -5 10 -11 10 -5 0 -7
-4 -4 -10z"/>
<path d="M865 440 c-3 -5 -1 -10 4 -10 6 0 11 5 11 10 0 6 -2 10 -4 10 -3 0
-8 -4 -11 -10z"/>
<path d="M1353 443 c-15 -5 -18 -33 -4 -33 8 0 25 30 19 35 -2 1 -9 0 -15 -2z"/>
<path d="M2010 440 c0 -5 -7 -10 -15 -10 -9 0 -15 -9 -14 -22 1 -17 3 -18 6
-6 2 9 13 20 24 23 20 7 27 25 9 25 -5 0 -10 -4 -10 -10z"/>
<path d="M2165 425 c-8 -14 -22 -36 -30 -50 -9 -14 -13 -25 -10 -25 9 0 41 36
48 53 7 18 37 24 37 7 0 -5 5 -10 10 -10 6 0 3 11 -6 25 -9 14 -20 25 -25 25
-5 0 -15 -11 -24 -25z"/>
<path d="M2486 441 c-3 -5 1 -14 9 -21 13 -10 15 -9 15 9 0 21 -14 28 -24 12z"/>
<path d="M1186 431 c-3 -4 4 -17 16 -27 21 -19 21 -19 16 4 -4 12 -3 22 2 22
4 0 14 -10 23 -22 19 -29 33 -18 15 11 -13 21 -62 29 -72 12z"/>
<path d="M1382 415 c-15 -33 -15 -35 4 -35 11 0 14 5 10 16 -5 14 -4 15 9 4
16 -13 20 -3 9 24 -9 23 -19 20 -32 -9z"/>
<path d="M1581 414 c-8 -18 -17 -24 -29 -20 -10 4 -6 -2 8 -13 25 -20 25 -20
44 1 14 15 16 22 6 28 -7 4 -9 13 -6 19 4 6 3 11 -2 11 -5 0 -14 -12 -21 -26z"/>
<path d="M2940 425 c-7 -9 -11 -18 -8 -20 3 -3 11 1 18 10 7 9 11 18 8 20 -3
3 -11 -1 -18 -10z"/>
<path d="M3280 436 c0 -2 7 -9 15 -16 12 -10 15 -10 15 4 0 9 -7 16 -15 16 -8
0 -15 -2 -15 -4z"/>
<path d="M3885 429 c-11 -17 1 -21 15 -4 8 9 8 15 2 15 -6 0 -14 -5 -17 -11z"/>
<path d="M4192 428 c-19 -19 -14 -28 13 -28 27 0 32 12 12 29 -10 8 -17 7 -25
-1z"/>
<path d="M4352 431 c-10 -6 -5 -12 18 -21 35 -14 49 -8 30 15 -14 17 -29 19
-48 6z"/>
<path d="M4680 425 c0 -8 5 -15 10 -15 6 0 10 7 10 15 0 8 -4 15 -10 15 -5 0
-10 -7 -10 -15z"/>
<path d="M1280 421 c0 -13 29 -35 37 -28 7 8 -15 37 -28 37 -5 0 -9 -4 -9 -9z"/>
<path d="M2247 416 c-4 -10 -1 -13 9 -9 15 6 19 23 5 23 -5 0 -11 -7 -14 -14z"/>
<path d="M2526 421 c-4 -7 -5 -15 -2 -18 9 -9 19 4 14 18 -4 11 -6 11 -12 0z"/>
<path d="M2678 417 c8 -10 6 -16 -9 -25 -28 -18 -24 -34 6 -20 14 6 25 15 25
19 0 17 -13 39 -22 39 -7 0 -7 -5 0 -13z"/>
<path d="M2725 420 c3 -5 8 -10 11 -10 2 0 4 5 4 10 0 6 -5 10 -11 10 -5 0 -7
-4 -4 -10z"/>
<path d="M2780 420 c0 -5 -7 -10 -15 -10 -16 0 -21 -25 -6 -35 5 -3 12 4 16
15 3 11 13 20 21 20 8 0 14 5 14 10 0 6 -7 10 -15 10 -8 0 -15 -4 -15 -10z"/>
<path d="M3665 420 c3 -5 8 -10 11 -10 2 0 4 5 4 10 0 6 -5 10 -11 10 -5 0 -7
-4 -4 -10z"/>
<path d="M4580 416 c0 -17 14 -29 23 -20 8 8 -3 34 -14 34 -5 0 -9 -6 -9 -14z"/>
<path d="M4720 420 c0 -5 4 -10 9 -10 6 0 13 5 16 10 3 6 -1 10 -9 10 -9 0
-16 -4 -16 -10z"/>
<path d="M3490 396 c-10 -21 -11 -28 0 -41 7 -8 16 -12 22 -9 5 3 4 12 -3 21
-9 11 -10 16 -1 22 6 3 7 12 3 19 -5 9 -11 5 -21 -12z"/>
<path d="M1125 401 c-3 -5 -1 -12 5 -16 5 -3 10 1 10 9 0 18 -6 21 -15 7z"/>
<path d="M2377 390 c-3 -11 -1 -23 4 -26 5 -3 9 6 9 20 0 31 -6 34 -13 6z"/>
<path d="M3915 400 c4 -6 11 -8 16 -5 14 9 11 15 -7 15 -8 0 -12 -5 -9 -10z"/>
<path d="M4306 395 c4 -8 1 -15 -5 -15 -6 0 -11 -7 -11 -15 0 -20 10 -19 26 3
18 23 17 42 -1 42 -9 0 -12 -6 -9 -15z"/>
<path d="M1755 389 c-10 -15 3 -25 16 -12 7 7 7 13 1 17 -6 3 -14 1 -17 -5z"/>
<path d="M3080 390 c0 -5 5 -10 10 -10 6 0 10 5 10 10 0 6 -4 10 -10 10 -5 0
-10 -4 -10 -10z"/>
<path d="M3840 392 c0 -5 8 -16 18 -25 21 -19 82 -23 82 -6 0 7 -11 8 -29 4
-24 -5 -33 -2 -43 14 -13 21 -28 28 -28 13z"/>
<path d="M2025 381 c-3 -5 -1 -12 5 -16 12 -7 30 2 30 16 0 12 -27 12 -35 0z"/>
<path d="M2266 376 c7 -18 22 -20 44 -6 13 8 13 10 -2 10 -9 0 -24 3 -32 6
-12 5 -15 2 -10 -10z"/>
<path d="M2560 380 c0 -5 5 -10 11 -10 5 0 7 5 4 10 -3 6 -8 10 -11 10 -2 0
-4 -4 -4 -10z"/>
<path d="M3000 380 c0 -5 5 -10 10 -10 6 0 10 5 10 10 0 6 -4 10 -10 10 -5 0
-10 -4 -10 -10z"/>
<path d="M3710 376 c0 -22 17 -28 24 -10 9 22 8 24 -9 24 -8 0 -15 -6 -15 -14z"/>
<path d="M1170 370 c0 -5 5 -10 10 -10 6 0 10 5 10 10 0 6 -4 10 -10 10 -5 0
-10 -4 -10 -10z"/>
<path d="M1226 371 c-4 -7 -5 -15 -2 -18 9 -9 19 4 14 18 -4 11 -6 11 -12 0z"/>
<path d="M2187 373 c-12 -12 -7 -22 8 -17 8 4 15 10 15 15 0 11 -14 12 -23 2z"/>
<path d="M2960 370 c0 -5 5 -10 10 -10 6 0 10 5 10 10 0 6 -4 10 -10 10 -5 0
-10 -4 -10 -10z"/>
<path d="M3240 370 c0 -5 5 -10 11 -10 5 0 7 5 4 10 -3 6 -8 10 -11 10 -2 0
-4 -4 -4 -10z"/>
<path d="M3645 366 c11 -8 24 -12 29 -8 5 3 1 9 -10 13 -31 12 -39 10 -19 -5z"/>
<path d="M3780 370 c0 -5 5 -10 10 -10 6 0 10 5 10 10 0 6 -4 10 -10 10 -5 0
-10 -4 -10 -10z"/>
<path d="M4582 368 c6 -18 28 -21 28 -4 0 9 -7 16 -16 16 -9 0 -14 -5 -12 -12z"/>
<path d="M4785 370 c3 -5 8 -10 11 -10 2 0 4 5 4 10 0 6 -5 10 -11 10 -5 0 -7
-4 -4 -10z"/>
<path d="M1110 360 c0 -5 5 -10 11 -10 5 0 7 5 4 10 -3 6 -8 10 -11 10 -2 0
-4 -4 -4 -10z"/>
<path d="M2700 361 c0 -6 5 -13 10 -16 6 -3 10 1 10 9 0 9 -4 16 -10 16 -5 0
-10 -4 -10 -9z"/>
<path d="M3370 360 c0 -5 5 -10 10 -10 6 0 10 5 10 10 0 6 -4 10 -10 10 -5 0
-10 -4 -10 -10z"/>
<path d="M3541 353 c-7 -8 -11 -16 -8 -19 2 -2 10 2 17 11 17 20 9 27 -9 8z"/>
<path d="M4220 360 c0 -5 5 -10 10 -10 6 0 10 5 10 10 0 6 -4 10 -10 10 -5 0
-10 -4 -10 -10z"/>
<path d="M1515 350 c4 -6 11 -8 16 -5 14 9 11 15 -7 15 -8 0 -12 -5 -9 -10z"/>
<path d="M1815 350 c3 -5 10 -10 16 -10 5 0 9 5 9 10 0 6 -7 10 -16 10 -8 0
-12 -4 -9 -10z"/>
<path d="M3025 350 c4 -6 11 -8 16 -5 14 9 11 15 -7 15 -8 0 -12 -5 -9 -10z"/>
<path d="M3990 345 c7 -9 15 -13 17 -11 7 7 -7 26 -19 26 -6 0 -6 -6 2 -15z"/>
<path d="M2435 340 c3 -5 8 -10 11 -10 2 0 4 5 4 10 0 6 -5 10 -11 10 -5 0 -7
-4 -4 -10z"/>
<path d="M1640 330 c0 -5 5 -10 11 -10 5 0 7 5 4 10 -3 6 -8 10 -11 10 -2 0
-4 -4 -4 -10z"/>
<path d="M4060 330 c0 -5 5 -10 11 -10 5 0 7 5 4 10 -3 6 -8 10 -11 10 -2 0
-4 -4 -4 -10z"/>
<path d="M4327 329 c7 -7 15 -10 18 -7 3 3 -2 9 -12 12 -14 6 -15 5 -6 -5z"/>
<path d="M4450 329 c0 -5 5 -7 10 -4 6 3 10 8 10 11 0 2 -4 4 -10 4 -5 0 -10
-5 -10 -11z"/>
<path d="M2240 320 c0 -5 5 -10 10 -10 6 0 10 5 10 10 0 6 -4 10 -10 10 -5 0
-10 -4 -10 -10z"/>
<path d="M3430 319 c0 -5 5 -7 10 -4 6 3 10 8 10 11 0 2 -4 4 -10 4 -5 0 -10
-5 -10 -11z"/>
<path d="M4200 319 c0 -5 5 -7 10 -4 6 3 10 8 10 11 0 2 -4 4 -10 4 -5 0 -10
-5 -10 -11z"/>
<path d="M2010 310 c0 -5 5 -10 11 -10 5 0 7 5 4 10 -3 6 -8 10 -11 10 -2 0
-4 -4 -4 -10z"/>
<path d="M4250 300 c0 -5 5 -10 11 -10 5 0 7 5 4 10 -3 6 -8 10 -11 10 -2 0
-4 -4 -4 -10z"/>
<path d="M4320 279 c0 -5 5 -7 10 -4 6 3 10 8 10 11 0 2 -4 4 -10 4 -5 0 -10
-5 -10 -11z"/>
</g>
</svg>
