<?xml version="1.0" standalone="no"?>
<!DOCTYPE svg PUBLIC "-//W3C//DTD SVG 20010904//EN"
 "http://www.w3.org/TR/2001/REC-SVG-20010904/DTD/svg10.dtd">
<svg version="1.0" xmlns="http://www.w3.org/2000/svg"
 width="514.000000pt" height="564.000000pt" viewBox="0 0 514.000000 564.000000"
 preserveAspectRatio="xMidYMid meet">

<g transform="translate(0.000000,564.000000) scale(0.100000,-0.100000)"
fill="#000000" stroke="none">
<path d="M3950 4654 c0 -4 14 -30 32 -58 55 -90 67 -114 84 -173 15 -51 15
-67 4 -138 -18 -110 -35 -152 -89 -208 -52 -55 -91 -78 -172 -101 -50 -15 -59
-15 -109 0 -80 24 -120 47 -184 105 -58 52 -73 54 -34 3 55 -72 176 -156 271
-188 39 -13 60 -14 109 -7 33 6 66 15 74 21 7 7 18 9 24 5 5 -3 13 0 16 9 3 8
11 13 17 10 7 -2 28 10 47 26 19 17 42 29 51 27 9 -3 23 0 32 5 14 7 16 4 11
-20 -3 -17 -1 -32 5 -36 14 -9 51 11 51 29 0 7 6 16 13 18 6 3 0 6 -15 6 -17
1 -28 7 -28 15 0 9 8 12 25 8 21 -3 25 0 25 18 0 17 4 21 20 17 17 -4 19 -1
14 18 -5 21 -3 23 18 17 22 -5 22 -5 5 12 -10 10 -16 23 -14 30 2 6 -2 17 -10
24 -25 25 -16 41 17 32 37 -11 40 4 6 35 -13 12 -26 28 -29 36 -5 12 -7 12
-16 -1 -8 -11 -11 6 -11 65 0 64 -5 89 -22 122 -43 79 -100 149 -153 186 -49
34 -85 47 -85 31z"/>
<path d="M3783 4569 c-57 -11 -95 -32 -131 -74 -39 -44 -45 -67 -40 -153 4
-65 33 -147 52 -147 5 0 9 27 7 60 -1 33 2 73 8 88 12 32 81 107 99 107 6 0
12 3 12 8 0 4 15 16 33 28 34 23 88 25 125 5 20 -11 21 -10 10 19 -6 17 -20
37 -32 44 -29 18 -92 25 -143 15z"/>
<path d="M4300 4136 c0 -8 -3 -23 -7 -33 -6 -16 -5 -16 10 -4 18 15 23 51 7
51 -5 0 -10 -6 -10 -14z"/>
<path d="M2146 4033 c-4 -5 -126 -10 -271 -13 -192 -4 -267 -8 -277 -17 -9
-10 -7 -13 13 -13 21 0 19 -3 -16 -24 -121 -70 -198 -130 -240 -187 -47 -64
-68 -137 -46 -163 9 -11 152 -15 769 -21 416 -4 777 -10 801 -14 41 -5 45 -9
58 -46 22 -68 34 -82 86 -110 47 -26 55 -27 137 -22 l88 6 5 -47 c3 -37 -1
-56 -20 -89 -13 -24 -28 -43 -32 -43 -8 0 -67 -93 -112 -175 l-16 -30 -314 -8
c-173 -4 -375 -9 -449 -10 l-135 -2 -6 175 c-3 96 -6 177 -7 180 -1 3 -7 -2
-12 -10 -5 -8 -10 -62 -11 -120 -1 -141 -11 -210 -34 -226 -31 -23 -154 -16
-139 7 3 5 -3 9 -13 9 -10 0 -30 6 -45 14 -15 8 -42 17 -60 21 -42 9 -60 25
-100 89 -51 80 -99 136 -143 165 -22 14 -44 26 -50 26 -5 0 -16 4 -23 9 -10 6
-10 11 -1 23 10 11 10 16 0 22 -9 6 -5 17 17 41 31 34 39 36 132 40 49 2 51 3
25 10 -74 21 -475 47 -475 32 0 -6 11 -13 25 -16 29 -7 34 -36 6 -36 -24 0
-162 -46 -170 -57 -3 -4 -18 -14 -33 -22 -15 -8 -30 -21 -33 -30 -3 -9 -19
-25 -36 -36 -32 -20 -109 -127 -109 -151 0 -8 -16 -47 -35 -88 -19 -41 -35
-83 -35 -94 0 -10 -5 -23 -12 -30 -9 -9 -9 -12 1 -12 7 0 9 -4 6 -10 -7 -12
-142 -12 -170 0 -14 6 0 9 47 9 109 1 89 19 -24 23 -106 3 -118 -1 -118 -37 0
-57 24 -102 91 -167 l69 -68 97 0 98 0 24 -45 c24 -46 70 -98 149 -168 67 -59
60 -67 -65 -69 -60 0 -186 -2 -281 -3 -95 -2 -175 -5 -178 -7 -11 -11 555 -23
906 -18 762 9 1537 5 1715 -9 94 -7 269 -17 390 -20 198 -6 226 -9 280 -30
123 -48 216 -115 273 -196 42 -59 45 -69 56 -160 1 -11 8 -37 15 -58 7 -21 11
-41 8 -44 -8 -8 -47 78 -47 104 0 13 -5 23 -12 23 -6 0 -20 7 -30 17 -11 10
-18 12 -18 4 0 -6 7 -14 15 -17 8 -4 15 -18 15 -33 l-1 -26 -16 30 c-9 17 -19
32 -23 35 -3 3 -9 12 -12 21 -10 28 -112 108 -169 132 -103 45 -223 64 -305
47 -73 -15 -193 -71 -239 -111 -19 -17 -35 -26 -35 -19 0 6 -4 9 -10 5 -5 -3
-6 -13 -3 -21 4 -10 -2 -17 -16 -21 -11 -3 -18 -9 -15 -14 3 -5 -4 -9 -14 -9
-21 0 -59 -62 -42 -68 6 -2 6 -10 0 -20 -75 -143 -80 -284 -14 -414 46 -90
182 -217 257 -239 182 -52 379 -11 498 103 101 98 175 217 198 319 6 24 8 71
5 104 l-5 60 30 -35 c27 -29 31 -42 31 -90 0 -66 -18 -143 -62 -264 -29 -79
-40 -95 -95 -147 -92 -86 -197 -132 -351 -156 -18 -2 -41 -1 -50 3 -9 4 -26 9
-37 10 -11 2 -40 8 -65 14 -25 6 -57 14 -72 17 -16 3 -28 10 -28 15 0 6 -11 7
-24 4 -14 -3 -28 -2 -31 4 -3 5 -12 10 -18 10 -8 0 -9 -3 -1 -8 6 -4 13 -15
17 -25 4 -9 17 -17 30 -17 13 0 32 -6 42 -14 14 -10 25 -11 37 -5 12 7 18 6
18 -1 0 -7 6 -10 13 -7 6 2 26 0 42 -5 17 -5 39 -10 49 -11 11 -1 21 -8 24
-16 4 -12 -8 -13 -64 -8 -74 6 -157 30 -162 47 -2 5 -10 10 -17 10 -8 0 -24
13 -37 29 -13 16 -51 46 -85 66 -35 20 -63 40 -63 45 0 6 -6 10 -12 10 -13 1
-49 44 -123 143 -23 32 -43 76 -57 128 -12 44 -24 76 -27 71 -3 -5 -16 -12
-28 -16 -13 -4 -23 -15 -23 -24 0 -10 -3 -13 -8 -6 -4 6 -15 13 -24 17 -9 3
-33 39 -53 79 -28 58 -51 87 -115 145 -55 50 -93 76 -122 84 -31 8 -192 9
-588 4 -300 -4 -563 -9 -585 -11 -22 -3 -136 -5 -254 -4 l-214 0 -72 -36 c-91
-44 -144 -90 -195 -165 -39 -56 -40 -60 -40 -143 0 -78 3 -90 36 -153 33 -62
59 -98 117 -161 11 -13 48 -42 81 -65 34 -22 79 -55 100 -74 90 -76 72 -73
577 -77 398 -3 460 -6 504 -21 28 -9 57 -23 66 -31 8 -8 20 -14 26 -14 6 0 27
-18 48 -41 35 -39 37 -44 30 -88 -4 -25 -15 -79 -25 -119 -10 -41 -16 -80 -13
-88 3 -8 0 -14 -6 -14 -6 0 -11 -4 -11 -10 0 -5 6 -10 14 -10 7 0 16 -9 19
-20 3 -12 14 -20 27 -20 11 0 19 4 16 9 -3 5 1 12 9 15 12 4 15 0 13 -17 -2
-12 2 -23 7 -24 6 -2 10 1 10 6 0 19 14 22 35 9 18 -10 24 -10 27 0 3 6 9 12
14 12 6 0 5 -9 -1 -21 -6 -11 -9 -28 -7 -37 4 -16 5 -16 6 1 0 9 6 17 11 17 6
0 10 7 10 17 0 15 2 14 20 -2 19 -17 20 -17 30 9 12 32 34 30 36 -2 1 -12 7
-29 14 -37 11 -13 15 -13 34 7 15 16 19 27 13 36 -15 19 23 15 46 -5 18 -17
19 -17 32 0 15 21 25 22 25 1 0 -8 5 -12 11 -9 21 14 4 38 -31 42 -172 21
-171 20 -20 22 80 2 159 4 175 6 17 1 46 0 65 -3 33 -5 33 -5 10 -14 -13 -5
-36 -6 -52 -3 -23 5 -27 4 -22 -9 3 -9 11 -13 17 -9 6 4 8 1 5 -8 -3 -8 -9
-22 -13 -31 -4 -11 -3 -18 4 -18 6 0 11 7 11 15 0 8 5 15 11 15 6 0 17 7 26
16 17 17 54 15 60 -2 2 -7 -8 -14 -22 -18 -16 -4 -25 -13 -25 -26 0 -27 8 -25
32 5 11 14 23 23 28 20 5 -3 11 -1 14 4 4 5 1 13 -5 16 -5 4 -8 13 -5 20 3 8
-3 16 -12 18 -9 3 6 5 33 4 28 0 40 -2 27 -4 -20 -4 -21 -7 -10 -20 10 -13 10
-17 1 -20 -7 -3 -13 -13 -13 -23 0 -9 -7 -23 -15 -30 -8 -7 -12 -17 -8 -23 4
-6 11 -4 19 7 8 11 14 13 19 6 3 -5 10 -8 15 -5 6 4 5 13 -1 24 -9 14 -6 23
16 46 l27 30 -8 -30 c-7 -29 -7 -30 13 -13 24 22 37 23 29 3 -4 -10 1 -15 14
-15 24 0 26 18 5 47 -17 24 -7 37 15 22 8 -5 11 -9 6 -9 -5 0 -3 -7 4 -15 7
-8 20 -30 30 -47 20 -38 46 -52 35 -19 -5 15 -1 23 12 27 10 3 26 10 36 15 9
5 17 5 17 0 0 -5 12 -11 28 -14 47 -11 59 -23 44 -47 -12 -20 -11 -20 8 -10
17 9 18 14 9 31 -12 24 -2 40 12 19 8 -13 10 -13 19 0 13 20 13 30 -1 30 -5 0
-7 5 -3 12 5 8 11 6 20 -6 11 -16 13 -16 23 1 10 17 10 16 11 -3 0 -12 7 -25
16 -28 22 -9 24 -8 18 8 -3 8 -1 17 5 21 6 3 11 -1 11 -10 0 -9 6 -15 13 -12
6 2 11 10 10 16 -2 6 4 11 13 11 13 0 15 -6 9 -27 -6 -24 -5 -25 11 -12 13 11
18 11 21 2 6 -16 33 -17 33 -2 0 6 8 9 19 6 22 -5 54 11 46 24 -4 5 -2 9 2 9
5 0 14 -9 21 -20 16 -25 29 -25 37 0 3 11 13 20 20 20 9 0 12 -6 9 -15 -7 -17
11 -21 21 -5 9 15 35 12 30 -2 -3 -8 14 -19 46 -30 51 -17 79 -15 79 4 0 6 8
16 17 23 15 11 20 10 36 -8 l18 -22 18 24 18 23 20 -21 c12 -13 26 -19 35 -16
9 4 19 2 23 -4 3 -6 1 -11 -4 -11 -6 0 -11 -5 -11 -12 0 -9 3 -9 12 0 7 7 21
12 32 12 19 1 19 1 4 11 -22 12 -23 29 -3 29 8 0 15 -4 15 -10 0 -5 5 -10 10
-10 6 0 10 7 10 15 0 8 -5 15 -11 15 -5 0 -7 5 -4 10 3 6 15 10 26 10 23 0 25
-25 4 -46 -12 -13 -12 -17 3 -35 10 -12 18 -15 21 -8 2 6 -2 15 -8 19 -17 10
15 34 47 35 20 0 26 5 24 17 -2 12 2 16 13 12 8 -3 15 -13 15 -21 0 -10 6 -13
18 -8 28 11 36 11 37 -2 0 -21 15 -27 15 -5 0 11 5 24 10 27 6 3 10 18 11 33
l1 27 10 -27 c11 -31 38 -38 38 -11 0 13 3 14 12 5 9 -9 9 -15 1 -23 -13 -13
-6 -42 8 -33 5 3 9 17 9 31 0 26 0 26 20 8 12 -10 19 -24 16 -31 -4 -10 1 -11
17 -5 17 7 22 16 21 39 -2 34 20 50 42 31 11 -9 14 -8 14 5 0 10 9 16 25 16
19 0 23 4 18 17 -4 10 -2 14 5 9 6 -3 14 -1 18 5 3 6 1 15 -6 19 -9 6 -9 9 0
15 6 4 17 2 22 -3 15 -15 58 26 58 56 0 12 6 22 13 22 7 0 17 10 22 23 10 21
18 24 60 16 13 -3 21 2 23 15 3 15 -1 18 -22 14 -34 -7 -33 7 6 48 17 18 33
41 35 51 4 19 8 99 18 358 4 88 8 183 10 210 11 132 17 833 8 849 -8 15 -43
17 -434 17 -415 0 -621 8 -636 23 -5 5 12 25 37 45 25 19 79 70 121 112 l76
76 113 6 c139 8 187 28 241 100 39 52 67 122 55 135 -4 4 -61 5 -126 4 -79 -3
-120 0 -125 7 -5 10 48 71 61 71 3 0 19 16 36 36 30 33 72 60 91 55 19 -4 37
30 37 69 0 39 -2 42 -22 36 -13 -3 -54 -6 -93 -6 -49 0 -65 -3 -55 -10 13 -8
12 -10 -3 -10 -11 0 -21 9 -24 20 -3 11 -10 20 -15 20 -24 0 -121 86 -155 138
-15 22 -16 22 -33 4 -12 -12 -16 -29 -12 -50 l4 -32 -40 14 c-22 8 -43 12 -46
9 -3 -4 -6 4 -6 16 0 12 -6 23 -12 25 -7 2 -35 9 -63 15 -27 7 -52 16 -55 20
-3 4 -20 14 -37 22 -41 17 -41 25 -3 47 72 41 15 61 -177 63 l-143 2 -20 34
c-13 22 -30 35 -50 39 -24 5 -30 12 -30 32 0 36 -38 82 -117 139 -91 67 -106
74 -180 83 -75 10 -153 31 -153 42 0 4 -14 8 -31 8 -17 0 -28 4 -24 10 4 6 -6
10 -22 10 -49 0 -73 12 -79 36 -6 25 -20 32 -26 13 -5 -16 -59 -14 -69 2 -15
24 -10 29 33 29 23 0 39 2 36 5 -10 11 -297 15 -303 5 -3 -5 -20 -10 -37 -10
-22 0 -29 4 -25 14 8 20 -7 23 -89 19 -61 -3 -73 -1 -89 17 -20 22 -28 24 -39
13z m-301 -153 c3 -5 2 -10 -4 -10 -5 0 -13 5 -16 10 -3 6 -2 10 4 10 5 0 13
-4 16 -10z m1269 -171 c44 -38 53 -65 30 -90 -26 -29 -139 -27 -171 3 -36 33
-26 94 17 111 41 16 90 7 124 -24z m-2054 -396 c0 -10 -63 -53 -76 -53 -5 0 6
14 25 30 33 29 51 37 51 23z m345 -102 c22 -10 51 -30 63 -44 l24 -25 -39 13
c-51 19 -168 18 -221 0 -64 -23 -119 -63 -155 -114 -47 -66 -57 -94 -57 -165
0 -76 -9 -89 -27 -39 -41 119 8 251 126 337 93 68 195 81 286 37z m2277 -7
c26 -8 52 -22 58 -29 9 -11 -1 -13 -63 -8 -80 6 -112 -1 -213 -47 -133 -61
-173 -153 -143 -327 10 -60 -23 7 -52 104 -21 69 40 209 112 259 21 14 64 37
96 50 65 28 121 27 205 -2z m168 -144 c0 -5 -2 -10 -4 -10 -3 0 -8 5 -11 10
-3 6 -1 10 4 10 6 0 11 -4 11 -10z m20 -30 c0 -5 -2 -10 -4 -10 -3 0 -8 5 -11
10 -3 6 -1 10 4 10 6 0 11 -4 11 -10z m-2505 -96 c34 -37 35 -107 3 -128 -71
-45 -143 -21 -140 47 2 41 24 92 44 100 33 14 70 6 93 -19z m2323 -4 c49 -35
55 -71 21 -114 -53 -67 -223 10 -189 86 28 61 105 74 168 28z m212 -120 c0
-22 -6 -55 -14 -73 -15 -35 -82 -104 -92 -94 -3 3 8 30 25 60 17 30 31 65 31
78 0 26 25 69 41 69 5 0 9 -18 9 -40z m-695 -167 c23 -39 94 -108 147 -145 57
-38 70 -59 46 -74 -14 -9 -1878 -12 -1878 -3 0 7 58 61 102 93 20 15 56 53 80
84 24 31 47 60 51 63 5 3 331 4 725 2 656 -3 718 -5 727 -20z m-1845 -48 c-7
-8 -19 -15 -27 -15 -13 0 -13 3 -3 15 7 8 19 15 27 15 13 0 13 -3 3 -15z
m2403 -530 c71 -18 165 -65 193 -96 12 -13 38 -54 58 -90 43 -79 48 -134 14
-163 -19 -17 -33 -18 -128 -12 l-106 7 -105 -69 c-58 -38 -112 -77 -121 -86
-20 -20 -116 -22 -183 -4 -58 16 -78 54 -83 159 -3 61 0 85 16 120 55 120 232
247 347 249 23 0 67 -7 98 -15z m-1748 -326 c92 -26 165 -106 165 -183 0 -54
-57 -128 -127 -165 -92 -48 -273 72 -273 181 0 62 77 144 158 168 37 11 32 11
77 -1z m-260 -169 c0 -139 -2 -153 -19 -166 -55 -40 -65 2 -53 215 l2 34 -79
-2 c-44 -1 -88 -7 -98 -12 -25 -14 -41 -81 -27 -112 10 -23 64 -57 112 -71 27
-8 22 -51 -9 -64 -50 -24 -149 23 -182 84 -16 31 -17 111 -2 170 17 66 47 84
140 84 37 0 83 -6 102 -14 32 -14 36 -13 51 4 12 15 22 17 39 11 23 -8 23 -11
23 -161z m-417 135 c22 -20 25 -28 16 -43 -12 -18 -70 -23 -109 -9 -11 3 -26
2 -34 -2 -24 -15 3 -38 61 -52 63 -17 88 -46 88 -105 0 -101 -129 -137 -207
-59 -35 35 -44 75 -18 75 9 0 30 -7 46 -16 32 -16 86 -16 81 1 -1 6 -23 17
-49 26 -63 21 -103 61 -103 102 0 38 4 45 50 80 29 22 45 27 93 27 48 0 62 -4
85 -25z m1125 2 c53 -22 74 -74 58 -137 -18 -66 -24 -70 -112 -70 -85 0 -99
-9 -99 -64 0 -42 -21 -76 -46 -76 -19 0 -25 9 -37 53 -20 70 -30 304 -14 311
24 12 212 -2 250 -17z m1806 -350 c6 -8 29 -22 51 -32 22 -10 40 -22 40 -28 0
-5 -12 -22 -27 -37 -16 -14 -55 -60 -88 -102 -102 -127 -125 -134 -128 -36 -1
61 15 101 75 191 39 58 57 68 77 44z m143 -125 c7 -9 47 -46 88 -82 173 -149
229 -216 215 -260 -8 -24 -57 -60 -83 -60 -28 0 -92 46 -191 137 -104 97 -146
153 -136 183 8 25 73 100 86 100 4 0 14 -8 21 -18z m195 -537 c-7 -16 -57 -21
-57 -5 0 6 9 10 19 10 11 0 23 5 26 11 10 15 19 3 12 -16z m-90 -35 c4 -12 3
-13 -5 -1 -5 7 -14 11 -20 7 -6 -3 -14 -1 -17 5 -5 7 1 9 16 7 12 -1 24 -10
26 -18z m-1238 -26 c2 -2 -21 -4 -53 -4 -55 0 -57 -1 -50 -22 6 -22 6 -22 -16
2 l-22 25 44 6 c39 5 87 2 97 -7z m48 0 c-3 -3 -12 -4 -19 -1 -8 3 -5 6 6 6
11 1 17 -2 13 -5z m1191 -13 c3 -8 -1 -12 -9 -9 -7 2 -15 10 -17 17 -3 8 1 12
9 9 7 -2 15 -10 17 -17z m-398 -6 c0 -8 -7 -15 -15 -15 -13 0 -14 3 -3 15 16
18 18 18 18 0z m117 -7 c-3 -8 -6 -5 -6 6 -1 11 2 17 5 13 3 -3 4 -12 1 -19z
m-327 2 c0 -5 -7 -10 -16 -10 -8 0 -12 5 -9 10 3 6 10 10 16 10 5 0 9 -4 9
-10z m-290 -20 c0 -5 -2 -10 -4 -10 -3 0 -8 5 -11 10 -3 6 -1 10 4 10 6 0 11
-4 11 -10z m-1075 -10 c3 -5 -1 -10 -9 -10 -9 0 -16 5 -16 10 0 6 4 10 9 10 6
0 13 -4 16 -10z"/>
<path d="M1915 1638 c-22 -12 -49 -47 -51 -63 -1 -19 30 -63 51 -73 12 -6 43
-13 67 -17 41 -6 48 -4 77 24 64 63 23 141 -74 141 -27 0 -59 -6 -70 -12z"/>
<path d="M2290 1619 c0 -11 5 -17 10 -14 6 3 10 13 10 21 0 8 -4 14 -10 14 -5
0 -10 -9 -10 -21z"/>
<path d="M2373 1633 c-7 -2 -13 -13 -13 -24 0 -15 7 -19 39 -19 38 0 59 19 45
41 -5 9 -50 11 -71 2z"/>
<path d="M4086 3935 c-3 -9 0 -15 9 -15 16 0 20 16 6 24 -5 3 -11 -1 -15 -9z"/>
<path d="M2086 3481 c-3 -5 7 -11 22 -14 30 -6 45 0 37 14 -8 12 -52 12 -59 0z"/>
<path d="M2212 3471 c-8 -5 -12 -22 -10 -41 3 -32 6 -34 58 -46 72 -17 242
-18 258 -2 15 15 16 53 2 79 -10 17 -22 19 -153 19 -78 0 -148 -4 -155 -9z"/>
<path d="M4240 3460 c8 -5 24 -10 35 -10 17 0 17 2 5 10 -8 5 -24 10 -35 10
-17 0 -17 -2 -5 -10z"/>
<path d="M4143 3453 c15 -2 39 -2 55 0 15 2 2 4 -28 4 -30 0 -43 -2 -27 -4z"/>
<path d="M625 3290 c-8 -13 15 -24 27 -12 6 6 4 11 -6 15 -8 3 -18 2 -21 -3z"/>
<path d="M4898 1043 c7 -3 16 -2 19 1 4 3 -2 6 -13 5 -11 0 -14 -3 -6 -6z"/>
<path d="M4875 930 c-3 -5 -1 -10 4 -10 6 0 11 5 11 10 0 6 -2 10 -4 10 -3 0
-8 -4 -11 -10z"/>
<path d="M4780 835 c0 -8 5 -15 10 -15 6 0 10 7 10 15 0 8 -4 15 -10 15 -5 0
-10 -7 -10 -15z"/>
<path d="M4680 665 c0 -5 5 -17 10 -25 5 -8 10 -10 10 -5 0 6 -5 17 -10 25 -5
8 -10 11 -10 5z"/>
<path d="M936 641 c-8 -12 10 -41 25 -41 13 0 11 13 -4 35 -10 13 -16 15 -21
6z"/>
<path d="M1009 646 c0 0 -2 -8 -4 -17 -2 -12 4 -14 26 -11 36 5 38 18 4 24
-14 3 -25 5 -26 4z"/>
<path d="M1093 636 c-4 -5 3 -15 13 -23 16 -12 19 -12 22 1 4 21 42 21 42 1 0
-13 4 -14 20 -5 11 6 20 18 20 26 0 12 -11 15 -56 12 -31 -2 -58 -7 -61 -12z"/>
<path d="M1270 640 c-12 -7 -12 -12 -2 -22 10 -10 14 -10 22 1 7 12 11 12 24
2 9 -8 16 -9 16 -3 0 12 53 13 61 0 7 -12 36 0 43 18 4 11 -9 14 -72 14 -42 0
-84 -5 -92 -10z"/>
<path d="M1453 625 c-11 -24 -10 -25 15 -19 34 9 36 10 29 29 -9 23 -31 18
-44 -10z"/>
<path d="M836 625 c-3 -9 0 -15 9 -15 8 0 15 7 15 15 0 8 -4 15 -9 15 -5 0
-11 -7 -15 -15z"/>
<path d="M1540 630 c0 -5 6 -10 14 -10 8 0 18 5 21 10 3 6 -3 10 -14 10 -12 0
-21 -4 -21 -10z"/>
<path d="M1770 633 c0 -15 19 -37 26 -31 3 4 -1 14 -10 23 -9 9 -16 13 -16 8z"/>
<path d="M2713 610 c3 -11 1 -23 -4 -26 -17 -10 -9 -25 10 -19 12 3 21 0 25
-10 3 -9 2 -13 -4 -10 -6 3 -10 -1 -10 -9 0 -9 7 -16 15 -16 20 0 20 49 0 57
-14 5 -14 7 0 23 17 19 11 30 -18 30 -14 0 -18 -5 -14 -20z"/>
<path d="M2770 611 c0 -11 5 -23 10 -26 6 -3 10 3 10 14 0 11 -4 23 -10 26 -5
3 -10 -3 -10 -14z"/>
<path d="M4560 623 c0 -5 7 -18 15 -29 15 -18 15 -18 13 5 -3 23 -28 44 -28
24z"/>
<path d="M902 600 c0 -14 2 -19 5 -12 2 6 2 18 0 25 -3 6 -5 1 -5 -13z"/>
<path d="M1212 611 c4 -13 18 -16 19 -4 0 4 -5 9 -11 12 -7 2 -11 -2 -8 -8z"/>
<path d="M1620 610 c0 -5 7 -10 15 -10 8 0 15 5 15 10 0 6 -7 10 -15 10 -8 0
-15 -4 -15 -10z"/>
<path d="M1680 609 c0 -5 5 -7 10 -4 6 3 10 8 10 11 0 2 -4 4 -10 4 -5 0 -10
-5 -10 -11z"/>
<path d="M4631 604 c0 -11 3 -14 6 -6 3 7 2 16 -1 19 -3 4 -6 -2 -5 -13z"/>
<path d="M4680 607 c0 -19 16 -31 24 -18 3 5 -1 14 -9 21 -12 10 -15 10 -15
-3z"/>
<path d="M1240 569 c0 -5 5 -7 10 -4 6 3 10 8 10 11 0 2 -4 4 -10 4 -5 0 -10
-5 -10 -11z"/>
<path d="M3240 560 c0 -5 7 -10 15 -10 8 0 15 5 15 10 0 6 -7 10 -15 10 -8 0
-15 -4 -15 -10z"/>
<path d="M4002 556 c1 -10 8 -17 13 -17 15 1 12 24 -3 29 -9 3 -13 -2 -10 -12z"/>
<path d="M4230 560 c0 -5 7 -10 16 -10 8 0 12 5 9 10 -3 6 -10 10 -16 10 -5 0
-9 -4 -9 -10z"/>
<path d="M3925 550 c-7 -11 2 -30 13 -30 4 0 8 9 8 20 0 21 -11 26 -21 10z"/>
<path d="M2580 535 c-19 -23 -8 -25 14 -4 11 11 15 19 9 19 -6 0 -16 -7 -23
-15z"/>
<path d="M3085 540 c3 -5 10 -10 16 -10 5 0 9 5 9 10 0 6 -7 10 -16 10 -8 0
-12 -4 -9 -10z"/>
<path d="M3390 541 c0 -6 5 -13 10 -16 6 -3 10 1 10 9 0 9 -4 16 -10 16 -5 0
-10 -4 -10 -9z"/>
<path d="M3605 540 c4 -6 11 -8 16 -5 14 9 11 15 -7 15 -8 0 -12 -5 -9 -10z"/>
<path d="M3690 544 c0 -3 6 -12 14 -19 17 -17 30 -7 15 12 -12 13 -29 18 -29
7z"/>
<path d="M4400 541 c0 -5 5 -13 10 -16 6 -3 10 -2 10 4 0 5 -4 13 -10 16 -5 3
-10 2 -10 -4z"/>
<path d="M4487 543 c-4 -3 -7 -11 -7 -17 0 -6 5 -5 12 2 6 6 9 14 7 17 -3 3
-9 2 -12 -2z"/>
<path d="M4530 530 c0 -19 3 -21 12 -12 9 9 9 15 0 24 -9 9 -12 7 -12 -12z"/>
<path d="M2675 531 c-6 -11 9 -23 19 -14 9 9 7 23 -3 23 -6 0 -12 -4 -16 -9z"/>
<path d="M3040 526 c0 -8 7 -16 15 -20 17 -6 18 -4 9 18 -8 20 -24 21 -24 2z"/>
<path d="M3795 529 c-9 -14 -2 -20 14 -10 8 6 9 11 3 15 -6 3 -14 1 -17 -5z"/>
<path d="M4590 529 c0 -5 5 -7 10 -4 6 3 10 8 10 11 0 2 -4 4 -10 4 -5 0 -10
-5 -10 -11z"/>
<path d="M3120 520 c0 -5 5 -10 10 -10 6 0 10 5 10 10 0 6 -4 10 -10 10 -5 0
-10 -4 -10 -10z"/>
<path d="M3860 520 c0 -5 7 -10 15 -10 8 0 15 5 15 10 0 6 -7 10 -15 10 -8 0
-15 -4 -15 -10z"/>
<path d="M3965 521 c-6 -11 9 -23 19 -14 9 9 7 23 -3 23 -6 0 -12 -4 -16 -9z"/>
<path d="M4148 523 c7 -3 16 -2 19 1 4 3 -2 6 -13 5 -11 0 -14 -3 -6 -6z"/>
<path d="M4060 509 c0 -5 5 -7 10 -4 6 3 10 8 10 11 0 2 -4 4 -10 4 -5 0 -10
-5 -10 -11z"/>
<path d="M4331 504 c0 -11 3 -14 6 -6 3 7 2 16 -1 19 -3 4 -6 -2 -5 -13z"/>
<path d="M2840 500 c0 -5 5 -10 10 -10 6 0 10 5 10 10 0 6 -4 10 -10 10 -5 0
-10 -4 -10 -10z"/>
<path d="M3190 506 c0 -2 7 -9 15 -16 9 -7 15 -8 15 -2 0 5 -7 12 -15 16 -8 3
-15 4 -15 2z"/>
<path d="M4245 500 c3 -5 8 -10 11 -10 2 0 4 5 4 10 0 6 -5 10 -11 10 -5 0 -7
-4 -4 -10z"/>
<path d="M3900 480 c0 -5 5 -10 10 -10 6 0 10 5 10 10 0 6 -4 10 -10 10 -5 0
-10 -4 -10 -10z"/>
</g>
</svg>
