<?xml version="1.0" standalone="no"?>
<!DOCTYPE svg PUBLIC "-//W3C//DTD SVG 20010904//EN"
 "http://www.w3.org/TR/2001/REC-SVG-20010904/DTD/svg10.dtd">
<svg version="1.0" xmlns="http://www.w3.org/2000/svg"
 width="534.000000pt" height="568.000000pt" viewBox="0 0 534.000000 568.000000"
 preserveAspectRatio="xMidYMid meet">

<g transform="translate(0.000000,568.000000) scale(0.100000,-0.100000)"
fill="#000000" stroke="none">
<path d="M665 5103 c-16 -3 -34 -8 -40 -13 -5 -4 -28 -13 -51 -19 -54 -15
-125 -62 -176 -121 -43 -48 -58 -73 -98 -164 l-22 -48 -2 -1254 c-2 -806 0
-1254 7 -1254 15 0 166 -150 201 -200 38 -55 56 -103 56 -151 0 -23 6 -39 15
-43 19 -7 19 -26 0 -26 -8 0 -15 4 -15 10 0 6 -9 6 -26 -1 -28 -10 -70 8 -80
36 -8 20 -83 99 -89 93 -3 -3 15 -47 40 -99 40 -82 80 -185 170 -439 63 -174
121 -518 96 -559 -7 -10 -39 -12 -142 -9 -74 3 -142 8 -153 13 -17 7 -17 6 -6
-16 58 -112 210 -209 329 -209 20 0 43 -5 51 -10 13 -8 13 -10 1 -10 -12 0
-13 -2 -2 -13 10 -10 15 -9 25 6 7 9 19 17 26 17 7 0 10 -3 7 -7 -4 -3 1 -15
10 -25 15 -17 15 -20 3 -28 -11 -7 -11 -10 -2 -10 7 0 17 11 22 24 11 30 30
43 30 21 0 -20 24 -45 43 -45 8 0 26 9 41 21 31 24 34 14 6 -21 -21 -27 -25
-40 -11 -40 5 0 11 9 14 20 8 30 36 36 53 12 14 -21 44 -20 44 0 0 6 -7 8 -15
4 -8 -3 -15 -1 -15 4 0 21 30 8 47 -20 12 -20 23 -28 34 -25 10 3 20 1 24 -5
9 -15 25 -12 25 4 0 42 70 62 92 27 10 -16 15 -17 26 -8 11 9 17 7 27 -6 14
-19 25 -22 25 -7 0 16 53 59 73 60 28 0 19 -15 -24 -39 -41 -24 -44 -34 -9
-36 13 -1 20 5 20 17 0 10 6 18 14 18 8 0 16 5 18 11 3 9 10 9 27 0 18 -10 22
-19 17 -39 -3 -15 -3 -21 0 -14 8 17 35 15 62 -3 20 -15 21 -15 15 2 -4 10
-13 22 -20 26 -7 5 -11 12 -8 17 3 4 -4 6 -15 3 -19 -5 -50 17 -50 35 0 6 -6
13 -12 15 -10 4 -9 6 1 6 8 1 19 -6 26 -16 12 -16 40 -9 30 8 -11 16 3 10 29
-15 15 -13 26 -32 26 -43 0 -28 37 -36 58 -15 9 10 22 28 29 42 9 20 12 21 12
6 1 -13 6 -17 21 -13 15 4 20 0 20 -13 0 -10 7 -20 14 -23 10 -4 13 -1 10 7
-10 26 15 27 32 1 18 -28 34 -33 34 -10 0 9 -8 19 -17 22 -33 12 -46 53 -17
53 10 0 14 -6 10 -15 -3 -9 0 -15 9 -15 16 0 45 27 45 41 0 6 5 7 10 4 15 -9
12 -35 -4 -35 -18 0 -29 -16 -21 -30 8 -14 33 -1 40 21 8 25 25 24 25 -1 0
-26 17 -26 25 0 7 21 35 28 35 9 0 -5 5 -7 10 -4 5 3 10 -1 10 -9 0 -19 21
-21 38 -4 9 9 17 9 36 -2 14 -7 32 -10 40 -7 9 4 24 -2 33 -12 26 -27 63 -37
63 -16 0 11 -6 15 -19 10 -23 -7 -37 21 -14 29 12 5 13 9 3 21 -10 12 -9 15 4
15 9 0 16 -7 16 -15 0 -20 10 -19 26 3 13 16 13 16 14 0 0 -21 37 -61 49 -53
5 2 11 -2 15 -10 7 -19 26 -19 26 0 0 8 5 15 10 15 6 0 10 9 10 20 0 21 -15
27 -25 10 -9 -14 -45 7 -45 25 0 8 7 15 16 15 8 0 13 -4 9 -9 -3 -5 0 -13 6
-17 6 -3 15 -1 19 6 6 9 12 9 29 -1 11 -8 21 -17 21 -21 0 -5 7 -8 15 -8 8 0
15 7 15 16 0 8 5 12 11 8 6 -3 15 0 20 7 6 9 9 10 9 2 0 -6 -7 -18 -15 -27 -8
-8 -15 -19 -15 -24 0 -11 76 -33 85 -24 12 12 4 23 -14 17 -10 -3 -24 1 -31
10 -11 13 -10 18 6 30 23 17 44 19 44 4 0 -6 9 -8 20 -4 11 4 20 2 20 -4 0
-14 47 -14 55 -1 3 6 -3 10 -14 10 -12 0 -21 5 -21 10 0 6 6 10 14 10 8 0 23
3 33 6 14 5 15 4 4 -4 -12 -9 -9 -17 19 -49 43 -49 67 -59 93 -36 10 10 23 28
28 41 5 12 15 22 23 22 10 0 13 -6 10 -15 -4 -9 0 -15 9 -15 9 0 22 -8 29 -18
22 -31 50 -42 63 -26 13 18 84 22 95 4 4 -7 12 -10 18 -6 5 3 12 -3 15 -14 3
-11 12 -20 21 -20 20 0 20 14 0 46 -13 19 -14 29 -6 47 11 21 11 21 6 -4 -4
-19 -1 -28 11 -33 13 -5 15 -1 10 17 -6 18 -2 16 20 -11 22 -25 31 -30 42 -21
11 10 11 15 -2 29 -15 16 -14 17 10 13 14 -3 25 -11 25 -19 0 -15 18 -29 27
-20 3 3 1 11 -5 19 -9 10 -3 15 28 23 36 10 39 9 44 -11 11 -42 73 -39 96 5 6
11 18 20 26 20 8 0 12 5 8 11 -4 8 -1 8 12 1 11 -5 25 -7 32 -5 9 4 11 -2 6
-21 -3 -15 -2 -26 4 -26 5 0 13 11 16 25 4 15 13 25 24 25 14 0 15 -2 2 -10
-12 -7 -12 -12 -2 -22 9 -9 15 -9 24 0 16 16 28 15 28 -3 0 -8 5 -15 10 -15 6
0 10 7 10 15 0 8 -4 15 -10 15 -5 0 -10 15 -10 33 1 29 2 30 12 12 6 -11 14
-22 18 -25 3 -3 9 -13 13 -22 5 -14 10 -15 31 -5 14 7 26 19 26 27 0 11 3 11
12 2 10 -10 10 -15 -2 -22 -11 -7 -12 -12 -3 -21 13 -13 34 2 47 36 l7 20 16
-20 c11 -14 17 -16 20 -7 3 6 18 12 34 12 30 0 39 14 17 24 -7 3 -2 4 12 3 19
-2 24 -7 23 -24 -2 -17 4 -24 22 -29 14 -3 32 -4 40 0 9 3 15 0 15 -9 0 -14
-12 -19 -32 -16 -11 1 -10 -11 2 -29 8 -12 11 -12 28 3 11 10 26 15 35 11 12
-4 20 2 27 21 14 36 13 38 -14 20 -22 -15 -24 -14 -29 4 -2 10 0 25 5 32 7 11
8 9 4 -5 -5 -15 -2 -18 19 -14 14 3 33 -1 42 -8 17 -12 17 -13 1 -19 -23 -9
-23 -34 0 -42 9 -3 27 -15 40 -27 22 -19 24 -20 33 -3 11 19 35 23 41 6 4 -12
38 -1 38 13 0 6 -7 8 -15 5 -19 -8 -31 11 -16 26 9 9 17 8 32 -1 11 -7 24 -10
29 -7 5 3 11 1 15 -5 3 -5 0 -10 -7 -10 -14 -1 20 -30 34 -30 13 0 9 38 -4 43
-10 3 -10 8 -2 16 8 9 19 4 44 -19 17 -16 37 -30 44 -30 6 0 22 -7 34 -16 27
-19 45 -9 19 10 -21 16 -22 32 -1 40 22 9 33 -1 27 -24 -4 -15 0 -20 16 -20
13 0 19 5 15 14 -8 21 65 29 93 10 13 -8 23 -10 23 -4 0 5 -4 10 -10 10 -5 0
-10 8 -10 18 0 10 -6 19 -12 20 -7 0 -24 4 -38 8 -22 7 -24 6 -11 -9 7 -9 10
-17 5 -16 -5 0 -19 13 -32 29 -25 32 -26 73 -2 78 15 2 43 -44 31 -51 -3 -2
-1 -3 5 -1 6 1 17 -3 23 -9 8 -8 15 -6 28 5 10 8 23 13 30 11 6 -2 14 1 18 6
9 16 25 13 25 -4 0 -9 -10 -20 -22 -25 l-23 -9 23 0 c12 -1 22 4 22 9 0 6 5
10 10 10 6 0 10 -6 10 -14 0 -8 7 -16 15 -20 18 -6 20 -36 3 -36 -8 0 -9 -3
-2 -10 14 -14 44 -2 37 16 -8 20 20 27 63 15 29 -8 40 -8 46 2 13 20 9 30 -7
17 -18 -15 -33 -6 -46 27 -13 34 -3 42 17 14 10 -14 22 -20 32 -16 8 3 19 0
23 -6 10 -16 29 -2 29 22 0 10 4 19 9 19 13 0 22 -28 11 -35 -12 -8 -13 -45
-1 -45 12 0 21 37 21 88 0 44 -14 57 -23 21 -7 -27 -64 -24 -59 4 4 21 -14 23
-22 1 -4 -12 -13 -14 -31 -10 -14 4 -34 2 -45 -4 -11 -6 -21 -6 -24 -1 -9 15
-96 9 -96 -6 0 -7 -4 -13 -9 -13 -20 0 -7 40 14 41 104 5 198 19 212 31 10 8
13 6 13 -5 0 -8 6 -20 14 -26 12 -10 14 -6 13 20 -1 20 3 34 13 37 13 4 13 3
2 -10 -16 -20 2 -35 23 -18 10 9 16 7 24 -7 10 -17 10 -17 11 0 0 9 -4 17 -9
17 -20 0 -19 31 1 50 16 15 25 17 35 8 7 -6 17 -8 20 -4 4 4 2 11 -5 15 -9 5
1 24 34 67 54 69 82 124 91 176 4 31 2 38 -11 38 -9 0 -16 -8 -16 -19 0 -26
-32 -31 -188 -26 -97 3 -136 8 -147 18 -11 11 -15 54 -17 183 -5 273 2 693 12
699 18 11 50 -19 49 -45 -1 -17 -3 -19 -6 -7 -8 30 -23 8 -23 -33 0 -21 -4
-50 -10 -64 -5 -14 -7 -33 -4 -41 10 -24 41 0 49 37 3 18 14 51 24 73 41 91
51 116 51 131 0 8 7 17 15 20 8 4 15 15 15 25 0 10 4 19 9 19 5 0 12 13 16 30
4 16 10 29 13 29 19 -3 23 2 13 15 -8 10 -9 16 -1 21 5 3 10 1 10 -5 0 -6 5
-8 11 -5 6 4 8 12 6 19 -5 13 19 51 33 51 13 0 90 86 90 101 0 6 6 14 13 17
10 4 13 35 12 129 -1 68 -4 129 -8 135 -4 6 -4 14 1 17 5 3 7 27 5 53 -2 26
-5 104 -6 173 -1 69 -6 128 -11 132 -6 4 -6 15 0 30 6 13 9 106 9 213 -1 107
2 195 8 202 6 9 4 15 -7 19 -13 5 -14 9 -5 20 6 8 8 25 5 39 -4 14 -3 31 1 38
12 19 13 39 4 79 -6 25 -5 38 3 41 8 3 8 10 -2 26 -10 17 -10 25 0 41 10 16
10 24 -1 41 -7 12 -9 24 -4 28 5 3 10 40 11 81 3 79 3 85 1 140 0 19 0 55 1
79 2 28 -3 46 -11 52 -12 7 -12 9 0 9 9 0 11 8 7 25 -4 15 -2 25 4 25 6 0 9 4
6 9 -3 5 -7 83 -8 173 0 89 -5 171 -11 182 -6 12 -5 21 2 25 13 9 10 53 -4 63
-7 5 -6 13 1 25 11 18 9 95 -3 123 -3 8 -8 26 -10 39 -2 13 -11 33 -19 45 -8
11 -14 28 -14 37 0 10 -3 19 -7 21 -5 2 -17 20 -28 41 -24 48 -91 126 -119
138 -12 5 -28 13 -36 18 -83 47 -17 44 -944 41 -474 -2 -1311 -4 -1861 -5
-686 -2 -1011 -6 -1034 -14 -35 -11 -56 -7 -46 10 4 5 -7 9 -23 9 -16 0 -49 2
-73 4 -24 2 -57 2 -74 -1z m72 -39 c-3 -3 -12 -4 -19 -1 -8 3 -5 6 6 6 11 1
17 -2 13 -5z m163 -14 c0 -12 -59 -10 -66 2 -3 4 11 8 30 8 20 0 36 -5 36 -10z
m-62 -47 c2 -8 -6 -13 -22 -13 -13 0 -28 -4 -31 -10 -8 -12 -185 -13 -204 -1
-10 7 -8 12 10 25 20 14 44 16 133 14 76 -2 111 -7 114 -15z m197 -8 c0 -25
-37 -32 -54 -11 -18 21 -4 38 27 34 19 -2 27 -9 27 -23z m-278 -41 c-3 -3 -12
-4 -19 -1 -8 3 -5 6 6 6 11 1 17 -2 13 -5z m2887 -257 c18 -25 21 -43 22 -145
0 -64 -3 -130 -7 -147 -3 -16 -7 -22 -8 -12 -1 16 -20 25 -22 10 -4 -52 -11
-90 -24 -130 -29 -88 -37 -103 -56 -103 -21 0 -21 1 37 -64 37 -41 87 -12 106
61 5 24 15 43 21 43 16 0 1 -80 -21 -109 -17 -23 -27 -26 -72 -25 -42 2 -57 7
-80 29 -30 28 -47 76 -35 95 5 8 11 8 20 0 10 -8 15 -8 20 1 12 19 -5 333 -18
341 -7 4 -30 8 -52 9 -22 1 -31 4 -20 6 32 8 42 21 47 61 3 20 13 54 21 75 16
37 18 38 58 35 32 -2 47 -9 63 -31z m119 -156 l32 -9 -37 -1 c-35 -1 -38 1
-37 27 1 16 3 20 6 10 2 -10 19 -22 36 -27z m-1817 -223 c25 -23 55 -59 65
-81 18 -34 18 -42 7 -74 -7 -19 -35 -55 -62 -79 -41 -37 -55 -44 -90 -44 -93
0 -181 111 -154 193 21 64 99 127 156 127 24 0 44 -10 78 -42z m-421 -19 c67
-63 78 -101 45 -153 -26 -44 -98 -106 -120 -106 -21 0 -86 43 -111 73 -44 51
-39 131 10 185 63 69 104 70 176 1z m2609 -31 c39 -55 2 -150 -58 -150 -69 0
-100 86 -48 134 46 44 83 49 106 16z m816 -88 c0 -11 -4 -20 -10 -20 -5 0 -10
9 -10 20 0 11 5 20 10 20 6 0 10 -9 10 -20z m0 -90 c0 -5 -2 -10 -4 -10 -3 0
-8 5 -11 10 -3 6 -1 10 4 10 6 0 11 -4 11 -10z m-454 -304 c32 -11 16 -667
-18 -730 -7 -12 -12 -70 -12 -136 l-1 -115 -46 1 -47 0 -7 -55 c-4 -31 -10
-171 -14 -311 -8 -263 -15 -306 -55 -339 -23 -19 -30 -8 -17 30 7 20 11 128
11 299 0 229 -2 269 -15 280 -36 30 -50 -39 -61 -299 -6 -150 -4 -176 16 -269
15 -71 19 -107 12 -114 -16 -16 -32 0 -55 51 -17 38 -22 77 -28 226 -4 99 -8
241 -9 315 -1 74 -4 142 -8 151 -6 15 -12 15 -62 -2 -36 -11 -65 -30 -84 -51
-66 -77 -79 -88 -111 -94 -62 -11 -131 38 -213 152 -76 108 -132 148 -132 96
0 -44 -97 -110 -133 -90 -29 15 -31 2 -7 -37 l22 -36 -178 6 c-99 3 -441 7
-761 9 -503 4 -582 2 -587 -10 -3 -8 0 -16 7 -19 24 -7 867 -18 1202 -16 274
2 343 0 356 -11 20 -17 102 -125 119 -158 7 -14 23 -33 34 -44 38 -34 154 -83
223 -95 38 -7 78 -14 91 -17 l23 -5 -3 -199 -3 -199 27 -28 28 -29 0 -467 c0
-497 2 -517 47 -517 31 0 30 -16 -2 -24 -21 -5 -25 -12 -25 -40 l0 -34 -62 -6
c-224 -20 -2558 -28 -3035 -11 -190 7 -192 7 -208 32 -20 30 -29 119 -70 703
-8 109 -27 552 -27 605 0 22 4 140 8 263 4 152 3 226 -4 235 -7 8 -7 18 -2 27
15 23 13 343 -2 334 -8 -5 -9 -2 -5 10 4 10 10 189 13 399 4 210 10 384 15
387 8 6 3838 1 3855 -4z m414 -735 c0 -6 -4 -13 -10 -16 -5 -3 -10 1 -10 9 0
9 5 16 10 16 6 0 10 -4 10 -9z m-240 -1160 c0 -6 -4 -13 -10 -16 -5 -3 -10 1
-10 9 0 9 5 16 10 16 6 0 10 -4 10 -9z m-370 -661 c6 -124 13 -269 17 -323 l6
-99 -29 4 -29 3 -8 235 c-9 277 -5 539 8 560 12 18 19 -63 35 -380z m-2244
-598 c-3 -5 -23 -7 -45 -6 -25 1 -41 -2 -41 -10 0 -8 -2 -8 -8 1 -4 6 -25 13
-47 16 -22 2 2 4 53 5 51 1 91 -2 88 -6z m41 2 c-3 -3 -12 -4 -19 -1 -8 3 -5
6 6 6 11 1 17 -2 13 -5z m293 -2 c0 -4 -17 -6 -37 -4 -59 5 -63 10 -10 11 26
1 47 -3 47 -7z m-626 -18 c3 -8 2 -12 -4 -9 -6 3 -10 10 -10 16 0 14 7 11 14
-7z m1793 -6 c-3 -8 -6 -5 -6 6 -1 11 2 17 5 13 3 -3 4 -12 1 -19z m-1847 2
c0 -5 -5 -10 -11 -10 -5 0 -7 5 -4 10 3 6 8 10 11 10 2 0 4 -4 4 -10z m2540
-10 c21 -21 26 -40 12 -40 -5 0 -14 11 -20 24 -8 18 -16 22 -35 19 -14 -3 -28
0 -31 6 -13 20 53 12 74 -9z m150 -6 c0 -14 -4 -23 -10 -19 -5 3 -10 15 -10
26 0 10 5 19 10 19 6 0 10 -12 10 -26z m-3069 -9 c-1 -15 -24 -12 -29 3 -3 9
2 13 12 10 10 -1 17 -7 17 -13z m339 6 c0 -12 -20 -25 -27 -18 -7 7 6 27 18
27 5 0 9 -4 9 -9z m740 -1 c0 -5 -4 -10 -10 -10 -5 0 -10 5 -10 10 0 6 5 10
10 10 6 0 10 -4 10 -10z m250 -20 c0 -10 -7 -20 -15 -24 -8 -3 -14 -11 -13
-18 2 -7 -7 -14 -19 -16 -18 -3 -23 1 -23 18 0 15 8 22 30 27 25 4 29 9 24 26
-4 13 -2 17 5 13 6 -4 11 -15 11 -26z m165 20 c3 -5 1 -10 -4 -10 -6 0 -11 5
-11 10 0 6 2 10 4 10 3 0 8 -4 11 -10z m375 -9 c7 -13 7 -22 0 -26 -5 -3 -10
1 -10 9 0 9 -4 16 -10 16 -5 0 -10 5 -10 10 0 17 19 11 30 -9z m80 4 c0 -8 -4
-15 -10 -15 -5 0 -10 7 -10 15 0 8 5 15 10 15 6 0 10 -7 10 -15z m150 5 c0 -5
-4 -10 -10 -10 -5 0 -10 5 -10 10 0 6 5 10 10 10 6 0 10 -4 10 -10z m210 -14
c0 -2 -9 -2 -20 1 -11 3 -20 9 -20 15 0 5 9 4 20 -2 11 -6 20 -12 20 -14z
m148 -12 c-14 -14 -15 -14 -10 11 3 19 8 23 15 16 8 -8 7 -16 -5 -27z m-2633
16 c3 -5 1 -10 -4 -10 -6 0 -11 5 -11 10 0 6 2 10 4 10 3 0 8 -4 11 -10z m115
6 c0 -11 -19 -15 -25 -6 -3 5 1 10 9 10 9 0 16 -2 16 -4z m337 -12 c4 -11 -33
-54 -46 -54 -12 0 -35 49 -26 57 4 5 10 2 12 -4 7 -19 33 -16 33 3 0 16 21 15
27 -2z m1930 10 c-3 -3 -12 -4 -19 -1 -8 3 -5 6 6 6 11 1 17 -2 13 -5z m-2627
-14 c0 -5 -4 -10 -9 -10 -6 0 -13 5 -16 10 -3 6 1 10 9 10 9 0 16 -4 16 -10z
m208 -20 c26 0 29 -18 6 -27 -10 -4 -25 4 -40 20 -28 31 -32 48 -6 24 10 -10
28 -17 40 -17z m842 20 c0 -5 -4 -10 -10 -10 -5 0 -10 5 -10 10 0 6 5 10 10
10 6 0 10 -4 10 -10z m110 -3 c0 -7 -9 -13 -20 -13 -20 0 -25 7 -13 19 11 12
33 8 33 -6z m520 3 c0 -5 -4 -10 -10 -10 -5 0 -10 5 -10 10 0 6 5 10 10 10 6
0 10 -4 10 -10z m216 -10 c16 0 17 -5 8 -37 -4 -13 -13 -23 -20 -23 -10 0 -13
7 -8 25 4 15 2 25 -4 25 -6 0 -12 -7 -14 -15 -2 -10 -7 -12 -18 -5 -13 9 -11
14 10 31 14 12 26 16 28 10 2 -6 10 -11 18 -11z m61 -2 c-3 -8 -6 -5 -6 6 -1
11 2 17 5 13 3 -3 4 -12 1 -19z m196 7 c-3 -9 -8 -14 -10 -11 -3 3 -2 9 2 15
9 16 15 13 8 -4z m67 -6 c0 -5 -4 -9 -10 -9 -5 0 -10 7 -10 16 0 8 5 12 10 9
6 -3 10 -10 10 -16z m780 11 c0 -5 -4 -10 -10 -10 -5 0 -10 5 -10 10 0 6 5 10
10 10 6 0 10 -4 10 -10z m98 -11 c11 -18 11 -23 -5 -35 -10 -7 -21 -14 -25
-14 -3 0 -4 -9 -1 -20 5 -21 -3 -25 -31 -14 -18 7 -23 74 -6 74 6 0 10 -4 10
-10 0 -14 37 -13 46 2 4 6 2 14 -4 16 -7 2 -12 8 -12 13 0 16 15 10 28 -12z
m106 0 c8 7 15 4 24 -10 7 -10 8 -19 3 -19 -5 0 -12 6 -15 13 -5 9 -7 9 -12
-1 -5 -10 -10 -10 -25 4 -10 9 -16 21 -12 27 3 5 10 2 15 -7 7 -12 13 -14 22
-7z m447 6 c19 5 21 4 9 -4 -12 -9 -11 -11 8 -11 12 0 22 -4 22 -9 0 -18 -18
-21 -34 -6 -9 9 -21 15 -29 13 -13 -3 -17 3 -17 25 0 9 3 8 9 -2 5 -8 17 -11
32 -6z m-1318 -25 c-7 -27 -22 -35 -29 -16 -6 15 16 47 28 40 3 -2 4 -13 1
-24z m987 20 c0 -5 -2 -10 -4 -10 -3 0 -8 5 -11 10 -3 6 -1 10 4 10 6 0 11 -4
11 -10z m-2922 -12 c-6 -18 -28 -21 -28 -4 0 9 7 16 16 16 9 0 14 -5 12 -12z
m2877 2 c3 -5 1 -10 -4 -10 -6 0 -11 5 -11 10 0 6 2 10 4 10 3 0 8 -4 11 -10z
m122 -16 c10 -10 12 -19 6 -25 -7 -7 -16 -1 -27 15 -18 29 -4 36 21 10z
m-1437 -15 c0 -5 -7 -9 -15 -9 -15 0 -20 12 -9 23 8 8 24 -1 24 -14z m1353 5
c6 -6 -23 -44 -35 -44 -5 0 -8 11 -8 25 0 18 5 25 18 25 10 0 21 -3 25 -6z"/>
<path d="M2007 3493 c-4 -3 -7 -57 -7 -119 0 -75 -4 -115 -12 -120 -19 -12
-54 39 -79 113 -29 88 -45 113 -75 113 -19 0 -24 -5 -24 -25 0 -14 -11 -48
-25 -75 -13 -26 -29 -70 -35 -96 -15 -67 -2 -76 54 -36 24 18 49 32 54 32 5 0
29 -15 54 -34 45 -35 46 -35 138 -31 69 2 97 7 109 19 14 15 14 18 1 26 -8 5
-34 10 -58 10 -53 0 -62 19 -62 125 0 92 -10 122 -33 98z"/>
<path d="M2765 3488 c-3 -8 -4 -72 -3 -144 3 -124 4 -129 25 -132 19 -3 22 2
25 35 3 33 6 38 27 38 17 0 30 -10 44 -35 42 -77 92 -64 52 14 -16 30 -20 76
-7 76 14 0 34 60 28 84 -13 53 -39 70 -115 74 -55 3 -72 1 -76 -10z m104 -61
c6 -8 12 -24 13 -38 3 -21 -1 -24 -32 -24 -33 0 -35 2 -38 38 -3 33 -1 37 21
37 14 0 30 -6 36 -13z"/>
<path d="M3249 3493 c-5 -62 3 -259 12 -269 24 -29 36 -16 31 36 -5 55 -2 59
63 63 l39 2 11 -54 c21 -112 47 -52 49 114 1 78 -1 90 -16 93 -15 3 -18 -4
-18 -37 0 -48 -8 -54 -77 -57 -58 -2 -59 -1 -65 75 -2 19 -9 36 -15 39 -7 2
-13 0 -14 -5z"/>
<path d="M3874 3494 c-5 -1 -22 -5 -37 -8 -20 -5 -33 -17 -43 -41 -8 -19 -14
-39 -14 -45 0 -22 49 -60 78 -60 31 0 62 -26 62 -53 0 -18 -7 -20 -89 -21 -30
-1 -56 -6 -58 -12 -6 -16 63 -44 111 -44 54 0 76 22 76 77 0 52 -23 80 -80 96
-34 10 -46 18 -48 35 -5 31 38 50 74 33 31 -14 44 -8 37 18 -4 17 -43 31 -69
25z"/>
<path d="M1140 3342 c0 -100 4 -153 11 -158 16 -9 27 12 34 69 9 65 32 87 91
87 69 0 52 24 -22 30 -52 4 -59 8 -62 27 -4 29 29 43 97 43 30 0 53 6 60 14
17 20 8 23 -106 31 l-103 7 0 -150z"/>
<path d="M1387 3482 c-15 -3 -17 -9 -11 -30 4 -15 6 -68 5 -118 -2 -71 1 -93
13 -103 29 -24 36 -2 36 118 0 124 -6 142 -43 133z"/>
<path d="M2280 3351 c0 -87 4 -141 10 -141 6 0 13 0 18 0 4 -1 9 16 12 37 5
35 8 38 38 41 19 2 48 11 65 21 26 14 33 25 35 56 7 85 -19 112 -117 121 l-61
6 0 -141z m123 68 c16 -26 0 -66 -28 -73 -37 -9 -45 -1 -45 50 0 45 0 45 31
42 18 -2 36 -10 42 -19z"/>
<path d="M2502 3392 c4 -90 7 -103 34 -138 35 -47 43 -54 69 -54 32 0 67 23
86 55 26 45 26 235 -1 235 -4 0 -10 -35 -14 -77 -11 -122 -39 -168 -86 -143
-29 16 -42 52 -49 140 -5 63 -9 75 -25 78 -18 4 -18 -2 -14 -96z"/>
<path d="M3074 3480 c-25 -10 -94 -88 -94 -106 0 -23 37 -99 64 -132 25 -29
33 -32 81 -32 44 0 57 4 69 22 22 31 21 52 -1 43 -55 -21 -80 -18 -116 16 -50
48 -53 68 -17 117 32 45 53 52 81 26 34 -31 69 12 37 44 -14 14 -73 15 -104 2z"/>
<path d="M3592 3478 c-7 -7 -12 -22 -12 -34 0 -12 -22 -65 -50 -118 -27 -53
-50 -101 -50 -106 0 -20 26 -9 74 30 26 22 54 40 61 40 12 0 56 -32 93 -67 37
-36 42 4 9 68 -13 24 -33 71 -46 104 -21 56 -46 95 -61 95 -3 0 -11 -5 -18
-12z m42 -124 c10 -26 7 -34 -14 -34 -11 0 -20 4 -20 9 0 17 12 41 20 41 4 0
11 -7 14 -16z"/>
<path d="M4001 3418 c1 -40 6 -102 13 -138 13 -76 21 -80 118 -60 50 11 58 16
58 35 0 12 -7 28 -15 35 -8 7 -15 20 -15 30 0 12 -9 17 -35 18 -25 1 -35 -3
-35 -13 0 -10 10 -15 29 -15 24 0 41 -14 41 -36 0 -2 -22 -4 -50 -4 -44 0 -50
3 -56 24 -12 50 -3 61 55 63 62 3 64 4 55 28 -6 15 -16 17 -61 12 l-55 -6 7
27 c10 40 19 45 58 31 41 -14 70 -6 65 18 -3 15 -17 18 -91 21 l-87 3 1 -73z"/>
<path d="M1476 3433 c12 -172 17 -203 30 -214 26 -22 45 -3 42 43 -4 61 19 60
80 -1 27 -28 54 -51 61 -51 8 0 11 41 11 135 0 116 -2 135 -16 135 -13 0 -14
-9 -9 -54 10 -76 0 -85 -44 -44 -53 50 -105 86 -133 93 -25 6 -25 5 -22 -42z"/>
<path d="M4083 3174 c-22 -22 -25 -32 -21 -75 3 -27 8 -52 12 -56 3 -4 31 -6
61 -5 53 1 55 0 68 -31 8 -18 26 -47 41 -64 32 -38 66 -43 109 -14 40 26 56
53 63 103 8 56 -23 103 -91 140 -43 24 -62 28 -133 28 -76 0 -85 -2 -109 -26z"/>
<path d="M1600 2953 c-100 -132 -280 -333 -297 -333 -8 0 -30 12 -49 26 -83
64 -72 -26 13 -107 46 -44 54 -48 75 -38 13 6 46 41 73 77 65 87 135 162 150
162 17 0 25 -69 25 -205 0 -78 -4 -116 -12 -123 -7 -5 -97 -13 -199 -17 -159
-6 -190 -5 -216 8 -52 27 -63 74 -63 260 0 141 3 166 19 193 27 44 74 62 203
78 l113 14 -122 1 c-139 1 -190 -14 -236 -69 l-27 -32 0 -201 c0 -225 3 -235
65 -279 l40 -29 185 5 c185 4 247 13 270 41 9 11 12 67 11 207 l-2 192 62 56
62 56 -17 32 c-30 58 -90 70 -126 25z"/>
<path d="M1896 2523 c-3 -3 -6 -12 -6 -19 0 -19 74 -22 820 -33 377 -5 726
-13 776 -16 75 -6 92 -5 96 7 4 8 3 20 0 25 -4 7 -85 15 -197 22 -213 12
-1479 24 -1489 14z"/>
<path d="M1620 2223 c-12 -16 -84 -91 -159 -168 l-138 -141 -30 23 c-17 13
-50 27 -74 32 -35 6 -40 10 -25 16 11 5 26 3 38 -4 13 -8 24 -8 38 -1 10 5 26
7 34 4 12 -4 16 0 16 15 0 16 10 26 35 36 19 8 40 25 46 37 7 13 18 27 25 31
8 4 14 12 14 18 0 5 13 23 29 38 40 39 32 41 -150 41 -138 0 -151 -2 -191 -24
-71 -40 -75 -60 -69 -288 5 -178 8 -199 27 -224 47 -64 62 -69 227 -74 192 -6
271 0 294 23 23 23 30 118 22 287 -7 146 -1 165 64 203 56 33 82 70 67 97 -29
55 -105 67 -140 23z m-460 -288 c9 0 21 -18 30 -46 19 -57 55 -118 75 -125 25
-10 17 -21 -17 -26 -89 -14 -130 86 -118 287 l4 70 5 -80 c5 -62 9 -80 21 -80z"/>
<path d="M2280 2051 c-195 -3 -361 -10 -367 -14 -7 -5 -13 -12 -13 -17 0 -8
902 -15 1540 -12 234 1 423 13 410 26 -8 8 -112 11 -358 11 -191 1 -462 4
-602 7 -140 3 -415 3 -610 -1z"/>
<path d="M3747 1893 c-4 -3 -376 -7 -828 -9 -824 -2 -1039 -8 -1021 -26 6 -6
308 -8 828 -4 888 6 1146 14 1166 34 9 9 -3 12 -63 12 -42 0 -79 -3 -82 -7z"/>
<path d="M2070 1720 c-198 -9 -190 -8 -190 -18 0 -11 1849 -26 1948 -17 39 4
70 11 67 15 -2 4 -331 10 -730 13 -399 4 -771 9 -828 11 -56 2 -176 0 -267 -4z"/>
<path d="M1575 1474 l-14 -35 -148 6 c-191 9 -267 -2 -329 -47 l-46 -33 7
-195 c11 -301 8 -298 310 -302 223 -3 231 -1 263 62 14 28 17 62 17 175 0 77
-3 149 -8 161 -6 16 5 33 53 85 32 35 59 72 60 82 0 10 -13 32 -29 48 -24 24
-38 29 -75 29 -43 0 -47 -2 -61 -36z m-35 -60 c0 -3 -24 -34 -52 -69 -102
-122 -120 -146 -145 -190 -27 -50 -33 -52 -71 -29 -48 29 -74 81 -73 148 0
123 -5 116 81 116 41 1 113 7 160 14 47 8 88 14 93 15 4 1 7 -2 7 -5z m-34
-276 c-9 -18 -32 -51 -51 -73 -19 -22 -35 -43 -35 -47 0 -7 -53 -38 -66 -38
-3 0 12 15 33 33 22 17 55 57 73 87 36 59 53 80 58 75 2 -2 -4 -18 -12 -37z
m-219 -154 c-3 -3 -12 -4 -19 -1 -8 3 -5 6 6 6 11 1 17 -2 13 -5z"/>
<path d="M1909 1295 c-4 -3 -4 -15 -2 -28 l4 -22 412 -2 c227 -1 583 -4 792
-6 449 -4 765 1 765 12 0 19 -61 24 -405 32 -502 12 -1559 21 -1566 14z"/>
<path d="M1910 1088 c0 -12 23 -16 123 -21 67 -3 178 -11 247 -16 278 -23 494
-28 840 -19 737 19 797 22 774 35 -15 9 -216 13 -780 17 -417 3 -859 8 -981
12 -194 6 -223 4 -223 -8z"/>
<path d="M5015 3670 c-3 -5 -1 -10 4 -10 6 0 11 5 11 10 0 6 -2 10 -4 10 -3 0
-8 -4 -11 -10z"/>
<path d="M5010 2405 c7 -9 15 -13 17 -11 7 7 -7 26 -19 26 -6 0 -6 -6 2 -15z"/>
<path d="M5020 2150 c0 -5 5 -10 10 -10 6 0 10 5 10 10 0 6 -4 10 -10 10 -5 0
-10 -4 -10 -10z"/>
<path d="M5012 2050 c0 -14 2 -19 5 -12 2 6 2 18 0 25 -3 6 -5 1 -5 -13z"/>
<path d="M4990 2008 c0 -9 -3 -23 -6 -32 -3 -9 -2 -16 4 -16 14 0 21 35 11 51
-7 11 -9 11 -9 -3z"/>
<path d="M5020 1969 c0 -5 5 -7 10 -4 6 3 10 8 10 11 0 2 -4 4 -10 4 -5 0 -10
-5 -10 -11z"/>
<path d="M5050 1905 c0 -9 6 -12 15 -9 8 4 15 10 15 15 0 5 -7 9 -15 9 -8 0
-15 -7 -15 -15z"/>
<path d="M5107 1914 c-11 -11 3 -24 18 -18 8 4 12 10 9 15 -6 11 -18 12 -27 3z"/>
<path d="M4993 1875 c0 -15 5 -25 14 -25 9 0 13 6 10 14 -3 7 0 19 6 25 8 8 6
11 -10 11 -15 0 -20 -6 -20 -25z"/>
<path d="M5040 1842 c0 -4 9 -8 20 -8 11 0 20 4 20 8 0 4 -9 8 -20 8 -11 0
-20 -4 -20 -8z"/>
<path d="M4991 1821 c-10 -6 -10 -10 -1 -16 7 -4 19 0 28 9 14 13 14 16 2 16
-8 0 -21 -4 -29 -9z"/>
<path d="M5033 1773 c-18 -7 -16 -23 2 -23 8 0 15 7 15 15 0 8 -1 15 -2 14 -2
0 -9 -3 -15 -6z"/>
<path d="M5065 1760 c-3 -5 1 -10 10 -10 9 0 13 5 10 10 -3 6 -8 10 -10 10 -2
0 -7 -4 -10 -10z"/>
<path d="M4995 1510 c-3 -5 1 -10 9 -10 9 0 16 5 16 10 0 6 -4 10 -9 10 -6 0
-13 -4 -16 -10z"/>
<path d="M4842 1194 c-25 -17 -29 -34 -8 -34 16 0 46 26 46 41 0 13 -13 11
-38 -7z"/>
<path d="M4671 1121 c-14 -4 -27 -13 -29 -20 -4 -11 2 -12 24 -7 33 8 69 37
44 35 -8 -1 -26 -4 -39 -8z"/>
<path d="M4885 790 c-3 -5 -1 -10 4 -10 6 0 11 5 11 10 0 6 -2 10 -4 10 -3 0
-8 -4 -11 -10z"/>
<path d="M4815 650 c3 -5 8 -10 11 -10 2 0 4 5 4 10 0 6 -5 10 -11 10 -5 0 -7
-4 -4 -10z"/>
<path d="M4767 590 c-3 -11 -1 -20 4 -20 5 0 9 9 9 20 0 11 -2 20 -4 20 -2 0
-6 -9 -9 -20z"/>
<path d="M4821 574 c0 -11 3 -14 6 -6 3 7 2 16 -1 19 -3 4 -6 -2 -5 -13z"/>
<path d="M3302 530 c-18 -30 -14 -36 8 -12 21 22 25 32 12 32 -4 0 -13 -9 -20
-20z"/>
<path d="M1875 530 c-3 -5 3 -20 14 -32 24 -24 27 -38 9 -38 -6 0 -9 -2 -6 -5
3 -3 18 0 33 7 23 10 29 10 33 0 6 -20 21 -14 15 8 -3 11 2 27 12 37 21 20 5
29 -24 13 -12 -6 -18 -16 -15 -25 4 -10 0 -15 -11 -15 -11 0 -15 5 -11 15 3 9
0 15 -9 15 -8 0 -15 7 -15 15 0 17 -16 20 -25 5z"/>
<path d="M2140 526 c0 -14 29 -30 38 -21 3 3 0 5 -6 5 -7 0 -12 7 -12 15 0 8
-4 15 -10 15 -5 0 -10 -6 -10 -14z"/>
<path d="M2444 529 c-3 -6 0 -15 7 -20 14 -8 32 9 23 23 -7 11 -22 10 -30 -3z"/>
<path d="M3697 521 c-2 -10 -1 -25 4 -32 8 -12 11 -11 19 1 14 22 12 50 -4 50
-7 0 -16 -9 -19 -19z"/>
<path d="M1167 516 c-4 -10 -1 -13 9 -9 7 3 14 9 14 14 0 14 -17 10 -23 -5z"/>
<path d="M3640 501 c26 -22 36 -26 38 -15 5 23 -17 44 -46 44 -26 0 -26 0 8
-29z"/>
<path d="M3133 505 c-3 -9 -3 -18 0 -21 9 -9 27 6 27 22 0 19 -19 18 -27 -1z"/>
<path d="M2020 496 c0 -8 -5 -16 -12 -18 -9 -3 -9 -6 0 -12 7 -4 12 -2 12 3 0
15 27 14 32 -1 3 -7 10 -8 17 -3 11 6 8 12 -10 26 -29 22 -39 24 -39 5z"/>
<path d="M2526 501 c-4 -7 -5 -15 -2 -18 9 -9 19 4 14 18 -4 11 -6 11 -12 0z"/>
<path d="M3330 503 c0 -6 -3 -20 -6 -30 -7 -17 -6 -17 12 -1 14 14 16 21 6 30
-8 8 -12 9 -12 1z"/>
<path d="M1200 490 c0 -5 5 -10 10 -10 6 0 10 5 10 10 0 6 -4 10 -10 10 -5 0
-10 -4 -10 -10z"/>
<path d="M3425 490 c-3 -5 -1 -10 4 -10 6 0 11 5 11 10 0 6 -2 10 -4 10 -3 0
-8 -4 -11 -10z"/>
<path d="M1640 475 c0 -17 2 -18 24 -9 18 7 12 24 -10 24 -8 0 -14 -7 -14 -15z"/>
<path d="M2142 479 c2 -7 10 -15 17 -17 8 -3 12 1 9 9 -2 7 -10 15 -17 17 -8
3 -12 -1 -9 -9z"/>
<path d="M2724 475 c8 -8 20 -15 27 -15 9 0 8 4 -1 15 -7 8 -19 15 -27 15 -12
0 -12 -2 1 -15z"/>
<path d="M3600 483 c0 -5 7 -17 15 -27 12 -16 18 -17 27 -8 9 9 8 12 -5 12 -9
0 -17 7 -17 15 0 8 -4 15 -10 15 -5 0 -10 -3 -10 -7z"/>
<path d="M4458 465 c2 -14 8 -25 13 -25 10 0 11 12 3 34 -10 25 -22 19 -16 -9z"/>
<path d="M1020 471 c0 -5 7 -12 16 -15 24 -9 27 -7 10 9 -17 17 -26 19 -26 6z"/>
<path d="M1068 473 c7 -3 16 -2 19 1 4 3 -2 6 -13 5 -11 0 -14 -3 -6 -6z"/>
<path d="M1140 470 c0 -5 4 -10 9 -10 6 0 13 5 16 10 3 6 -1 10 -9 10 -9 0
-16 -4 -16 -10z"/>
<path d="M1235 470 c4 -6 11 -8 16 -5 14 9 11 15 -7 15 -8 0 -12 -5 -9 -10z"/>
<path d="M1585 470 c3 -5 10 -10 16 -10 5 0 9 5 9 10 0 6 -7 10 -16 10 -8 0
-12 -4 -9 -10z"/>
<path d="M1780 471 c0 -6 5 -13 10 -16 6 -3 10 1 10 9 0 9 -4 16 -10 16 -5 0
-10 -4 -10 -9z"/>
<path d="M2280 465 c0 -8 5 -15 10 -15 6 0 10 7 10 15 0 8 -4 15 -10 15 -5 0
-10 -7 -10 -15z"/>
<path d="M2440 470 c0 -5 5 -10 10 -10 6 0 10 5 10 10 0 6 -4 10 -10 10 -5 0
-10 -4 -10 -10z"/>
<path d="M3860 470 c0 -5 7 -10 15 -10 8 0 15 5 15 10 0 6 -7 10 -15 10 -8 0
-15 -4 -15 -10z"/>
<path d="M3145 460 c-3 -5 -1 -10 4 -10 6 0 11 5 11 10 0 6 -2 10 -4 10 -3 0
-8 -4 -11 -10z"/>
<path d="M3260 459 c0 -5 5 -7 10 -4 6 3 10 8 10 11 0 2 -4 4 -10 4 -5 0 -10
-5 -10 -11z"/>
<path d="M3730 461 c0 -6 5 -13 10 -16 6 -3 10 1 10 9 0 9 -4 16 -10 16 -5 0
-10 -4 -10 -9z"/>
<path d="M2681 444 c0 -11 3 -14 6 -6 3 7 2 16 -1 19 -3 4 -6 -2 -5 -13z"/>
<path d="M4150 446 c0 -9 7 -16 16 -16 9 0 14 5 12 12 -6 18 -28 21 -28 4z"/>
<path d="M4346 447 c3 -10 9 -15 12 -12 3 3 0 11 -7 18 -10 9 -11 8 -5 -6z"/>
<path d="M3065 440 c-3 -5 -1 -10 4 -10 6 0 11 5 11 10 0 6 -2 10 -4 10 -3 0
-8 -4 -11 -10z"/>
<path d="M3095 440 c3 -5 11 -10 16 -10 6 0 7 5 4 10 -3 6 -11 10 -16 10 -6 0
-7 -4 -4 -10z"/>
<path d="M4056 431 c-3 -5 5 -16 19 -25 13 -9 26 -12 29 -7 3 5 -5 16 -19 25
-13 9 -26 12 -29 7z"/>
<path d="M4385 430 c3 -5 11 -10 16 -10 6 0 7 5 4 10 -3 6 -11 10 -16 10 -6 0
-7 -4 -4 -10z"/>
<path d="M1995 420 c3 -5 8 -10 11 -10 2 0 4 5 4 10 0 6 -5 10 -11 10 -5 0 -7
-4 -4 -10z"/>
<path d="M2820 420 c0 -5 5 -10 10 -10 6 0 10 5 10 10 0 6 -4 10 -10 10 -5 0
-10 -4 -10 -10z"/>
<path d="M3900 410 c0 -5 5 -10 11 -10 5 0 7 5 4 10 -3 6 -8 10 -11 10 -2 0
-4 -4 -4 -10z"/>
<path d="M3995 410 c-3 -5 -1 -10 4 -10 6 0 11 5 11 10 0 6 -2 10 -4 10 -3 0
-8 -4 -11 -10z"/>
</g>
</svg>
