<?xml version="1.0" standalone="no"?>
<!DOCTYPE svg PUBLIC "-//W3C//DTD SVG 20010904//EN"
 "http://www.w3.org/TR/2001/REC-SVG-20010904/DTD/svg10.dtd">
<svg version="1.0" xmlns="http://www.w3.org/2000/svg"
 width="1556.000000pt" height="274.000000pt" viewBox="0 0 1556.000000 274.000000"
 preserveAspectRatio="xMidYMid meet">

<g transform="translate(0.000000,274.000000) scale(0.100000,-0.100000)"
fill="#000000" stroke="none">
<path d="M6295 2729 c49 -10 575 -10 665 1 37 4 -103 7 -320 7 -228 1 -369 -3
-345 -8z"/>
<path d="M9526 2721 c-60 -21 -67 -35 -27 -55 64 -34 284 -7 536 64 18 5 -64
8 -215 8 -208 0 -253 -2 -294 -17z"/>
<path d="M10768 2716 c-121 -42 -162 -81 -128 -122 22 -26 101 -13 355 60 50
14 146 37 215 51 69 14 130 28 135 30 6 2 -107 4 -250 4 -246 0 -263 -1 -327
-23z"/>
<path d="M805 2580 c-237 -27 -445 -150 -593 -350 -97 -131 -147 -267 -160
-440 -20 -264 66 -496 257 -694 197 -203 398 -284 676 -273 72 2 141 9 155 15
14 6 33 13 43 16 16 5 14 12 -22 52 -35 40 -68 92 -132 209 -18 34 -34 40
-139 53 -147 18 -311 121 -399 250 -63 92 -103 278 -82 379 27 129 84 236 167
313 61 57 102 81 184 111 56 21 83 24 200 24 104 -1 146 -5 185 -19 173 -61
323 -218 373 -386 46 -153 31 -321 -39 -448 -27 -49 -42 -88 -40 -106 1 -27
-7 -21 -111 80 -140 137 -199 169 -292 161 -122 -11 -266 -45 -266 -63 0 -7
69 -77 437 -448 148 -148 286 -284 309 -302 22 -19 102 -63 177 -99 212 -101
318 -133 632 -190 599 -107 1634 -107 2345 0 58 9 134 20 170 25 76 10 301 55
347 69 35 10 213 98 228 112 5 5 -1 9 -17 9 -14 0 -31 7 -38 15 -15 18 -199
22 -232 4 -18 -10 -91 -23 -273 -49 -33 -5 -105 -16 -160 -25 -193 -31 -232
-35 -460 -52 -283 -22 -893 -24 -1130 -5 -236 19 -429 40 -520 58 -154 29
-171 32 -245 54 -313 89 -465 183 -673 415 l-27 31 68 69 c183 189 246 524
150 810 -57 173 -188 349 -343 461 -66 48 -214 118 -295 139 -75 20 -305 28
-415 15z"/>
<path d="M13950 2588 c0 -3 27 -32 60 -65 l60 -60 0 -740 c0 -798 0 -795 -52
-850 -12 -13 -20 -24 -17 -26 2 -2 70 1 151 6 92 6 184 7 247 1 56 -5 101 -7
101 -3 0 3 -10 14 -21 25 -44 39 -49 70 -49 314 l0 230 105 0 c58 0 108 1 112
3 4 1 23 -28 43 -64 19 -36 56 -97 81 -135 86 -129 168 -262 195 -316 l26 -53
245 -2 246 -2 -45 47 c-71 74 -263 357 -337 498 -35 66 -37 74 -18 74 25 0
142 89 186 142 110 131 147 313 101 493 -35 138 -106 243 -219 323 -86 61
-123 81 -201 105 -60 18 -97 20 -460 22 -355 3 -468 9 -522 30 -10 4 -18 5
-18 3z m891 -385 c62 -20 129 -81 154 -140 12 -27 16 -60 13 -115 -3 -67 -7
-81 -34 -119 -56 -78 -78 -84 -323 -87 -134 -2 -216 0 -220 6 -3 6 -5 114 -3
241 l3 231 178 0 c142 0 190 -4 232 -17z"/>
<path d="M2560 2569 c-94 -12 -294 -15 -370 -6 l-65 8 49 -44 49 -44 -7 -449
c-8 -490 -2 -612 38 -718 113 -298 388 -485 716 -486 240 0 413 70 562 229 81
87 129 160 158 243 40 113 43 179 37 684 -7 535 -12 493 63 562 l35 33 -50 -8
c-63 -10 -403 -10 -470 -1 l-50 8 25 -23 c14 -12 37 -29 50 -38 22 -15 25 -26
31 -105 11 -136 10 -756 -1 -868 -20 -205 -114 -312 -304 -347 -122 -23 -279
18 -364 95 -46 42 -96 139 -113 217 -15 68 -16 248 -5 653 l9 330 40 43 c44
48 47 46 -63 32z"/>
<path d="M5710 2568 c0 -7 14 -22 31 -33 17 -11 34 -27 38 -35 9 -19 -4 -1580
-14 -1634 -7 -38 -7 -39 16 -31 13 4 227 11 474 16 248 4 489 11 536 15 l87 7
4 161 c2 88 3 162 2 164 -1 1 -168 4 -373 5 l-371 2 0 135 c0 74 -5 349 -11
611 -10 391 -10 481 1 505 7 16 37 49 67 73 30 23 53 45 51 47 -2 1 -40 -3
-83 -11 -126 -22 -244 -20 -422 10 -23 4 -33 2 -33 -7z"/>
<path d="M6916 2566 c3 -8 21 -25 40 -37 19 -11 39 -29 44 -39 6 -12 12 -319
15 -815 3 -438 7 -801 10 -806 3 -5 34 -7 68 -6 34 2 87 0 117 -4 30 -4 86
-10 123 -13 l69 -7 -19 28 c-11 15 -24 42 -30 58 -15 39 -25 1458 -12 1530 6
28 12 62 15 77 l6 27 -128 -6 c-116 -5 -191 1 -297 23 -22 5 -26 3 -21 -10z"/>
<path d="M11255 2574 c-11 -2 -45 -9 -75 -15 -131 -25 -303 -111 -403 -200
-118 -105 -216 -268 -254 -419 -14 -58 -18 -111 -17 -235 1 -226 27 -312 149
-496 89 -133 179 -214 335 -301 190 -105 485 -122 710 -40 95 34 234 126 340
223 30 28 64 54 74 58 16 6 5 17 -60 63 -43 31 -115 88 -159 127 -43 39 -82
71 -86 71 -4 0 -10 -8 -13 -17 -15 -45 -107 -121 -196 -161 -120 -55 -233 -65
-349 -33 -82 23 -97 30 -178 88 -86 60 -148 149 -190 273 -23 66 -23 250 1
315 66 186 155 283 314 341 165 60 406 10 540 -111 28 -25 55 -59 62 -75 15
-36 26 -38 35 -7 9 30 159 181 218 219 26 17 46 34 45 39 -3 8 -34 33 -143
113 -70 51 -196 116 -275 141 -30 9 -68 21 -85 27 -31 10 -305 20 -340 12z"/>
<path d="M4560 2535 c0 -48 -18 -91 -133 -336 -25 -52 -57 -123 -71 -157 -14
-34 -37 -85 -50 -114 -13 -29 -43 -98 -66 -153 -23 -55 -51 -120 -62 -145 -10
-25 -23 -54 -28 -65 -4 -11 -20 -47 -35 -80 -15 -33 -59 -132 -97 -220 -39
-88 -83 -188 -99 -223 -16 -35 -29 -67 -29 -72 0 -5 -26 -37 -57 -71 -32 -35
-51 -60 -42 -57 9 4 111 8 227 9 l210 2 27 71 c15 39 43 104 61 144 19 41 34
79 34 87 0 30 30 33 368 37 l342 3 31 -80 c62 -160 81 -220 76 -245 l-6 -25
225 3 c174 3 224 1 224 -9 0 -7 3 -10 6 -6 4 3 -9 28 -29 54 -30 41 -87 152
-87 169 0 3 -14 36 -31 72 -17 37 -49 108 -71 157 -22 50 -60 132 -84 184 -24
51 -44 95 -44 96 0 2 -25 55 -55 120 -30 64 -79 171 -109 238 -30 67 -73 162
-95 210 -23 49 -41 90 -41 92 0 2 -13 32 -29 67 -16 35 -43 101 -61 148 -17
47 -34 93 -38 103 -7 16 -23 18 -145 20 l-137 2 0 -30z m160 -581 c6 -14 22
-51 36 -82 15 -31 53 -122 86 -202 33 -80 62 -151 65 -157 4 -10 -41 -13 -207
-13 -243 0 -224 -13 -165 109 19 40 35 73 35 76 0 2 17 41 38 87 21 46 50 111
63 146 13 34 27 62 32 62 4 0 12 -12 17 -26z"/>
<path d="M12853 2510 c-13 -71 -64 -194 -193 -475 -56 -121 -115 -254 -132
-295 -16 -41 -39 -94 -49 -117 -10 -24 -19 -45 -19 -47 0 -3 -16 -40 -36 -83
-20 -43 -45 -100 -56 -128 -10 -27 -27 -68 -37 -90 -10 -22 -31 -69 -46 -105
-53 -128 -110 -233 -152 -280 l-42 -47 47 3 c26 2 131 7 235 10 l187 6 0 33
c0 34 12 65 69 187 17 37 31 74 31 82 0 8 3 17 8 19 4 3 157 7 340 8 l333 4
14 -30 c47 -101 105 -259 105 -284 l0 -30 225 -3 c124 -2 225 0 225 3 0 3 -12
19 -26 35 -28 32 -141 258 -199 399 -21 50 -57 132 -81 184 -24 51 -44 95 -44
96 0 2 -15 36 -34 77 -60 132 -76 167 -76 172 0 3 -13 34 -29 70 -17 35 -51
114 -76 176 -25 62 -59 141 -76 176 -16 36 -29 67 -29 70 0 3 -7 20 -15 37 -8
18 -32 74 -53 125 l-39 93 -135 2 -134 3 -11 -56z m167 -546 c0 -18 39 -119
81 -212 16 -35 29 -65 29 -68 0 -2 9 -23 19 -47 26 -56 51 -118 51 -126 0 -3
-88 -6 -195 -6 -204 0 -208 1 -185 43 5 9 21 44 35 77 15 33 33 74 41 90 19
42 84 208 84 217 0 4 4 19 10 33 10 27 30 26 30 -1z"/>
<path d="M10011 2508 c-13 -29 -67 -118 -121 -198 -92 -137 -134 -207 -168
-275 -8 -16 -30 -51 -48 -78 -19 -26 -34 -52 -34 -57 0 -25 -22 -6 -44 38 -13
26 -55 99 -93 162 -38 63 -82 140 -98 170 -16 30 -58 98 -92 151 -35 53 -63
104 -63 113 0 14 -23 16 -216 16 l-216 0 39 -47 c55 -66 112 -153 163 -248 24
-44 62 -114 85 -155 23 -41 58 -104 77 -140 36 -66 75 -136 111 -200 11 -19
40 -73 65 -120 24 -47 53 -97 64 -113 21 -29 21 -58 2 -466 l-6 -123 -35 -39
c-20 -22 -34 -41 -32 -43 2 -1 87 1 189 6 102 5 224 7 273 5 l87 -5 -36 32
c-35 30 -36 34 -50 141 -7 61 -13 193 -14 294 0 181 0 185 25 217 14 18 25 36
25 39 0 4 8 19 19 33 10 15 38 63 61 107 24 44 64 112 89 150 25 39 49 77 53
85 4 8 25 40 46 70 22 30 84 125 138 210 113 180 154 235 195 256 16 8 27 19
24 24 -8 14 -130 29 -290 35 l-150 7 -24 -54z"/>
<path d="M7475 2379 l0 -172 245 4 245 4 3 -220 c1 -121 -2 -400 -7 -621 -10
-447 -9 -444 -80 -489 -49 -30 -61 -48 -29 -41 81 17 526 25 583 11 30 -7 29
-7 -17 41 -26 27 -52 63 -59 79 -9 21 -13 112 -14 295 -1 146 -5 419 -10 607
l-8 342 246 -2 c136 -1 247 0 247 3 0 21 -32 262 -38 290 l-8 35 -649 3 -650
2 0 -171z"/>
<path d="M7430 760 c-52 -9 -140 -20 -195 -24 -55 -4 -125 -11 -155 -16 -151
-25 -248 -43 -275 -50 -16 -4 -57 -13 -90 -20 -117 -24 -302 -65 -435 -96 -58
-14 -127 -30 -155 -35 -27 -6 -66 -15 -85 -19 -19 -5 -57 -11 -85 -15 -27 -3
-72 -11 -100 -16 -56 -11 -108 -20 -240 -44 -49 -9 -108 -20 -130 -26 -22 -5
-76 -16 -120 -24 -44 -8 -102 -19 -130 -24 -27 -6 -90 -17 -140 -26 -49 -8
-110 -20 -135 -25 -43 -9 -127 -21 -290 -41 -103 -12 -389 -38 -540 -49 -69
-5 -192 -14 -275 -21 -103 -8 -279 -9 -560 -5 -409 7 -643 20 -870 51 -167 23
-254 33 -370 45 -55 5 -131 14 -170 20 -69 11 -95 15 -290 46 -178 28 -384 72
-650 140 -398 100 -399 101 -436 113 -158 51 -411 132 -444 140 -58 15 -65 -2
-15 -38 57 -41 386 -201 414 -201 7 0 16 -3 20 -7 8 -8 32 -17 271 -97 236
-80 425 -136 575 -171 63 -15 129 -31 145 -35 17 -5 84 -16 150 -25 66 -9 149
-20 185 -25 36 -6 117 -17 180 -25 63 -9 144 -20 180 -25 36 -5 124 -17 195
-25 72 -8 162 -20 200 -25 128 -17 641 -33 882 -27 324 8 791 42 1063 77 41 5
131 16 200 25 69 8 154 20 190 25 36 5 83 12 105 15 60 9 212 33 285 45 36 6
110 18 165 25 55 8 114 17 130 20 17 3 68 13 115 21 47 8 105 19 130 25 25 5
92 19 150 31 58 11 121 24 140 28 19 5 62 13 95 19 66 12 131 27 185 42 41 11
331 79 445 104 146 32 356 88 431 115 154 56 332 123 359 135 29 13 27 14 -40
13 -38 0 -113 -8 -165 -18z"/>
</g>
</svg>
